<?xml version="1.0" encoding="UTF-8"?>
<svg width="190px" height="190px" viewBox="0 0 190 190" version="1.1" xmlns="http://www.w3.org/2000/svg" xmlns:xlink="http://www.w3.org/1999/xlink">
    <!-- Generator: Sketch 56 (81588) - https://sketch.com -->
    <title>皮肤备份</title>
    <desc>Created with Sketch.</desc>
    <g id="皮肤备份" stroke="none" stroke-width="1" fill="none" fill-rule="evenodd">
        <rect id="矩形备份-131" fill-opacity="0" fill="#FFFFFF" fill-rule="nonzero" x="0" y="0" width="190" height="190"></rect>
        <g id="皮肤" transform="translate(41.000000, 30.000000)" fill="#FFFFFF" fill-rule="nonzero">
            <path d="M15.769002,70.4730312 L21.4283377,81.2760438 C23.6643403,83.1913751 25.7703428,83.3647171 26.823344,81.8653774 C27.8763452,80.3703757 26.6976772,74.9753694 26.1126761,71.6126946 L19.989669,23.8072971 C19.214001,19.387292 22.1563424,14.9152868 26.5850057,14.1439568 C31.0136818,13.3682888 35.2386867,16.5792887 36.0143458,20.9992939 L44.7460269,59.78263 C45.1533603,60.735964 45.9030282,60.8659642 45.9160282,59.5486297 L45.5346949,8.56686143 C45.3001587,4.08073581 48.7467522,0.253881744 53.2328746,0.0193482682 C57.718997,-0.215187747 61.545851,3.23140572 61.7803845,7.71752812 L64.6187169,58.950537 C64.6100502,59.5398706 65.1300504,59.6872049 65.1820505,59.002537 L70.3127274,18.6331736 C70.8760609,14.1698393 74.9407327,10.7724936 79.3867379,11.3401652 C83.8500722,11.8991658 87.0134177,16.2238417 86.4500752,20.674176 L82.4633997,67.8209399 C82.506733,68.6572737 82.8014001,69.1122705 83.1437334,68.0246072 L91.398743,41.8599185 C92.6770736,37.5612426 97.1924207,34.8572395 101.504084,36.1355828 C105.80276,37.4182552 108.268421,42.1892607 106.99009,46.4922657 L93.0454158,102.34904 C92.9760825,102.656707 92.8980827,102.955708 92.8157485,103.267708 C88.8724148,117.988067 75.9331214,129.072738 60.0296849,129.90479 C49.8550022,130.43779 39.0910277,127.404458 30.7189672,121.64978 C21.7489568,116.874445 6.09257138,90.3111108 6.09257138,90.3111108 C3.59223937,85.1847757 -2.63910968,74.6590418 1.36923678,70.2043784 C5.78924193,65.2860436 12.3325786,66.9413746 15.7775446,70.4773787 L15.7732113,70.4773787 L15.769002,70.4730312 Z M82.303181,86.6668098 C82.303181,89.0600435 84.2432809,91.0001434 86.6365152,91.0001434 C89.0297494,91.0001434 90.9698493,89.0600435 90.9698493,86.6668093 C90.9698493,84.2735748 89.0297494,82.3334748 86.6365152,82.3334748 C84.2432809,82.3334748 82.303181,84.2735748 82.303181,86.666809 Z M69.3031659,86.6668098 C69.3031659,89.0600435 71.2432658,91.0001434 73.6365,91.0001434 C76.0297343,91.0001434 77.9698342,89.0600435 77.9698342,86.6668093 C77.9698342,84.2735748 76.0297343,82.3334748 73.6365,82.3334748 C71.2432658,82.3334748 69.3031659,84.2735748 69.3031659,86.666809 Z M56.3031508,108.333417 C56.3031508,110.726651 58.2432507,112.666751 60.6364849,112.666751 C63.0297192,112.666751 64.9698191,110.726651 64.9698191,108.333417 C64.9698191,105.940182 63.0297192,104.000082 60.6364849,104.000082 C58.2432507,104.000082 56.3031508,105.940182 56.3031508,108.333416 Z M64.9697429,99.666825 C64.9697429,102.060059 66.9098428,104.000159 69.303077,104.000159 C71.6963113,104.000159 73.6364112,102.060059 73.6364112,99.6668244 C73.6364112,97.2735899 71.6963113,95.33349 69.303077,95.33349 C66.9098428,95.33349 64.9697429,97.2735899 64.9697429,99.6668241 Z M77.969758,99.666825 C77.969758,102.060059 79.9098579,104.000159 82.3030922,104.000159 C84.6963264,104.000159 86.6364263,102.060059 86.6364263,99.6668244 C86.6364263,97.2735899 84.6963264,95.33349 82.3030922,95.33349 C79.9098579,95.33349 77.969758,97.2735899 77.969758,99.6668241 Z M69.3031659,112.66684 C69.3031659,115.060074 71.2432658,117.000174 73.6365,117.000174 C76.0297343,117.000174 77.9698342,115.060074 77.9698342,112.66684 C77.9698342,110.273605 76.0297343,108.333505 73.6365,108.333505 C71.2432658,108.333505 69.3031659,110.273605 69.3031659,112.666839 Z" id="形状结合"></path>
        </g>
    </g>
</svg>