<?xml version="1.0" encoding="iso-8859-1"?>
<!-- Generator: Adobe Illustrator 16.0.0, SVG Export Plug-In . SVG Version: 6.00 Build 0)  -->
<!DOCTYPE svg PUBLIC "-//W3C//DTD SVG 1.1//EN" "http://www.w3.org/Graphics/SVG/1.1/DTD/svg11.dtd">
<svg version="1.1" id="&#x56FE;&#x5C42;_1" xmlns="http://www.w3.org/2000/svg" xmlns:xlink="http://www.w3.org/1999/xlink" x="0px"
	 y="0px" width="198px" height="198px" viewBox="0 0 198 198" style="enable-background:new 0 0 198 198;" xml:space="preserve">
<path fill="#fff" d="M151.487,112.566c-3.091,6.865-7.896,12.359-15.453,17.17c-17.514,9.617-27.474,26.1-29.19,49.453v1.029
	c-1.033,2.061-3.776,3.781-5.837,3.781c-2.406,0-4.466-1.375-5.843-3.438c-0.343-0.344-0.343-0.684-0.343-1.029
	c-1.713-23.354-11.677-39.836-29.186-49.449c-7.557-4.811-12.71-10.309-15.457-17.174c-2.747-6.184-3.776-13.394-3.776-24.384
	c0.344-8.93,3.094-17.173,8.24-24.04c-5.493-13.393-5.837-27.82-1.027-42.243v-0.687c1.027-1.716,1.717-8.587,9.27-7.214
	c4.811,0.691,5.84,7.214,5.493,8.244v0.687c-3.776,10.303-3.776,19.92,0,29.194c3.78-2.063,7.9-4.12,12.02-5.493
	c6.531-2.063,13.74-3.094,21.293-3.094h0.344c7.557,0,14.77,1.03,20.95,3.094c4.467,1.373,8.586,3.086,12.02,5.493
	c3.775-9.274,3.775-18.891,0-29.194V22.93c0,0-1.718-8.93,5.841-8.93c7.213,0,8.582,7.213,9.611,9.617c0,0.343,0,0.343,0.348,0.687
	c4.12,13.737,3.434,27.13-1.717,39.84c5.15,6.866,7.896,14.766,8.244,24.04C155.271,99.169,154.237,106.383,151.487,112.566
	L151.487,112.566z"/>
</svg>
