<?xml version="1.0" encoding="utf-8"?>
<!-- Generator: Adobe Illustrator 16.0.0, SVG Export Plug-In . SVG Version: 6.00 Build 0)  -->
<!DOCTYPE svg PUBLIC "-//W3C//DTD SVG 1.1//EN" "http://www.w3.org/Graphics/SVG/1.1/DTD/svg11.dtd">
<svg version="1.1" id="图层_1" xmlns="http://www.w3.org/2000/svg" xmlns:xlink="http://www.w3.org/1999/xlink" x="0px" y="0px"
	 width="198px" height="198px" viewBox="0 0 198 198" enable-background="new 0 0 198 198" xml:space="preserve">
<g>
	<defs>
		<rect id="SVGID_1_" x="13.337" y="25.991" width="169.999" height="146.359"/>
	</defs>
	<clipPath id="SVGID_2_">
		<use xlink:href="#SVGID_1_"  overflow="visible"/>
	</clipPath>
	<path fill="#fff" clip-path="url(#SVGID_2_)" d="M182.571,79.939c-0.97-6.31-4.125-11.648-9.221-15.045c-2.427-1.457-3.397-3.883-4.611-6.795
		l-0.485-1.214c-3.64-8.007-10.191-13.589-18.928-15.772c-1.698-0.485-2.912-1.214-4.125-2.912
		c-5.097-6.31-12.376-9.222-20.869-8.251c-1.699,0.243-2.185,0-2.67-0.242c-3.154-1.941-6.31-2.669-9.464-3.397l-1.214-0.243h-5.339
		l-0.728,0.243l-2.184,0.728c-1.699,0.486-3.64,0.971-5.581,1.941l-0.485-0.242c-11.162-3.398-21.354-0.971-30.333,6.794
		l-0.242,0.243c-7.766-1.213-15.046,1.699-20.87,8.25c-0.242,0.485-0.485,0.485-0.728,0.485
		c-10.436,1.941-17.715,8.25-20.869,18.686c-0.972,3.154-2.186,5.339-3.883,7.522c-2.428,3.155-4.126,6.795-5.096,10.92
		c0,0.485-0.244,0.728-0.244,1.213c-0.242,0.728-0.484,1.698-0.728,2.669c-0.485,3.155-0.485,6.309,0,9.462
		c0,0.728,0.243,1.457,0.485,1.94c0,0.244,0,0.244,0.242,0.486c3.641,14.559,13.104,23.538,27.422,26.45
		c2.427,0.484,4.854,0.484,7.037,0.484h3.155c3.883,0.244,4.368,0.729,5.096,2.186c0.728,1.697,1.699,3.154,2.669,4.125l0.243,0.242
		c6.31,7.766,15.288,11.891,26.208,11.891c8.493,0,18.442,8.736,20.625,15.773c0.485,1.455,0.485,3.154,0.729,4.854
		c0,1.941,0.242,4.125,0.97,6.309l0.729,2.428h29.363l-0.485-3.883c-0.243-1.213-0.243-2.428-0.486-3.398v-0.484
		c-0.242-2.67-0.728-5.824-1.213-8.736c13.104-1.213,22.568-8.25,28.393-20.385c1.455-2.912,2.184-6.309,2.669-10.191v-0.242
		c8.493-4.369,13.347-11.164,14.317-19.172C183.543,96.439,183.543,87.947,182.571,79.939L182.571,79.939z M175.534,104.688
		c-0.729,5.098-3.397,8.736-6.552,11.162c-0.729-2.91-2.184-8.006-4.61-11.891c-3.641-6.308-14.561-11.401-16.017-12.129
		c-0.728-0.484-1.941-0.484-2.669,0c-1.699,0.729-2.669,2.669-1.942,4.61c0.243,0.97,0.972,1.456,1.942,1.94
		c3.883,1.94,10.92,5.823,12.86,9.22c2.67,4.611,4.368,11.891,4.368,11.891l0.243,0.486c-0.971,1.213-1.698,2.668-1.941,4.367
		c-0.243,3.154-0.971,5.582-1.941,7.766c-4.854,10.191-12.619,15.531-23.781,16.502c-0.971,0-3.155,0.242-4.61,1.941
		c-1.214,1.697-1.214,3.396-0.971,4.854c0.485,3.154,0.971,6.309,1.213,9.221v0.486h-16.259c0-0.729,0-1.457-0.242-2.428
		c0-1.941-0.242-4.367-0.971-6.795c-3.155-9.705-15.529-20.627-27.178-20.627h-0.242c-8.736,0-15.773-3.154-20.869-9.221
		l-0.243-0.486c-0.484-0.727-1.213-1.455-1.455-2.184c-0.486-1.455-1.214-2.426-1.941-3.396l0.242,0.242
		c0,0-0.485-1.699-0.485-1.941c-0.485-6.309,0.728-8.979,1.698-9.949c4.126-5.582,11.405-8.978,11.405-8.978h0.243
		c1.698-0.729,2.669-2.669,1.941-4.609c-0.728-1.697-2.669-2.669-4.611-1.94c-0.242,0-0.242,0.243-0.484,0.243
		c-0.242,0.242-8.979,4.124-14.075,11.16c-2.184,2.912-3.154,7.037-2.912,12.375h-5.338c-1.941,0-3.883,0-5.582-0.242
		c-11.891-2.426-19.17-9.463-22.326-21.353c0-0.242-0.242-0.726-0.242-0.968l-0.484,0.242c0-0.242,0-0.242-0.243-0.486
		c-0.243-2.425-0.243-5.095,0-7.522c0-0.485,0.243-0.97,0.485-1.456c0.242-0.728,0.484-1.213,0.484-1.941
		c0.486-1.942,0.972-3.64,1.941-5.097c1.457,3.398,3.641,7.28,7.281,8.979c3.64,1.941,7.037,2.912,9.221,3.397
		c-1.699,2.912-2.669,6.55-1.699,10.917v0.727c0.729,1.699,2.67,2.67,4.611,1.941c1.456-0.727,2.427-2.184,2.185-3.883
		c-1.214-5.093,2.427-8.732,4.368-10.43c1.698-1.699,1.698-1.941,2.427-2.912c0.728-0.971,2.426-3.155,0.485-5.339
		c-0.729-0.971-2.186-0.243-2.186-0.243s-3.882,1.942-4.125,2.184c-0.97,0.486-2.426,0.243-2.912,0.486
		c-1.213-0.243-4.854-1.213-8.979-3.155c-2.426-1.213-4.61-6.552-5.58-10.435c0.727-1.699,1.455-3.397,2.184-5.339
		c2.426-7.766,7.766-12.619,15.53-13.832c2.427-0.486,3.64-1.699,4.61-2.669c4.611-5.096,9.222-6.795,15.046-6.067
		c3.155,0.485,5.096-1.213,5.582-1.942c7.037-6.309,14.802-8.007,23.781-5.338h0.242c0.971,0.243,2.911,0.971,4.852-0.242
		c1.456-0.728,2.911-1.213,4.61-1.699c0.485-0.243,1.213-0.243,1.699-0.486h3.397l0.728,0.243c1.214,0.243,2.669,0.485,3.641,0.97
		c-3.398,3.155-7.523,8.736-7.038,17.715c0,0.485,0,1.213,0.243,1.699c0.728,1.698,2.669,2.668,4.61,1.941
		c1.456-0.486,2.185-1.941,2.185-3.155c-0.972-10.192,6.794-14.561,7.765-15.046h2.912c6.066-0.728,10.92,1.213,14.803,5.824
		c2.184,2.67,4.61,4.369,7.766,5.097c6.794,1.699,11.647,5.824,14.317,11.891l0.485,0.971c1.456,3.397,3.154,7.037,7.28,9.707
		c3.153,2.184,5.58,5.824,6.066,10.192C176.748,88.19,176.748,96.197,175.534,104.688L175.534,104.688z M175.534,104.688"/>
</g>
<path fill="#fff" d="M151.995,76.785c-1.455-10.192-10.435-18.686-20.869-19.413c-0.971,0-3.64-0.243-3.64,2.669
	c-0.243,2.427,1.94,2.67,2.912,2.67h0.485c10.192,1.94,14.803,6.552,16.016,16.501c0,0.728,0.243,1.941,1.214,2.427
	c0.484,0.242,0.97,0.485,1.456,0.485h0.485c2.184-0.243,2.184-2.426,2.184-3.155v-0.971
	C151.995,77.513,151.995,77.028,151.995,76.785L151.995,76.785z M151.995,76.785"/>
<path fill="#fff" d="M117.052,109.299c0.97,0,1.456-0.486,1.698-0.971c0.729-0.971,0.729-2.184,0.485-2.912
	c-0.242-3.883-1.214-6.552-2.912-8.977c-0.242-0.242-0.485-0.729-0.485-0.729c0.243,0,0.485,0,1.214-0.242
	c2.911-0.242,6.552-0.729,9.706-2.184c7.522-3.397,12.376-8.979,14.803-16.258c0.729-2.185,0.243-3.883-1.456-4.369
	c-0.971-0.485-1.698-0.243-2.184,0c-1.214,0.485-1.456,1.699-1.698,2.669c-0.971,3.155-2.427,6.067-5.097,8.494
	c-5.581,5.582-12.133,7.523-19.413,5.824c-9.464-2.184-15.044-8.251-16.5-18.443v-0.242c0-0.971-0.243-3.155-2.912-2.912
	c-2.427,0.242-2.427,2.184-2.427,3.397v1.213c1.213,9.464,6.065,16.258,13.83,20.141c6.311,2.911,9.707,7.278,10.436,13.586
	c0.243,2.426,1.456,3.154,2.669,3.154C116.809,109.299,117.052,109.299,117.052,109.299L117.052,109.299z M142.531,117.793
	l-0.242,0.242c-6.066,6.795-12.862,8.008-21.354,4.125l-0.243-0.242c-0.729-0.242-1.698-0.729-2.67-0.486
	c-0.728,0.244-0.97,0.729-1.455,1.457c-0.729,1.455-0.243,2.912,1.941,4.125c3.64,1.941,7.037,2.912,10.677,2.912
	c6.795,0,12.376-2.912,16.986-8.25c0.485-0.729,2.427-2.912,0.243-4.611C144.716,115.607,143.018,117.307,142.531,117.793
	L142.531,117.793z M71.674,57.372c-2.185-1.457-3.641,0.485-4.126,1.212l-0.242,0.243c-5.339,6.552-11.163,8.008-18.928,4.854
	h-0.242c-0.729-0.243-2.913-1.213-3.884,1.213c-0.485,1.213-0.485,2.669,1.941,3.882c2.669,1.456,5.096,1.941,7.522,1.941h1.213
	c8.979,0.728,14.803-5.582,16.745-8.494l0.242-0.242c0.485-0.728,1.214-1.456,0.971-2.67C72.887,58.342,72.402,57.857,71.674,57.372
	L71.674,57.372z M71.674,57.372"/>
<path fill="#fff" d="M94.485,60.526c5.823,0.728,9.706,4.61,10.433,10.435v0.485c0,0.728,0.243,1.699,0.971,2.427
	c0.485,0.242,0.971,0.485,1.699,0.485h0.242c2.427-0.243,2.427-2.427,2.427-3.155v-0.485c0-7.037-6.553-14.075-14.801-15.531
	c-1.214-0.242-2.427-0.242-3.397,0.485c-0.485,0.243-0.971,0.971-0.971,1.942C90.36,60.041,93.029,60.526,94.485,60.526
	L94.485,60.526z M78.711,86.734c-0.728-0.728-1.456-0.971-2.427-0.971c-0.485,0-1.214,0.243-1.699,0.971
	c-0.484,0.729-1.455,2.184,0.729,4.125c0.243,0.243,0.243,0.243,0.485,0.243l0.243,0.243c3.396,3.396,4.61,6.55,4.125,10.188
	c0,0.486-0.243,1.213-0.729,1.941c-0.242,0.484-0.485,1.213-0.728,1.699c0,0.242,0,0.242-0.242,0.484
	c-0.243,0.729-1.214,2.912,0.97,3.883c0.485,0.244,0.972,0.244,1.214,0.244c0.485,0,0.729,0,0.971-0.244
	c1.213-0.484,1.699-1.697,1.941-2.668c0.971-2.428,1.698-4.611,1.698-6.553C85.75,93.528,81.624,89.16,78.711,86.734L78.711,86.734z
	 M78.711,86.734"/>
</svg>
