<?xml version="1.0" encoding="iso-8859-1"?>
<!-- Generator: Adobe Illustrator 16.0.0, SVG Export Plug-In . SVG Version: 6.00 Build 0)  -->
<!DOCTYPE svg PUBLIC "-//W3C//DTD SVG 1.1//EN" "http://www.w3.org/Graphics/SVG/1.1/DTD/svg11.dtd">
<svg version="1.1" id="&#x56FE;&#x5C42;_1" xmlns="http://www.w3.org/2000/svg" xmlns:xlink="http://www.w3.org/1999/xlink" x="0px"
	 y="0px" width="198px" height="198px" viewBox="0 0 198 198" style="enable-background:new 0 0 198 198;" xml:space="preserve">
<path fill="#fff" d="M52.966,65.183c3.242,0.848,6.563-1.094,7.417-4.333c2.941-11.22,13.172-26.033,28.709-32.044
	c13.394-5.187,27.784-2.892,42.76,6.828c11.448,7.428,17.9,18.112,19.189,31.746c2.071,21.956-10.16,46.752-17.031,53.332
	c-13.229,12.679-22.779,21.84-32.101,36.177c-5.678,8.749-18.866,16.992-27.342,14.524c-8.492-2.482-9.868-16.254-9.939-24.239
	c-0.024-3.351-2.759-6.049-6.12-6.02c-3.345,0.026-6.049,2.766-6.017,6.12c0.198,25.136,10.263,33.335,18.667,35.794
	c14.651,4.277,32.654-6.824,40.933-19.562c8.556-13.163,17.213-21.467,30.314-34.028c8.271-7.923,23.349-35.468,20.724-63.241
	c-1.629-17.269-10.16-31.368-24.669-40.785c-22.953-14.902-41.905-12.558-53.757-7.97c-19.617,7.592-32.244,25.707-36.07,40.286
	C47.787,61.01,49.725,64.334,52.966,65.183L52.966,65.183z M69.776,101.395c-2.483,0.864-3.938,6.551-2.356,10.318
	c3.384,8.075,5.005,18.126,4.562,21.908c-0.877,7.584,1.597,13.745,8.073,16.146c5.796,2.153,13.71,0.313,17.988-8.517
	c0.245-0.405,0.467-0.843,0.617-1.345l3.107-10.464c1.035-4.408,1.929-8.222,4.356-12.107l6.989-9.235
	c5.503-6.64,11.188-13.507,11.394-23.245c0.214-10.309-5.954-20.093-15.354-24.347c-8.571-3.879-17.972-2.268-25.144,4.305
	c-2.475,2.268-2.633,6.108-0.372,8.579c2.269,2.475,6.112,2.637,8.579,0.373c4.586-4.2,9.021-3.51,11.931-2.191
	c4.95,2.241,8.334,7.6,8.224,13.03c-0.119,5.505-3.866,10.025-8.61,15.75l-7.931,10.549c-3.495,5.589-4.76,10.992-5.882,15.765
	l-2.522,8.634c0,0,0,0.004-0.008,0.008c-0.751,1.834-0.569,3.317-3.139,3.078c-3.336-0.309-2.016-20.532-4.515-28.369
	C77.429,102.72,73.16,100.217,69.776,101.395L69.776,101.395z M69.776,101.395"/>
</svg>
