<?xml version="1.0" encoding="iso-8859-1"?>
<!-- Generator: Adobe Illustrator 16.0.0, SVG Export Plug-In . SVG Version: 6.00 Build 0)  -->
<!DOCTYPE svg PUBLIC "-//W3C//DTD SVG 1.1//EN" "http://www.w3.org/Graphics/SVG/1.1/DTD/svg11.dtd">
<svg version="1.1" id="&#x56FE;&#x5C42;_1" xmlns="http://www.w3.org/2000/svg" xmlns:xlink="http://www.w3.org/1999/xlink" x="0px"
	 y="0px" width="198px" height="198px" viewBox="0 0 198 198" style="enable-background:new 0 0 198 198;" xml:space="preserve">
<g>
	<path fill="#fff" d="M99.245,82.616c-0.083,0-0.16,0.014-0.244,0.014c-0.083,0-0.16-0.014-0.244-0.014c-8.825,0-15.979,7.153-15.979,15.982
		c0,8.822,7.153,15.976,15.979,15.976c0.084,0,0.161-0.013,0.244-0.013c0.084,0,0.161,0.013,0.244,0.013
		c8.822,0,15.976-7.153,15.976-15.976C115.221,89.77,108.067,82.616,99.245,82.616z"/>
	<path fill="#fff" d="M122.059,55.841c-7.265-1.053-14.909-1.631-22.813-1.631c-0.083,0-0.164,0-0.244,0c-0.083,0-0.16,0-0.244,0
		c-7.907,0-15.548,0.578-22.813,1.631C50.079,61.1,27.888,78.896,14,103.768c4.533,22.493,40.745,40.022,84.757,40.022
		c0.084,0,0.161,0,0.244,0c0.08,0,0.161,0,0.244,0c44.01,0,80.221-17.529,84.755-40.022C170.114,78.896,147.92,61.1,122.059,55.841z
		 M99.245,135.115c-0.083,0-0.16-0.01-0.244-0.013c-0.083,0.003-0.16,0.013-0.244,0.013c-20.175,0-36.529-16.342-36.529-36.517
		s16.354-36.522,36.529-36.522c0.084,0,0.161,0.006,0.244,0.013c0.084-0.007,0.161-0.013,0.244-0.013
		c20.175,0,36.526,16.348,36.526,36.522S119.42,135.115,99.245,135.115z"/>
</g>
</svg>
