<?xml version="1.0" encoding="UTF-8"?>
<svg width="190px" height="190px" viewBox="0 0 190 190" version="1.1" xmlns="http://www.w3.org/2000/svg" xmlns:xlink="http://www.w3.org/1999/xlink">
    <!-- Generator: Sketch 56 (81588) - https://sketch.com -->
    <title>皮肤</title>
    <desc>Created with Sketch.</desc>
    <g id="皮肤" stroke="none" stroke-width="1" fill="none" fill-rule="evenodd">
        <rect id="矩形备份-131" fill-opacity="0" fill="#FFFFFF" fill-rule="nonzero" x="0" y="0" width="190" height="190"></rect>
        <g id="编组-52" transform="translate(45.000000, 30.000000)" fill-rule="nonzero">
            <ellipse id="椭圆形" fill="#FFFFFF" cx="50" cy="65" rx="50" ry="65"></ellipse>
            <path d="M71,100 C69.8954305,100 69,99.1045695 69,98 C69,96.8954305 69.8954305,96 71,96 C72.1045695,96 73,96.8954305 73,98 C73,99.1045695 72.1045695,100 71,100 Z M79,95 C77.8954305,95 77,94.1045695 77,93 C77,91.8954305 77.8954305,91 79,91 C80.1045695,91 81,91.8954305 81,93 C81,94.1045695 80.1045695,95 79,95 Z M72,93 C70.8954305,93 70,92.1045695 70,91 C70,89.8954305 70.8954305,89 72,89 C73.1045695,89 74,89.8954305 74,91 C74,92.1045695 73.1045695,93 72,93 Z M76,87 C74.8954305,87 74,86.1045695 74,85 C74,83.8954305 74.8954305,83 76,83 C77.1045695,83 78,83.8954305 78,85 C78,86.1045695 77.1045695,87 76,87 Z M63,88 C61.8954305,88 61,87.1045695 61,86 C61,84.8954305 61.8954305,84 63,84 C64.1045695,84 65,84.8954305 65,86 C65,87.1045695 64.1045695,88 63,88 Z M69,85 C67.8954305,85 67,84.1045695 67,83 C67,81.8954305 67.8954305,81 69,81 C70.1045695,81 71,81.8954305 71,83 C71,84.1045695 70.1045695,85 69,85 Z M65,95 C63.8954305,95 63,94.1045695 63,93 C63,91.8954305 63.8954305,91 65,91 C66.1045695,91 67,91.8954305 67,93 C67,94.1045695 66.1045695,95 65,95 Z" id="形状结合" fill-opacity="0.728529283" fill="#D8D8D8"></path>
            <g id="编组-61备份" transform="translate(62.000000, 46.000000)" stroke="#979797" stroke-linecap="round">
                <path d="M0,0 C3,2.66666667 6,4 9,4 C12,4 15,2.66666667 18,0" id="路径-73备份"></path>
                <path d="M3,3 L1,5" id="路径-74备份-5"></path>
                <path d="M7.875,4.125 L7.125,7.375" id="路径-74备份-2"></path>
                <path d="M13.8125,3.125 L14.4375,6.375" id="路径-74备份-3"></path>
            </g>
            <path d="M50,2.84217094e-14 L50,130 C22.3857625,130 0,100.898509 0,65 C0,29.1014913 22.3857625,0 50,0 Z" id="形状结合" fill="#FCFCFC"></path>
            <g id="编组-61备份-2" transform="translate(20.000000, 46.000000)" stroke="#979797" stroke-linecap="round">
                <path d="M0,0 C3,2.66666667 6,4 9,4 C12,4 15,2.66666667 18,0" id="路径-73备份"></path>
                <path d="M3,3 L1,5" id="路径-74备份-5"></path>
                <path d="M7.875,4.125 L7.125,7.375" id="路径-74备份-2"></path>
                <path d="M13.8125,3.125 L14.4375,6.375" id="路径-74备份-3"></path>
            </g>
        </g>
    </g>
</svg>