<?xml version="1.0" encoding="iso-8859-1"?>
<!-- Generator: Adobe Illustrator 16.0.0, SVG Export Plug-In . SVG Version: 6.00 Build 0)  -->
<!DOCTYPE svg PUBLIC "-//W3C//DTD SVG 1.1//EN" "http://www.w3.org/Graphics/SVG/1.1/DTD/svg11.dtd">
<svg version="1.1" id="&#x56FE;&#x5C42;_1" xmlns="http://www.w3.org/2000/svg" xmlns:xlink="http://www.w3.org/1999/xlink" x="0px"
	 y="0px" width="198px" height="198px" viewBox="0 0 198 198" style="enable-background:new 0 0 198 198;" xml:space="preserve">
<path fill="#fff" style="fill-rule:evenodd;clip-rule:evenodd;" d="M143.677,97.667c-0.814-0.938-1.415-1.932-2.28-2.563
	c-1.738-1.266-3.648-2.293-5.429-3.506c-0.588-0.4-1.262-0.99-1.439-1.622c-0.84-2.991-1.518-6.026-2.259-9.045
	c-0.712-2.896-1.005-5.984-2.234-8.64c-2.446-5.281-3.746-10.894-5.345-16.409c-0.97-3.345-1.146-6.917-1.703-10.383
	c-0.534-3.325-2.761-5.853-5.993-6.026c-2.21-0.119-4.41-0.743-6.563-1.328c-0.65-0.177-1.552-0.941-1.606-1.507
	c-0.057-0.583-0.079-1.173-0.074-1.764c0.037,0.016,0.071,0.027,0.104,0.027c0,0-0.041-0.064-0.103-0.17
	c0.005-0.346,0.02-0.691,0.041-1.037c0.51,0.252,1.305,0.544,2.194,0.504c0,0-1.703-1.689-1.344-2.674c0,0-0.04-1.548,1.344-3.378
	c0.372-0.491,0.576-1.271,0.668-2.176c0.095-0.488,0.151-0.992,0.195-1.507c0.034-0.404-0.023-0.684-0.166-0.844
	c-0.106-1.911-0.466-3.789-0.697-4.48c-0.518-1.548-2.322-4.441-4.745-5.092c-0.861-0.231-1.917,0.417-3.17,1.261
	c0,0-2.187-1.858-4.398-0.224c-1.494,1.104-3.577,3.528-3.889,6.025c0,0,0.097,1.117,0.34,2.604
	c-0.065,0.148-0.089,0.353-0.067,0.608c0.062,0.741,0.017,1.552,0.313,2.197c0.155,0.339,0.373,0.653,0.603,0.961
	c0.078,0.252,0.16,0.499,0.247,0.737c1.077,2.956,1.58,5.348,0.431,6.474c0,0,0.688,0.147,1.655-0.588
	c0.043,0.528,0.043,1.065-0.014,1.613c-0.123,1.185-0.551,2.095-1.705,2.4c-1.82,0.481-3.658,1.028-5.519,1.19
	c-3.993,0.35-6.134,1.852-7.039,5.377c-0.327,1.277-0.621,2.572-0.804,3.876c-0.602,4.305-1.094,8.604-2.624,12.744
	c-1.275,3.451-1.944,7.105-3.589,10.459c-0.838,1.709-1.322,3.625-1.736,5.5c-0.626,2.83-1.008,5.714-1.57,8.561
	c-0.672,3.396-1.871,6.45-5.541,7.721c-0.283,0.098-0.55,0.293-0.778,0.494c-1.412,1.244-2.825,2.484-4.196,3.771
	c-0.197,0.184-0.328,0.736-0.205,0.891c0.169,0.209,0.68,0.359,0.921,0.254c0.63-0.273,1.194-0.701,1.783-1.068
	c0.731-0.455,1.462-0.911,2.299-1.434c-0.572,3.288-1.118,6.252-1.574,9.23c-0.063,0.411,0.321,0.89,0.498,1.337
	c0.32-0.343,0.776-0.632,0.933-1.038c0.358-0.924,0.569-1.905,0.84-2.863c0.039,1.073-0.215,2.084-0.318,3.109
	c-0.099,0.971-0.854,2.123,0.675,3.002c0.4-1.037,0.753-1.955,1.124-2.919c0.02,0.288-0.022,0.567,0.066,0.796
	c0.131,0.335,0.354,0.633,0.539,0.946c0.248-0.259,0.589-0.478,0.721-0.785c0.217-0.504,0.297-1.066,0.44-1.628
	c0.352,0.293,0.666,0.555,1.218,1.016c0.732-2.43,1.786-4.609,1.984-6.863c0.387-4.41,1.827-8.391,3.918-12.192
	c3.12-5.671,5.231-11.656,6.476-18.032c0.646-3.314,2.175-6.456,3.381-9.893c0.394,0.901,0.829,1.519,0.926,2.185
	c0.542,3.774,1.1,7.552,1.442,11.348c0.131,1.445-0.004,3.055-0.521,4.396c-1.684,4.362-3.058,8.769-3.785,13.413
	c-0.704,4.496-1.53,8.965-0.931,13.518c0.383,2.912,1.012,5.793,1.566,8.682c0.986,5.13,2.038,10.248,2.988,15.385
	c0.678,3.664,1.715,7.305,1.108,11.102c-0.298,1.858-0.784,3.707-0.877,5.574c-0.357,7.201,1.355,14.127,2.822,21.107
	c0.812,3.863,0.962,7.867,1.387,11.811c0.031,0.287-0.086,0.62-0.218,0.891c-0.443,0.906-0.882,1.821-1.401,2.685
	c-0.711,1.181-0.516,1.843,0.864,1.997c1.72,0.193,3.469,0.279,5.193,0.189c0.518-0.027,1.259-0.709,1.432-1.242
	c0.25-0.771,0.081-1.68,0.081-2.529c-0.001-1.754,0.269-3.564-0.072-5.249c-0.651-3.212-0.542-6.377-0.204-9.585
	c0.318-3.02,0.488-6.055,0.816-9.073c0.35-3.2,0.599-6.37,0.019-9.589c-0.517-2.876-1.246-5.785-0.175-8.721
	c0.253-0.693,0.47-1.449,0.475-2.177c0.027-4.633,0.077-9.269-0.051-13.898c-0.11-3.96-0.23-7.884,0.445-11.833
	c0.417-2.43,0.226-4.961,0.352-7.444c0.03-0.59,0.239-1.171,0.366-1.757c0.266-0.014,0.532-0.029,0.799-0.043
	c0.146,0.578,0.388,1.152,0.418,1.738c0.109,2.104-0.113,4.258,0.263,6.307c0.957,5.221,0.787,10.441,0.454,15.678
	c-0.275,4.316-0.623,8.685,0.438,12.887c0.755,2.99,0.552,5.787,0.013,8.699c-0.318,1.723-0.643,3.504-0.533,5.23
	c0.278,4.383,0.965,8.742,1.177,13.125c0.212,4.363,0.046,8.745,0.043,13.119c0,0.131-0.022,0.262-0.032,0.395
	c-0.104,1.354-0.251,2.707-0.298,4.064c-0.039,1.133,0.568,1.899,1.711,1.929c1.602,0.042,3.214-0.013,4.809-0.156
	c1.676-0.15,1.841-0.737,1.035-2.257c-0.604-1.139-1.153-2.369-1.393-3.623c-0.207-1.085,0.035-2.261,0.117-3.394
	c0.082-1.138,0.123-2.288,0.337-3.402c0.752-3.923,1.664-7.817,2.335-11.753c0.538-3.153,0.755-6.359,1.223-9.526
	c0.418-2.831,0.369-5.644-0.346-8.39c-0.743-2.854-0.672-5.703-0.158-8.525c1.105-6.087,2.381-12.144,3.558-18.219
	c0.677-3.489,1.404-6.975,1.912-10.49c0.566-3.922-0.079-7.805-0.736-11.679c-0.796-4.69-1.612-9.362-3.619-13.737
	c-0.435-0.943-0.887-2.008-0.868-3.01c0.058-3.342,0.2-6.693,0.562-10.014c0.215-1.975,0.901-3.897,1.376-5.844
	c0.175,0.011,0.351,0.021,0.525,0.032c1.113,3.312,2.272,6.611,3.316,9.945c0.444,1.42,0.61,2.923,0.965,4.373
	c1.097,4.475,3.096,8.576,5.204,12.642c1.408,2.717,2.828,5.383,3.271,8.558c0.456,3.27,1.556,6.453,2.42,9.662
	c0.107,0.395,0.505,0.711,0.768,1.063c0.107-0.063,0.215-0.125,0.322-0.188c0.051-0.474,0.102-0.947,0.169-1.581
	c0.463,1.237,0.858,2.297,1.255,3.356c0.207-0.027,0.414-0.053,0.622-0.08c0.097-0.796,0.192-1.592,0.273-2.262
	c0.403,0.99,0.841,2.064,1.278,3.137c0.222-0.041,0.443-0.084,0.665-0.125c0.067-0.811,0.134-1.621,0.194-2.35
	c0.294,0.119,0.667,0.27,1.041,0.42c0.141-0.436,0.314-0.865,0.411-1.311c0.054-0.248-0.002-0.528-0.042-0.789
	c-0.428-2.754-0.861-5.506-1.314-8.396C140.509,96.032,141.292,98.737,143.677,97.667z"/>
</svg>
