<?xml version="1.0" encoding="iso-8859-1"?>
<!-- Generator: Adobe Illustrator 16.0.0, SVG Export Plug-In . SVG Version: 6.00 Build 0)  -->
<!DOCTYPE svg PUBLIC "-//W3C//DTD SVG 1.1//EN" "http://www.w3.org/Graphics/SVG/1.1/DTD/svg11.dtd">
<svg version="1.1" id="&#x56FE;&#x5C42;_1" xmlns="http://www.w3.org/2000/svg" xmlns:xlink="http://www.w3.org/1999/xlink" x="0px"
	 y="0px" width="198px" height="198px" viewBox="0 0 198 198" style="enable-background:new 0 0 198 198;" xml:space="preserve">
<g>
	<path fill="#fff" d="M47.43,122.841c-0.287-2.058-0.563-6.018-0.563-8.093c0-2.388,0.354-7.383,0.563-9.761
		c0.093-1.049,0.541-3.129,0.742-4.172c0.164-0.8,0.488-2.402,0.708-3.182c0.529-1.876,1.871-5.532,2.561-7.356
		c0.898-2.366,3.075-6.958,3.805-9.377c0.208-0.693,0.484-2.136,0.574-2.854c0.194-1.586,0.149-4.81,0.294-6.401
		c0.16-1.927,0.913-5.735,1.189-7.644c0.228-1.529,0.566-4.599,0.827-6.117c0.302-1.715,1.133-5.104,1.454-6.82
		c0.231-1.243,0.582-3.757,0.828-4.998c0.261-1.364,0.823-4.077,1.2-5.415c0.134-0.501,0.276-1.625,0.66-1.979
		c0.198-0.183,0.764-0.209,1.032-0.25c0.73-0.114,2.232-0.281,2.971-0.208c0.734,0.076,2.15,0.544,2.851,0.785
		c2.02,0.713,5.866,4.181,7.856,3.393c0.224-0.093,0.291-0.65,0.373-0.874c0.298-0.926,0.637-2.856,0.902-3.799
		c0.283-1.002,1.088-2.942,1.29-3.965c0.179-0.949,0.317-2.885,0.246-3.839c-0.045-0.52-0.291-1.541-0.455-2.031
		c-0.525-1.5-1.894-4.397-2.728-5.743c-0.108-0.168-0.41-0.442-0.5-0.615c-0.06-0.119-0.194-0.371-0.164-0.498
		c0.239-1.276,2.337-3.162,3.347-3.971c0.701-0.557,2.311-1.426,3.183-1.649c0.842-0.222,2.736-0.574,3.47-0.128
		c0.205,0.128,0.294,0.66,0.414,0.872c1.032,1.897,3.533,5.443,4.543,7.353c0.16,0.306,0.242,1.18,0.581,1.28
		c0.287,0.091,0.88-0.356,1.032-0.621c0.269-0.481-0.037-1.671,0-2.225c0.049-0.752,0.28-2.24,0.41-2.981
		c0.101-0.559,0.22-1.729,0.5-2.23c0.294-0.529,1.178-1.461,1.729-1.69c0.526-0.216,1.722-0.216,2.236,0
		c0.753,0.304,1.96,1.541,2.314,2.27c0.234,0.488-0.146,1.778,0.242,2.15c0.149,0.132,0.648,0.175,0.79,0.039
		c0.291-0.281-0.086-1.217,0-1.608c0.074-0.317,0.275-0.969,0.537-1.161c0.61-0.457,2.28-0.639,3.022-0.453
		c0.894,0.226,2.553,1.401,2.97,2.227c0.663,1.325-0.693,4.608,0,5.913c0.071,0.131,0.354,0.272,0.492,0.33
		c0.634,0.287,2.005,0.55,2.69,0.703c0.648,0.144,1.968,0.316,2.602,0.499c0.648,0.179,1.935,0.617,2.52,0.947
		c0.693,0.392,1.886,1.457,2.526,1.945c0.939,0.721,2.889,2.072,3.757,2.889c0.671,0.641,1.841,2.098,2.438,2.813
		c0.671,0.803,2.068,2.369,2.604,3.261c0.406,0.674,0.888,2.195,1.241,2.894c0.142,0.289,0.392,0.93,0.664,1.114
		c0.306,0.226,1.159,0.144,1.527,0.293c0.806,0.328,2.314,1.31,2.93,1.943c0.484,0.494,1.155,1.74,1.483,2.354
		c0.257,0.466,0.678,1.446,0.868,1.943c0.242,0.617,0.622,1.884,0.786,2.518c0.156,0.587,0.481,1.752,0.537,2.357
		c0.097,0.915,0.045,2.766-0.082,3.677c-0.142,1.024-0.716,3.021-1.028,4.006c-0.209,0.632-0.574,1.931-0.958,2.48
		c-0.921,1.354-4.171,2.924-4.826,4.422c-0.463,1.04,0.395,3.479,0,4.543c-0.082,0.203-0.5,0.462-0.582,0.663
		c-0.909,2.126-0.648,7.033,0,9.258c0.037,0.125,0.217,0.339,0.295,0.453c0.41,0.589,1.323,1.703,1.771,2.266
		c0.932,1.204,2.884,3.535,3.727,4.8c0.716,1.096,1.972,3.41,2.549,4.586c0.581,1.161,1.629,3.533,2.076,4.75
		c0.123,0.343,0.316,1.057,0.406,1.405c0.078,0.291,0.164,0.878,0.246,1.159c0.29,0.918,1.2,2.633,1.494,3.557
		c0.652,2.027,1.912,6.098,2.643,8.093c0.238,0.664,0.864,1.937,1.073,2.609c0.171,0.513,0.365,1.576,0.503,2.105
		c0.093,0.392,0.275,1.186,0.41,1.567c0.205,0.624,0.801,1.81,0.987,2.44c0.156,0.515,0.291,1.584,0.414,2.106
		c0.115,0.49,0.398,1.459,0.536,1.939c0.138,0.49,0.474,1.45,0.585,1.941c0.157,0.768,0.283,2.33,0.406,3.104
		c0.164,1.057,0.689,3.144,0.787,4.21c0.119,1.297,0.782,8.45,0.782,9.751c0,3.969-0.433,7.372-0.782,11.324
		c-0.283,3.134-1.294,9.392-2.232,12.396c-0.936,2.992-2.979,9.201-5.203,11.408c-1.01,0.991-3.798,1.93-5.161,2.272
		c-1.916,0.481-5.889,0.634-7.853,0.615c-3.56-0.026-7.569-0.417-11.106-0.809c-1.744-0.193-8.202-1.055-9.921-1.431
		c-1.8-0.403-5.422-1.625-7.151-2.263c-2.944-1.077-8.766-3.376-11.576-4.752c-1.789-0.872-5.195-2.944-6.902-3.965
		c-1.409-0.846-4.215-2.557-5.575-3.474c-2.05-1.379-6.071-4.256-7.976-5.821c-1.29-1.065-3.749-3.339-4.912-4.547
		c-1.356-1.401-3.85-4.405-5.094-5.912c-0.854-1.033-2.568-3.088-3.302-4.212c-1.148-1.771-3.071-5.559-3.969-7.478
		c-0.473-1.018-1.289-3.121-1.692-4.174c-0.596-1.618-1.043-2.238-1.521-3.895C48.686,128.526,47.702,124.764,47.43,122.841z"/>
	<path fill="#fff" d="M130.207,184h-0.306c-3.607-0.03-7.677-0.425-11.195-0.816c-1.67-0.183-8.214-1.047-10.003-1.442
		c-1.938-0.429-5.739-1.736-7.268-2.303c-3.025-1.104-8.817-3.392-11.665-4.785c-1.625-0.798-4.472-2.501-6.351-3.638l-0.611-0.365
		c-1.327-0.786-4.204-2.542-5.627-3.492c-2.046-1.383-6.09-4.274-8.035-5.877c-1.312-1.081-3.786-3.369-4.994-4.614
		c-1.42-1.472-4.059-4.656-5.128-5.957l-0.347-0.425c-0.928-1.131-2.344-2.846-3.011-3.872c-1.181-1.806-3.104-5.589-4.029-7.582
		c-0.48-1.029-1.293-3.1-1.722-4.241c-0.235-0.623-0.439-1.091-0.633-1.524c-0.313-0.706-0.604-1.37-0.91-2.436
		c-0.496-1.756-1.528-5.622-1.811-7.672c-0.298-2.124-0.574-6.112-0.574-8.21c0-2.548,0.388-7.729,0.567-9.839
		c0.082-0.945,0.414-2.561,0.656-3.742l0.104-0.525c0.149-0.718,0.484-2.409,0.723-3.246c0.589-2.097,2.132-6.215,2.579-7.424
		c0.358-0.944,0.909-2.223,1.498-3.568c0.869-2.029,1.856-4.325,2.289-5.756c0.194-0.65,0.462-2.031,0.544-2.706
		c0.104-0.839,0.138-2.197,0.175-3.507c0.026-1.094,0.048-2.128,0.115-2.866c0.112-1.271,0.462-3.3,0.771-5.095
		c0.168-0.993,0.332-1.919,0.433-2.603c0.085-0.589,0.19-1.43,0.302-2.31c0.183-1.418,0.365-2.888,0.529-3.827
		c0.164-0.958,0.488-2.398,0.797-3.796c0.253-1.149,0.5-2.264,0.648-3.037c0.112-0.593,0.253-1.481,0.388-2.376
		c0.16-0.987,0.317-1.975,0.447-2.625c0.261-1.399,0.835-4.127,1.204-5.48c0.038-0.112,0.067-0.251,0.097-0.41
		c0.179-0.867,0.354-1.56,0.824-1.988c0.335-0.308,0.797-0.382,1.334-0.447l0.153-0.021c0.693-0.101,2.344-0.291,3.201-0.209
		c0.88,0.088,2.423,0.608,3.049,0.83c0.783,0.276,1.737,0.864,2.743,1.503c1.439,0.9,3.265,2.041,4.26,1.949
		c0.011-0.046,0.015-0.085,0.026-0.115c0.026-0.106,0.048-0.198,0.074-0.269c0.157-0.484,0.347-1.343,0.507-2.105
		c0.142-0.632,0.272-1.237,0.38-1.661c0.127-0.41,0.328-0.984,0.544-1.585c0.298-0.828,0.619-1.757,0.727-2.311
		c0.164-0.841,0.313-2.713,0.231-3.608c-0.026-0.419-0.25-1.368-0.406-1.802c-0.511-1.483-1.833-4.288-2.639-5.568
		c-0.034-0.047-0.089-0.101-0.142-0.169c-0.142-0.153-0.283-0.312-0.38-0.492c-0.239-0.441-0.313-0.773-0.253-1.079
		c0.313-1.66,2.661-3.693,3.66-4.489c0.753-0.602,2.482-1.55,3.503-1.815c0.679-0.179,1.711-0.371,2.572-0.371
		c0.678,0,1.2,0.112,1.573,0.343c0.417,0.25,0.566,0.706,0.678,1.04c0.015,0.067,0.037,0.127,0.052,0.173
		c0.484,0.872,1.334,2.195,2.162,3.464c0.905,1.41,1.845,2.868,2.393,3.885c0.015,0.044,0.037,0.087,0.06,0.134
		c-0.015-0.149-0.03-0.307-0.048-0.427c-0.034-0.333-0.071-0.654-0.045-0.926c0.048-0.803,0.287-2.305,0.414-3.073
		c0.03-0.12,0.052-0.274,0.075-0.442c0.138-0.872,0.253-1.575,0.518-2.057c0.361-0.65,1.364-1.748,2.173-2.082
		C95.305,14.03,95.942,14,96.278,14s0.965,0.03,1.442,0.222c0.857,0.349,2.016,1.487,2.576,2.355c0.119-0.21,0.268-0.414,0.454-0.55
		c0.73-0.552,2.113-0.706,2.803-0.706c0.373,0,0.686,0.037,0.946,0.104c1.111,0.276,3.004,1.597,3.545,2.689
		c0.451,0.9,0.268,2.136,0.078,3.444c-0.112,0.79-0.272,1.845-0.135,2.326c0.038,0.017,0.075,0.035,0.135,0.063
		c0.439,0.198,1.468,0.419,2.095,0.55l0.425,0.095c0.257,0.06,0.622,0.119,1.014,0.186c0.596,0.099,1.215,0.205,1.628,0.321
		c0.705,0.197,2.047,0.663,2.71,1.03c0.559,0.308,1.297,0.919,1.953,1.459c0.261,0.212,0.491,0.41,0.678,0.554
		c0.283,0.218,0.648,0.488,1.066,0.786c0.998,0.729,2.124,1.556,2.765,2.162c0.597,0.568,1.491,1.657,2.15,2.449l0.354,0.436
		c0.142,0.166,0.313,0.375,0.503,0.598c0.768,0.895,1.726,2.009,2.181,2.78c0.268,0.447,0.529,1.125,0.79,1.785
		c0.167,0.439,0.343,0.893,0.48,1.161c0.026,0.069,0.074,0.151,0.115,0.242c0.06,0.125,0.187,0.399,0.276,0.529
		c0.111,0.024,0.302,0.041,0.425,0.054c0.309,0.022,0.637,0.05,0.92,0.162c0.954,0.391,2.553,1.45,3.231,2.143
		c0.507,0.52,1.088,1.532,1.633,2.555c0.268,0.5,0.715,1.509,0.92,2.046c0.242,0.646,0.63,1.951,0.813,2.598
		c0.235,0.928,0.496,1.897,0.556,2.499c0.101,0.952,0.052,2.879-0.086,3.888c-0.146,1.053-0.712,3.062-1.069,4.155l-0.075,0.271
		c-0.306,0.976-0.614,1.893-0.983,2.432c-0.499,0.732-1.424,1.416-2.415,2.139c-0.962,0.718-2.072,1.532-2.341,2.146
		c-0.134,0.312-0.022,1.212,0.053,1.865c0.127,0.984,0.238,1.912-0.03,2.632c-0.111,0.298-0.343,0.509-0.521,0.675
		c-0.041,0.033-0.078,0.066-0.097,0.099c-0.787,1.947-0.537,6.561,0.056,8.588c0.011-0.019,0.056,0.053,0.093,0.103l0.075,0.097
		c0.268,0.385,0.801,1.05,1.229,1.582c0.197,0.248,0.38,0.478,0.521,0.656c0.262,0.343,0.627,0.786,1.014,1.271
		c0.947,1.178,2.125,2.65,2.743,3.578c0.761,1.157,2.035,3.5,2.616,4.679c0.597,1.216,1.651,3.599,2.109,4.842
		c0.142,0.404,0.358,1.18,0.44,1.488c0.025,0.139,0.06,0.332,0.107,0.543c0.034,0.214,0.086,0.436,0.116,0.573
		c0.134,0.408,0.432,1.066,0.723,1.692c0.306,0.697,0.607,1.348,0.771,1.853l0.384,1.219c0.693,2.196,1.647,5.208,2.24,6.846
		c0.107,0.281,0.279,0.673,0.458,1.075c0.246,0.564,0.496,1.145,0.641,1.562c0.104,0.363,0.231,0.917,0.343,1.448
		c0.067,0.27,0.112,0.527,0.164,0.716l0.045,0.225c0.112,0.396,0.238,0.975,0.351,1.278c0.086,0.272,0.257,0.648,0.433,1.04
		c0.22,0.511,0.446,1.032,0.559,1.426c0.112,0.353,0.201,0.857,0.283,1.351c0.049,0.308,0.101,0.603,0.149,0.808
		c0.097,0.4,0.306,1.136,0.454,1.638l0.075,0.265c0.044,0.16,0.115,0.38,0.193,0.613c0.149,0.48,0.316,1.024,0.398,1.386
		c0.104,0.496,0.19,1.237,0.272,1.955c0.056,0.452,0.101,0.885,0.149,1.188c0.06,0.402,0.183,0.96,0.302,1.553
		c0.208,0.997,0.421,2.023,0.491,2.721c0.284,3.166,0.775,8.657,0.775,9.827c0,3.181-0.265,6-0.548,8.983
		c-0.078,0.785-0.16,1.592-0.228,2.419c-0.271,3.037-1.289,9.444-2.276,12.578c-1.945,6.239-3.72,10.089-5.427,11.766
		c-1.468,1.453-5.516,2.489-5.561,2.501C135.939,183.866,132.004,184,130.207,184z M62.826,39.367c-0.093,0.205-0.201,0.734-0.253,1
		c-0.048,0.202-0.085,0.384-0.126,0.518c-0.358,1.307-0.91,3.973-1.178,5.345c-0.127,0.635-0.28,1.604-0.429,2.566
		c-0.138,0.918-0.283,1.824-0.399,2.436c-0.149,0.78-0.402,1.917-0.663,3.088c-0.306,1.373-0.623,2.795-0.783,3.713
		c-0.157,0.906-0.347,2.417-0.514,3.748c-0.119,0.896-0.216,1.74-0.31,2.342c-0.101,0.697-0.261,1.64-0.436,2.65
		c-0.306,1.759-0.648,3.751-0.752,4.949c-0.067,0.68-0.082,1.691-0.112,2.752c-0.03,1.356-0.063,2.754-0.183,3.679
		c-0.085,0.768-0.376,2.245-0.607,3.004c-0.462,1.521-1.42,3.768-2.363,5.933c-0.57,1.336-1.118,2.594-1.461,3.5
		c-0.924,2.461-2.08,5.67-2.538,7.284c-0.212,0.77-0.548,2.407-0.689,3.111l-0.104,0.533c-0.216,1.075-0.552,2.702-0.626,3.55
		c-0.224,2.573-0.559,7.432-0.559,9.681c0,1.997,0.283,5.944,0.559,7.972c0.253,1.808,1.185,5.438,1.759,7.433
		c0.272,0.945,0.533,1.526,0.828,2.205c0.205,0.464,0.425,0.961,0.674,1.623c0.402,1.084,1.219,3.138,1.67,4.108
		c0.935,2.023,2.821,5.71,3.902,7.372c0.619,0.942,2.046,2.676,2.899,3.708l0.343,0.425c1.062,1.289,3.667,4.432,5.042,5.858
		c1.151,1.186,3.593,3.443,4.849,4.479c1.901,1.565,5.877,4.409,7.901,5.77c1.386,0.939,4.23,2.668,5.542,3.451l0.615,0.365
		c1.744,1.051,4.659,2.803,6.224,3.563c2.665,1.313,8.382,3.582,11.486,4.719c1.908,0.7,5.359,1.855,7.044,2.232
		c1.617,0.357,7.949,1.203,9.831,1.416c3.466,0.384,7.48,0.771,11.01,0.805h0.29c2.005,0,5.613-0.16,7.342-0.593
		c1.454-0.365,3.977-1.271,4.756-2.05c1.479-1.445,3.156-5.165,4.986-11.046c0.954-3.022,1.935-9.25,2.195-12.209
		c0.078-0.831,0.152-1.637,0.228-2.427c0.283-2.94,0.551-5.723,0.551-8.819c0-0.792-0.29-4.409-0.778-9.667
		c-0.049-0.599-0.265-1.623-0.451-2.52c-0.134-0.626-0.261-1.213-0.328-1.638c-0.045-0.326-0.097-0.781-0.156-1.266
		c-0.074-0.646-0.156-1.383-0.238-1.789c-0.06-0.281-0.224-0.799-0.365-1.217c-0.078-0.251-0.157-0.492-0.201-0.667l-0.075-0.259
		c-0.156-0.531-0.38-1.303-0.477-1.728c-0.053-0.228-0.112-0.561-0.172-0.905c-0.074-0.424-0.156-0.896-0.224-1.152
		c-0.085-0.285-0.306-0.78-0.499-1.224c-0.194-0.44-0.388-0.876-0.492-1.182c-0.119-0.359-0.261-0.975-0.376-1.418l-0.053-0.222
		c-0.048-0.199-0.107-0.474-0.167-0.766c-0.098-0.47-0.221-0.999-0.313-1.282c-0.101-0.334-0.351-0.898-0.574-1.395
		c-0.187-0.445-0.372-0.87-0.484-1.179c-0.611-1.674-1.572-4.705-2.27-6.919l-0.392-1.212c-0.123-0.408-0.421-1.045-0.696-1.656
		c-0.324-0.714-0.63-1.39-0.787-1.906c-0.06-0.188-0.119-0.482-0.179-0.761c-0.029-0.167-0.052-0.327-0.086-0.439
		c-0.093-0.365-0.279-1.03-0.384-1.323c-0.428-1.174-1.457-3.509-2.027-4.66c-0.581-1.166-1.811-3.441-2.512-4.492
		c-0.574-0.863-1.714-2.294-2.653-3.444c-0.388-0.491-0.753-0.944-1.021-1.295c-0.134-0.175-0.316-0.393-0.507-0.637
		c-0.462-0.576-0.995-1.241-1.304-1.67c-0.198-0.281-0.336-0.479-0.41-0.71c-0.675-2.32-0.999-7.422,0.037-9.847
		c0.111-0.275,0.32-0.458,0.492-0.622c0.037-0.03,0.066-0.058,0.097-0.084c0.082-0.359-0.008-1.112-0.082-1.72
		c-0.134-1.046-0.253-2.037,0.074-2.794c0.463-1.035,1.707-1.954,2.907-2.841c0.827-0.603,1.674-1.232,2.005-1.719
		c0.254-0.367,0.578-1.41,0.753-1.966l0.09-0.289c0.32-0.993,0.864-2.916,0.998-3.858c0.12-0.874,0.164-2.654,0.082-3.468
		c-0.052-0.507-0.357-1.622-0.495-2.152c-0.197-0.695-0.56-1.923-0.783-2.501c-0.175-0.475-0.592-1.42-0.815-1.841
		c-0.254-0.475-0.939-1.742-1.338-2.156c-0.511-0.52-1.916-1.45-2.643-1.74c-0.053-0.022-0.265-0.034-0.402-0.047
		c-0.455-0.037-0.925-0.078-1.297-0.341c-0.377-0.261-0.611-0.719-0.85-1.249l-0.098-0.188c-0.167-0.345-0.354-0.814-0.544-1.315
		c-0.224-0.566-0.477-1.2-0.663-1.522c-0.377-0.643-1.319-1.742-2.005-2.543c-0.194-0.226-0.373-0.436-0.519-0.609l-0.361-0.447
		c-0.593-0.714-1.483-1.798-1.998-2.288c-0.559-0.527-1.699-1.358-2.601-2.024c-0.422-0.307-0.809-0.587-1.096-0.813
		c-0.201-0.151-0.455-0.354-0.727-0.59c-0.57-0.462-1.271-1.049-1.688-1.278c-0.488-0.267-1.685-0.691-2.329-0.874
		c-0.324-0.089-0.929-0.192-1.454-0.278c-0.421-0.073-0.819-0.142-1.106-0.203l-0.418-0.091c-0.768-0.169-1.826-0.4-2.434-0.669
		c-0.488-0.218-0.756-0.434-0.905-0.714c-0.492-0.915-0.306-2.182-0.115-3.52c0.145-0.891,0.306-2.005,0.101-2.41
		c-0.28-0.55-1.692-1.595-2.408-1.778c-0.063-0.013-0.208-0.042-0.521-0.042c-0.801,0-1.558,0.201-1.759,0.346
		c-0.015,0.039-0.142,0.376-0.201,0.645c0,0.058,0.029,0.194,0.048,0.337c0.094,0.52,0.213,1.237-0.302,1.725
		c-0.228,0.214-0.552,0.326-0.913,0.326c-0.22,0-0.727-0.037-1.077-0.365c-0.507-0.48-0.47-1.215-0.454-1.858
		c0.015-0.195,0.029-0.494,0-0.592c-0.261-0.541-1.323-1.589-1.837-1.798c-0.09-0.034-0.373-0.095-0.779-0.095
		c-0.41,0-0.693,0.061-0.79,0.095c-0.313,0.125-1.066,0.885-1.297,1.306c-0.142,0.246-0.257,1.043-0.32,1.469
		c-0.03,0.192-0.06,0.361-0.082,0.494c-0.134,0.738-0.351,2.193-0.403,2.883c-0.011,0.115,0.022,0.376,0.045,0.611
		c0.082,0.707,0.157,1.428-0.156,1.985c-0.25,0.453-1.029,1.079-1.711,1.079h-0.13l-0.216-0.048c-0.678-0.216-0.875-0.92-1.01-1.437
		c-0.03-0.108-0.048-0.209-0.086-0.281c-0.499-0.943-1.416-2.367-2.303-3.742c-0.879-1.36-1.714-2.646-2.229-3.591
		c-0.056-0.11-0.119-0.27-0.175-0.447c-0.019-0.047-0.033-0.091-0.044-0.138c-0.108-0.024-0.272-0.048-0.548-0.048
		c-0.693,0-1.58,0.171-2.125,0.309c-0.768,0.205-2.254,1.016-2.858,1.495c-1.517,1.211-2.732,2.559-2.993,3.294
		c0.015,0.026,0.03,0.049,0.037,0.065c0.03,0.041,0.086,0.108,0.142,0.177c0.126,0.142,0.257,0.293,0.328,0.399
		c0.857,1.383,2.251,4.317,2.806,5.924c0.175,0.503,0.447,1.601,0.503,2.24c0.082,1.066-0.082,3.099-0.265,4.076
		c-0.13,0.68-0.47,1.636-0.809,2.562c-0.194,0.563-0.38,1.09-0.492,1.478c-0.108,0.395-0.224,0.956-0.35,1.549
		c-0.187,0.844-0.38,1.718-0.566,2.292c-0.015,0.035-0.03,0.082-0.041,0.136c-0.104,0.414-0.253,1.031-0.831,1.267
		c-0.306,0.123-0.634,0.181-0.984,0.181c-1.543,0-3.354-1.131-5.091-2.215c-0.924-0.582-1.792-1.131-2.4-1.338
		c-0.872-0.31-2.087-0.684-2.653-0.742c-0.671-0.069-2.087,0.097-2.75,0.201l-0.22,0.028C63.117,39.326,62.945,39.35,62.826,39.367z
		"/>
</g>
</svg>
