<?xml version="1.0" encoding="UTF-8"?>
<svg width="189px" height="189px" viewBox="0 0 189 189" version="1.1" xmlns="http://www.w3.org/2000/svg" xmlns:xlink="http://www.w3.org/1999/xlink">
    <!-- Generator: Sketch 59 (86127) - https://sketch.com -->
    <title>编组 45</title>
    <desc>Created with Sketch.</desc>
    <defs>
        <polygon id="path-1" points="0 0.269663763 47.6825668 0.269663763 47.6825668 86.8148652 0 86.8148652"></polygon>
        <polygon id="path-3" points="0.0936263838 0.664021427 39.229843 0.664021427 39.229843 48.6075949 0.0936263838 48.6075949"></polygon>
    </defs>
    <g id="页面1" stroke="none" stroke-width="1" fill="none" fill-rule="evenodd">
        <g id="编组-45">
            <rect id="矩形" fill="#9485CD" x="0" y="0" width="189" height="189"></rect>
            <g id="编组" transform="translate(18.000000, 32.000000)">
                <path d="M105.1281,62.3350603 C104.926341,62.3865843 104.701189,62.4867159 104.44972,62.6373995 C103.897075,62.8862704 103.347353,62.9630704 102.796657,62.8629387 C101.994492,62.7608628 101.718657,62.3603362 101.969151,61.6623311 C102.270328,60.7115666 102.897049,60.1360527 103.848341,59.9367615 C103.697265,59.8881539 103.596872,59.8385742 103.545214,59.7880223 C103.397062,59.7394147 103.273277,59.6888628 103.172885,59.639283 C102.771315,60.137997 102.119252,60.3129843 101.216695,60.1632729 C100.41453,60.061197 100.038303,59.6859463 100.089961,59.037521 C99.7400494,59.1891767 99.3141127,59.1629286 98.8131253,58.9616932 C98.3608722,58.8119818 97.9602772,58.5368628 97.6123152,58.1363362 C97.160062,57.5870704 96.8588848,56.9629489 96.7078089,56.2620273 C96.2068215,54.2623109 97.1084038,53.0889235 99.4145051,52.7389489 C99.4145051,52.6903413 99.4398468,52.6407615 99.4915051,52.5902096 C99.5909228,52.3909185 99.7410241,52.3413387 99.9408342,52.4404982 C99.9408342,52.490078 99.9642266,52.490078 100.013935,52.4404982 C100.064619,52.4404982 100.089961,52.4152223 100.089961,52.3646704 C100.140644,52.3160628 100.191328,52.266483 100.239087,52.214959 C99.6893658,51.6141691 99.0392519,51.4634856 98.2867962,51.7638805 C96.9329608,52.3656425 96.0547709,53.3650147 95.6532013,54.7629691 C95.6044671,55.1119716 95.4299987,55.1868273 95.1278468,54.9875362 C93.8237203,54.1388476 93.1726316,52.8896324 93.1726316,51.2398906 C93.2233152,49.5415413 94.1512139,48.5421691 95.9563278,48.240802 C96.8072266,48.240802 97.5850241,48.541197 98.2867962,49.1400425 C98.8881759,49.6912527 99.5139228,50.2414906 100.165986,50.7917286 C100.818049,51.4401539 100.967176,52.1138552 100.615315,52.8128324 C101.819049,54.461602 101.970125,56.2134197 101.067568,58.0653691 C100.917467,58.4649235 100.665999,58.762402 100.316087,58.9616932 C100.665999,59.4127716 101.141644,59.639283 101.742049,59.639283 C101.8941,59.639283 102.018859,59.5887311 102.118277,59.4885995 C102.9721,57.9895413 103.297644,56.4642349 103.095885,54.9117084 C102.897049,54.5627058 102.872682,54.2389792 103.022784,53.9395565 C102.872682,53.3893185 102.696265,52.8147767 102.494505,52.214959 C101.8941,51.8659565 101.693315,51.4897337 101.893125,51.0872628 C101.091935,49.6902805 100.015885,48.5664729 98.6630241,47.7168122 C97.8608595,47.1665742 96.9583025,46.9167311 95.9563278,46.967283 C93.7009101,47.0674147 92.3967835,48.1912223 92.0449228,50.3416223 C91.9455051,51.0911514 92.0215304,51.7901286 92.2720241,52.4404982 C93.1736063,54.9875362 94.5264671,57.2876476 96.328657,59.3369438 C96.4300241,59.4390197 96.5313911,59.5887311 96.6308089,59.7880223 C98.7371,60.6882349 99.6659734,62.3875565 99.4145051,64.8859868" id="Fill-1" fill="#FFFFFF"></path>
                <path d="M106.854752,59.9369559 C106.554549,59.1874268 106.15298,58.6877408 105.651018,58.4378977 C105.602284,58.3377661 105.5516,58.2891585 105.500916,58.2891585 C104.951195,58.0898673 104.324473,58.1141711 103.621727,58.3620699 L103.621727,58.4378977 C103.571043,58.6371889 103.521334,58.83648 103.471625,59.0377154 C103.722119,59.1378471 103.922904,59.2885306 104.07398,59.4887939 C104.725068,59.9875078 104.624676,60.3608142 103.771828,60.6106572 C103.021322,60.7613408 102.621701,61.1618673 102.570043,61.8112648 C102.570043,62.3109509 102.821511,62.4110825 103.322499,62.1097154 C104.023296,61.8112648 104.699727,61.786961 105.350815,62.0368041 L105.350815,62.1097154 C105.602284,61.7111332 106.027246,61.4379585 106.628625,61.2872749 L106.704651,61.2872749 C106.955144,60.9373003 107.004853,60.4871939 106.854752,59.9369559" id="Fill-3" fill="#FFFFFF"></path>
                <path d="M80.4573975,58.8793519 C79.9203468,59.2954329 75.7009418,62.7446278 78.0937899,66.7732253 L77.948562,67.5577519 C77.948562,67.5577519 75.1668152,66.3843646 76.1726886,61.1862684 C76.7077899,58.412719 80.5811823,57.5776405 80.6445367,58.1045468 C80.6815747,58.4185519 80.6289418,58.617843 80.5792329,58.7286684 C80.5519418,58.7879696 80.5100304,58.8385215 80.4573975,58.8793519" id="Fill-5" fill="#FEFEFE"></path>
                <path d="M112.394463,70.2840547 L112.150792,69.3537053 C112.489982,69.2652395 120.511628,67.1955281 124.188134,68.1744851 L123.93959,69.1028901 C120.508704,68.1939281 112.475362,70.2626673 112.394463,70.2840547" id="Fill-7" fill="#FEFEFE"></path>
                <path d="M111.89757,67.480563 L111.89757,66.5191048 C111.967747,66.5191048 119.015684,66.5025782 122.271127,65.4079352 L122.579127,66.3198137 C119.173582,67.4640365 112.193873,67.4795909 111.89757,67.480563" id="Fill-9" fill="#FEFEFE"></path>
                <path d="M39.4226354,88.1872041 C40.2559899,87.6855737 69.4857747,70.9742825 77.763762,76.8383028 C77.7803316,76.8499686 77.7891038,76.8694116 77.7910532,76.890799 C77.8885215,78.6056749 84.4003823,78.2848648 84.4003823,78.2848648 C84.4003823,78.2848648 76.282243,72.5637509 76.8446354,66.1786572 C76.7315722,64.2343534 51.7085215,65.729523 36.547319,77.2543838 C36.5365975,77.2631332 36.5278253,77.2738268 36.5229519,77.2864648 C34.0599266,83.2272851 34.1379013,85.0374319 34.1681165,85.2969965 C34.1700658,85.3203281 34.1846861,85.3368547 34.2051544,85.3485205 L37.9801038,87.3414319 C37.9869266,87.3453205 37.9956987,87.348237 38.0044709,87.3492091 L40.0688506,88.1872041 C40.0844456,88.1891484 39.4089899,88.1959534 39.4226354,88.1872041" id="Fill-11" fill="#FFFFFF"></path>
                <g transform="translate(0.000000, 27.441904)">
                    <mask id="mask-2" fill="white">
                        <use xlink:href="#path-1"></use>
                    </mask>
                    <g id="Clip-14"></g>
                    <path d="M38.8725241,68.75136 C38.7058532,68.8145499 38.5352835,68.8689904 38.3647139,68.9166258 C31.3723342,70.8220435 20.3759544,59.3914815 16.3241949,53.718003 C9.97413165,44.8247575 10.958562,32.8974258 14.0668278,28.0522208 C15.0873215,26.4617803 16.4362835,25.5110157 17.8661443,24.5038663 C20.1410557,22.9007878 22.7054481,21.0838359 24.6665114,16.1054461 C24.6772329,16.0811423 24.6733342,16.047117 24.6567646,16.021841 C22.4773722,12.5182056 19.216081,9.99644354 15.6926,10.710003 C8.42633418,12.1643423 5.92334684,23.228403 6.66313165,32.8760385 C7.68265063,46.1692435 13.5463468,55.9014562 18.6936506,60.5775068 C19.136157,60.9799777 19.3184228,61.7411727 19.0981443,62.2768284 C18.9938532,62.5276435 18.8223089,62.6851322 18.6215241,62.7386005 C18.3944228,62.8008182 18.1322329,62.7317954 17.8963595,62.5169499 C10.783119,56.0550562 5.79468861,44.623522 4.87946076,32.6806359 C4.08899241,22.3612435 6.79081519,10.5534866 14.5278532,8.44586127 C14.7227899,8.39336506 14.9177266,8.34767392 15.1175367,8.30684354 C19.6283722,7.39399291 23.7717519,10.824717 26.3702582,15.3957752 C26.4014481,15.4443828 26.4248405,15.4949347 26.4521316,15.5464587 C27.2328532,16.9453853 27.8751696,18.4424992 28.3332709,19.9571119 C30.2222076,26.2031878 28.976562,31.3983676 25.1597013,33.1919878 C22.0377899,34.6579929 20.3126,39.7909549 20.5406759,42.543117 C20.6050051,43.3013954 20.1361823,43.8467727 19.5474734,43.6173448 C19.1059418,43.4452739 18.7901443,42.8396233 18.7501823,42.2407777 C18.5094354,38.6554815 20.4763468,32.6796638 24.3088025,30.8802106 C27.8722456,29.2061651 27.8741949,24.4212334 26.6889797,20.5005448 C26.4881949,19.8355929 26.2454987,19.1735575 25.9667392,18.52416 C25.9452962,18.4745803 25.8955873,18.466803 25.8760937,18.5086056 C23.7698025,23.2672891 21.1001443,25.1600689 18.9100304,26.7028739 C17.5415747,27.6662765 16.3612329,28.4974663 15.5093595,29.8254258 C13.2734354,33.3125347 11.4878152,43.7884435 17.4977139,52.2043625 C19.3788532,54.837922 23.0709544,59.0901144 27.2845114,62.4051524 C30.4541823,64.8977499 34.905562,67.6013043 38.1083722,66.4036132 C40.3053089,65.5714511 41.6367266,62.9194208 42.0899544,58.5136284 C42.0938532,58.4786309 42.0772835,58.440717 42.0509671,58.4261347 C40.0596886,57.3071878 37.2750177,55.0965144 37.8569038,51.6794005 C38.7458152,46.4618613 37.7760051,44.3056284 34.3158785,43.6960891 C34.0614861,43.6513701 33.7856506,43.6426208 33.498119,43.657203 C33.5809671,43.8351068 33.6686886,44.0071777 33.747638,44.1909144 C35.7194228,48.7357246 36.4017013,54.4714208 34.132638,56.2018511 C33.8568025,56.4118359 33.5624481,56.5586309 33.2524987,56.6422359 C32.0789797,56.9630461 30.6920051,56.3826714 29.3138025,54.9604132 C26.6860557,52.2471372 24.3399924,46.6835119 24.9413722,41.2968182 C24.9803595,40.9487878 25.1372835,40.6950562 25.3497646,40.5677043 C26.2659671,38.2462056 31.3372456,39.9814967 33.4883722,35.7205549 C35.7467139,31.2476841 36.7896253,8.18629671 20.2239038,1.42011949 C3.65818228,-5.34508557 -5.17147595,18.876079 3.21957468,43.964403 C12.033638,70.3243018 27.1139418,84.0841397 37.0284228,86.5135473 C48.1388405,89.237517 50.7685367,72.9568891 43.9311316,59.3039878 C43.9311316,59.3039878 43.9067646,59.2942663 43.8629038,59.2796841 C43.3229291,64.5127777 41.6552456,67.6975473 38.8725241,68.75136" id="Fill-13" fill="#FFFFFF" mask="url(#mask-2)"></path>
                </g>
                <path d="M72.2458835,55.3172901 C68.5216177,55.3172901 64.6180101,54.8837104 60.8791241,53.7404597 C36.6007316,44.2600344 33.1152633,6.28583696 33.0821241,5.90378127 L34.523681,5.78226228 C34.5548709,6.15556861 37.967238,43.24608 61.3537949,52.3804192 C74.215719,56.3079129 88.2004785,51.5229813 90.2365924,50.477918 L90.8974278,51.7611585 C88.4626684,53.0103737 80.8318709,55.3172901 72.2458835,55.3172901" id="Fill-15" fill="#FFFFFF"></path>
                <path d="M140.183471,111.797954 C139.92323,111.578248 133.834382,106.247939 135.861724,92.2683949 C137.246749,82.7179747 135.890965,71.3690734 134.958192,65.4535291 C134.544927,62.8364962 133.521509,60.4294481 131.998078,58.4938937 C131.699825,58.1147544 131.370382,57.6996456 131.005851,57.2466228 C125.802015,50.1771342 93.2670785,50.2597671 90.912243,51.6868861 L90.2211924,50.5523848 C92.7807114,49.0018025 126.1568,48.4175392 132.061433,56.4387646 C132.411344,56.8733165 132.744686,57.2932861 133.044889,57.6743696 C134.707699,59.7878278 135.823711,62.4058329 136.273041,65.2474329 C137.216534,71.2358886 138.588889,82.7345013 137.179496,92.4579646 C135.266192,105.650066 140.987585,110.737337 141.046066,110.787889 L140.183471,111.797954 Z" id="Fill-17" fill="#FEFEFE"></path>
                <path d="M122.021413,93.7467463 C119.539868,89.9466046 108.33978,78.7833843 108.226716,78.6715868 L108.90802,77.9910805 C109.370995,78.4528527 120.293299,89.3380375 122.828451,93.2217843 L122.021413,93.7467463 Z" id="Fill-19" fill="#FEFEFE"></path>
                <path d="M79.6588392,75.460958 C79.6344722,75.4084618 77.1207633,70.2191149 74.9140797,66.3188415 C74.0027506,64.7099301 70.6313203,64.8285327 66.3690291,64.9792162 C61.1963835,65.1590643 54.7508013,65.38752 48.6911937,62.8385377 C43.9522823,60.8465985 40.3703203,56.1433276 38.332257,49.2371605 C36.8059025,44.0672567 36.6713962,39.5564719 36.6674975,39.3669023 L37.6304848,39.3416263 C37.6353582,39.5224466 38.2328392,57.3983757 49.0654722,61.9519352 C54.927219,64.4182846 61.2499911,64.1966339 66.3358899,64.017758 C71.1040418,63.8505478 74.5544215,63.730001 75.7532823,65.8454035 C77.9755608,69.7738694 80.5019405,74.9914086 80.5272823,75.0429327 L79.6588392,75.460958 Z" id="Fill-21" fill="#FEFEFE"></path>
                <path d="M120.805885,66.2217235 C120.805885,66.2217235 121.887784,64.9452881 123.127581,64.3153337 C124.42391,63.6552425 130.159923,63.9478603 131.592708,63.3820678 C133.027442,62.8162754 134.051834,55.3258451 136.509011,53.7597084 C138.967163,52.1935716 145.736341,50.8393641 151.255973,60.2964577 C156.3331,68.9952729 150.452834,80.6241539 149.00348,81.8160122 C147.80267,82.8037185 141.193341,84.829683 137.182518,77.7300577 C132.344189,68.8095919 134.461201,71.3294096 132.276935,69.559121 C130.119961,67.8111919 127.36453,70.3387868 123.024265,69.046797 C122.911201,69.0137438 122.798138,68.9690248 122.692872,68.9175008 C120.001771,67.6138451 120.805885,66.2217235 120.805885,66.2217235" id="Fill-23" fill="#FFFFFF"></path>
                <path d="M74.2961304,52.5812658 C70.327219,52.5812658 65.340738,51.7063291 58.817181,49.3265013 C51.0265354,46.4849013 44.8168266,37.561519 40.3595987,22.8052253 C37.0593203,11.8830987 36.0056873,1.64828354 35.9949658,1.54620759 L36.9540544,1.44996456 C36.9940165,1.85340759 41.2202443,41.8837063 59.1485734,48.4233722 C75.4940165,54.3846076 81.6140544,50.8411139 87.0128266,47.7156456 C87.6249278,47.3617823 88.2243582,47.0137519 88.825738,46.688081 C94.2557,43.7482937 101.829966,44.7826633 109.088434,49.4538532 L108.565029,50.2617114 C101.609687,45.7849519 94.4009278,44.7641924 89.2867633,47.5338532 C88.693181,47.8546633 88.1005734,48.1978329 87.4962696,48.5478076 C84.2544722,50.4240608 80.528257,52.5812658 74.2961304,52.5812658" id="Fill-25" fill="#FFFFFF"></path>
                <path d="M25.4706253,1.49818329 C25.4706253,1.49818329 32.4620304,35.5458592 37.9845873,45.3500111 C38.2331316,45.7923403 38.4797266,46.1850896 38.7214481,46.5224263 C38.7214481,46.5224263 36.9241316,24.5702643 29.7377899,1.49818329" id="Fill-27" fill="#FFFFFF"></path>
                <path d="M105.334635,78.3309448 C105.334635,78.3309448 116.002547,85.7231878 120.326243,96.2515929 C124.648965,106.779998 132.733965,112.60416 134.756433,114.395836 C136.776952,116.187512 134.756433,120.097507 127.343965,115.901699 C119.933446,111.707836 121.16837,103.307471 114.430382,94.9071068 C109.566711,88.8428233 102.190306,78.3309448 102.190306,78.3309448 L105.334635,78.3309448 Z" id="Fill-29" fill="#FFFFFF"></path>
                <path d="M99.2991025,75.5852962 C100.686077,76.3221873 102.322571,76.4427342 103.903508,75.9245772 C105.486394,75.4054481 106.825609,74.3098329 107.672609,72.8389671 C109.101495,70.3570633 108.356837,67.3258937 106.013697,66.0834835 C105.080925,65.5886582 103.983432,65.5069975 102.922001,65.8550278 C101.860571,66.2040304 100.959963,66.9370329 100.393672,67.9266835 C99.9258241,68.7403747 99.7835203,69.6658633 99.9969759,70.5320506 C100.209457,71.398238 100.749432,72.1001316 101.517482,72.5074633 C102.158824,72.8477165 102.912254,72.902157 103.641318,72.6630076 C104.370381,72.4238582 104.986381,71.9193114 105.376254,71.2407494 C105.701799,70.674957 105.801216,70.0304203 105.654039,69.4276861 C105.504913,68.8249519 105.128685,68.3369316 104.592609,68.0530633 L104.272913,67.8829367 L103.723191,68.8346734 L104.043862,69.0048 C104.340166,69.1622886 104.547773,69.4315747 104.629647,69.7640506 C104.710546,70.0965266 104.655963,70.4523342 104.476622,70.7653671 C103.970761,71.6422481 102.890811,71.9931949 102.067204,71.5547544 C101.537951,71.2747747 101.165622,70.7916152 101.019419,70.1966582 C100.872242,69.6017013 100.970685,68.9639696 101.293305,68.403038 C101.713394,67.6758684 102.379103,67.1285468 103.169571,66.8689823 C103.95809,66.6103899 104.7739,66.668719 105.464951,67.0342481 C107.312951,68.0151494 107.898735,70.4046987 106.772976,72.3616405 C105.323622,74.8717367 102.21828,75.8905519 99.8468747,74.6335595 C98.3819253,73.855838 97.3507101,72.5201013 96.9462165,70.8723038 C96.5417228,69.2245063 96.8107354,67.4619949 97.7054949,65.9084962 C98.8390519,63.9389165 100.634419,62.4661063 102.75533,61.7719899 C104.877216,61.0759291 107.070254,61.2363342 108.932875,62.2250127 C111.291609,63.4761722 112.949546,65.6256 113.600634,68.2756861 C114.250748,70.9277165 113.817014,73.7625114 112.378381,76.2589975 C110.56547,79.4126582 107.696001,81.7623494 104.305077,82.873519 C100.933647,83.9808 97.4481785,83.7290127 94.4802671,82.1725975 L99.2503684,75.5571038 C99.2679127,75.564881 99.2815582,75.5765468 99.2991025,75.5852962" id="Fill-31" fill="#FFFFFF"></path>
                <g transform="translate(46.784810, 77.993803)">
                    <mask id="mask-4" fill="white">
                        <use xlink:href="#path-3"></use>
                    </mask>
                    <g id="Clip-34"></g>
                    <path d="M5.54477975,48.6076922 C5.29818481,48.1352263 -0.469992405,36.9856162 0.317551899,31.9595909 C0.902362025,28.2177782 1.2532481,27.1104972 1.83123544,25.2760466 C2.01837468,24.6859504 2.22890633,24.0200263 2.47842532,23.1635605 C2.94042532,21.5721478 2.11876709,19.4256365 1.3244,17.3510643 C0.471551899,15.1248365 -0.334511392,13.0220719 0.351665823,11.4569073 C1.70647595,8.3654643 18.0109823,1.29694785 22.4331215,0.867256709 C27.0170582,0.421038987 38.7327544,0.845869367 39.229843,0.865312405 L39.1928051,1.82579848 C39.072919,1.82093772 27.0462987,1.38249722 22.5266911,1.82385418 C18.0178051,2.26229468 2.34196962,9.31720101 1.23472911,11.8428516 C0.706450633,13.0463757 1.44428608,14.9702643 2.22403291,17.0078947 C3.07590633,19.2312061 3.95702025,21.5303453 3.4034,23.4318744 C3.15193165,24.2970896 2.93945063,24.9688466 2.75133671,25.5647757 C2.18602025,27.3564516 1.84390633,28.4374846 1.26884304,32.107358 C0.530032911,36.8232668 6.3410962,48.0516213 6.39957722,48.1643909 L5.54477975,48.6076922 Z" id="Fill-33" fill="#FFFFFF" mask="url(#mask-4)"></path>
                </g>
                <path d="M82.0974,70.4501954 C84.4697797,73.8187018 85.2865646,77.3233094 83.9229823,78.2789347 C82.5594,79.23456 79.5310582,77.2785904 77.1596532,73.9110562 C74.7872734,70.543522 73.9695139,67.0379423 75.3340709,66.0832891 C76.6976532,65.1266916 79.7259949,67.0826613 82.0974,70.4501954" id="Fill-35" fill="#F9F9FA"></path>
                <path d="M44.9166342,91.9913316 L43.9780139,91.7745418 C45.058938,87.0984911 48.2890392,85.920243 51.7082291,84.672 C53.9197861,83.8651139 56.2073684,83.0300354 58.2775962,81.2179443 C63.8011278,76.3824608 77.7137608,76.5380051 78.3014949,76.543838 L78.2859,77.5062684 C78.1484696,77.4984911 64.1568873,77.3478076 58.9130899,81.9402532 C56.7083557,83.8709468 54.2277861,84.7760203 52.0396215,85.574157 C48.5980139,86.8301772 45.8805962,87.8227443 44.9166342,91.9913316" id="Fill-37" fill="#FEFEFE"></path>
                <path d="M144.497128,96.7353357 C144.172558,94.1173306 145.777862,88.3962167 146.764242,85.2182522 C147.069318,84.238323 147.536191,83.3021408 148.153166,82.4378977 C149.545989,80.4897053 152.801432,75.1953661 152.94471,68.1258775 C153.014887,64.6902927 152.228318,61.6737053 150.669799,59.4017863 C146.628761,53.5095737 141.467811,52.5170066 140.609115,52.9447534 L140.309887,52.3449357 C141.723178,51.6459585 147.141444,53.0721053 151.223419,59.0236192 C152.860887,61.4112243 153.688394,64.5629408 153.614318,68.1394876 C153.467141,75.3956294 150.127875,80.8280142 148.699963,82.8257863 C148.123925,83.6317003 147.687267,84.5037205 147.403634,85.415599 C146.623887,87.9325003 144.842166,94.0658066 145.163811,96.6536749 L144.497128,96.7353357 Z" id="Fill-39" fill="#FEFEFE"></path>
                <path d="M80.1280519,60.9005529 C80.5422924,59.9760365 81.8454443,60.0090896 82.2762544,60.9258289 C83.1563937,62.7981934 85.3279886,64.7570795 90.7901152,63.0217884 C95.6908241,61.3564922 96.3116975,73.5676922 96.2580899,74.1257073 C96.2035076,74.6837225 91.4197608,80.9725732 86.1155329,75.1736871 C80.8113051,69.3728567 84.4381025,68.0351757 80.9331405,65.7836719 C79.0442038,64.5694542 79.3989886,62.526963 80.1280519,60.9005529" id="Fill-41" fill="#FFFFFF"></path>
                <path d="M128.640489,98.3692314 L113.601122,81.1738086 L109.981147,77.7148922 L108.917767,77.528239 C107.342678,78.4430339 95.3472481,85.3219808 89.7340456,85.6962592 C83.5769696,86.0909529 79.7990962,75.8522491 79.6402228,75.4167251 L80.5457038,75.0881377 C80.5817671,75.1863251 84.1296152,84.7464668 89.3812101,84.7464668 C89.4767291,84.7464668 89.5732228,84.7435504 89.6697165,84.7377175 C95.3277544,84.3595504 108.450894,76.6863554 108.582476,76.6085833 L108.735501,76.5191453 L110.436324,76.8185681 L114.29802,80.5098289 L129.367603,97.7373327 L128.640489,98.3692314 Z" id="Fill-43" fill="#FEFEFE"></path>
                <path d="M82.379181,57.9811808 C83.072181,58.3010187 84.3821557,59.0476314 84.5390797,60.1772719 C84.5390797,60.1772719 87.9943329,60.7702846 87.6112823,62.341282 C87.5128392,62.6105681 85.0566367,62.2304567 83.8909152,61.803682 C82.7251937,61.3769073 83.1062949,60.4057276 82.6413709,59.908958 C82.1754722,59.4131605 82.0838519,59.2167858 81.9201051,58.6889073 C81.8440797,58.4458694 81.8450544,58.2397732 81.8684468,58.0871453 C81.8918392,57.9247959 82.145257,57.8732719 82.379181,57.9811808" id="Fill-45" fill="#FEFEFE"></path>
                <path d="M82.379181,57.9811808 C83.072181,58.3010187 84.3821557,59.0476314 84.5390797,60.1772719 C84.5390797,60.1772719 87.9943329,60.7702846 87.6112823,62.341282 C87.5128392,62.6105681 85.0566367,62.2304567 83.8909152,61.803682 C82.7251937,61.3769073 83.1062949,60.4057276 82.6413709,59.908958 C82.1754722,59.4131605 82.0838519,59.2167858 81.9201051,58.6889073 C81.8440797,58.4458694 81.8450544,58.2397732 81.8684468,58.0871453 C81.8918392,57.9247959 82.145257,57.8732719 82.379181,57.9811808 Z" id="Stroke-47" stroke="#FEFEFE" stroke-width="0.213"></path>
                <path d="M59.9262734,83.4385337 C59.9262734,83.4385337 58.2985519,84.5574805 57.9057544,84.6702501 C57.5119823,84.7820476 56.6698557,85.2302096 56.6698557,85.9583514 C56.6698557,86.6864932 56.5577671,87.4146349 57.0070962,87.3028375 C57.4564253,87.1900678 58.3550835,85.7454501 59.2537418,85.3760324 C60.1504506,85.0056425 60.6426658,84.7130248 60.712843,84.4038805 C60.7830203,84.0966805 60.7830203,83.5221387 60.4876911,83.4385337 C60.1933367,83.3539565 59.9262734,83.4385337 59.9262734,83.4385337" id="Fill-49" fill="#FFFFFF"></path>
                <path d="M55.1118241,86.6540233 C55.3272291,86.8688689 55.2053937,87.3384182 54.8398873,87.7029752 C54.474381,88.0675322 54.0036089,88.188079 53.7882038,87.9732334 C53.5727987,87.75936 53.6936595,87.2888385 54.0591658,86.9242815 C54.4246722,86.5597246 54.8954443,86.4382056 55.1118241,86.6540233" id="Fill-51" fill="#FFFFFF"></path>
                <path d="M49.6568127,90.2179322 C50.025243,89.3498005 50.8966101,88.1637752 52.6520152,89.7163018 C52.8459772,89.8893448 53.0038759,90.0993296 53.102319,90.3394511 C53.7592557,91.9221144 54.7631797,96.4640081 54.7505089,96.7060739 C54.7339392,96.9714714 53.5009646,99.8276537 52.4755975,99.5816992 C51.4492557,99.3357448 50.9355975,98.082641 50.6831544,95.5404638 C50.505762,93.7604537 49.9628633,92.2069549 49.6529139,91.4350663 C49.4969646,91.0452334 49.4920911,90.6048486 49.6568127,90.2179322" id="Fill-53" fill="#FFFFFF"></path>
                <path d="M142.991339,52.5798076 L141.29539,52.793681 C140.341175,52.5127291 140.271972,53.0396354 139.325554,52.793681 C133.004732,51.1157468 130.856529,47.8473722 123.950896,48.2595646 C122.135061,48.3490025 120.512213,46.5641316 119.029719,45.7990481 C115.162175,43.9014076 110.932048,42.6735797 106.339339,42.1155646 C102.738858,41.6226835 99.0331114,41.4185316 95.2211241,41.5031089 C91.8906304,41.4894987 88.6166684,41.3300658 85.399238,41.0257823 C73.3424025,39.7960101 63.900643,35.3513316 57.0768835,27.6946633 C56.0573646,26.6991797 55.1002253,25.6307848 54.2074152,24.4885063 C49.0688835,18.6089316 45.5483266,12.0848203 43.6486684,4.91617215 C43.4001241,3.64848608 42.7880228,2.64425316 41.8113899,1.90444557 C40.9741367,1.00812152 41.185643,0.373306329 42.4449342,0 C46.4655038,3.58140759 48.8261873,8.01539241 49.5260101,13.3000101 C49.594238,14.4743696 49.9529215,15.4630481 50.6030354,16.2660456 C55.7201241,24.5244759 62.9980861,31.1059443 72.4369215,36.0094785 C75.2157443,37.4570127 78.3230354,38.4418025 81.7587949,38.9609316 C83.7997823,39.225357 85.8212759,39.3614582 87.8242506,39.3702076 C95.7308835,39.8164253 103.493263,40.3559696 111.110415,40.9868962 C111.962289,41.0899443 112.769327,41.3981165 113.532504,41.9104405 C122.475225,45.9750076 129.734668,48.9216 134.262073,49.1247797 C135.056441,48.9711797 136.908339,50.0687392 137.78458,50.2962228 C140.529289,50.777438 142.231086,51.6961215 143.757441,52.8617316 L142.991339,52.5798076 Z" id="Fill-55" fill="#FFFFFF"></path>
                <path d="M100.042494,84.8691524 C99.7072025,85.0810815 99.3105063,85.0577499 99.1555316,84.8205448 C99.0015316,84.5833397 99.1467595,84.2187828 99.4820506,84.0068537 C99.8173418,83.7958967 100.215013,83.8163119 100.368038,84.0544891 C100.523987,84.2926663 100.378759,84.6572233 100.042494,84.8691524 M96.8621013,87.8983777 C96.3767089,87.9965651 95.9458987,87.8351878 95.9030127,87.5367372 C95.8591519,87.2392587 96.2158861,86.9165043 96.7012785,86.8202613 C97.1866709,86.7211018 97.6155316,86.882479 97.6603671,87.1819018 C97.7042278,87.4803524 97.346519,87.8021347 96.8621013,87.8983777 M94.8415823,86.319603 C94.7743291,86.5956942 94.4058987,86.7473499 94.0199241,86.6549954 C93.6339494,86.5645853 93.3766329,86.2671068 93.4448608,85.9910157 C93.5130886,85.7168689 93.8795696,85.5661853 94.266519,85.6575676 C94.6524937,85.7470056 94.9088354,86.0454562 94.8415823,86.319603 M93.8318101,82.3230866 C94.1515063,82.088798 94.5491772,82.0858815 94.7187722,82.3143372 C94.8883671,82.5408486 94.7665316,82.9141549 94.4458608,83.1474714 C94.1251899,83.3807878 93.7284937,83.3837043 93.5588987,83.1562208 C93.3883291,82.9287372 93.5101646,82.5554309 93.8318101,82.3230866 M89.4233165,84.360717 C89.0090759,84.4171018 88.6357722,84.2226714 88.5919114,83.9251929 C88.5480506,83.6286866 88.8492278,83.3419018 89.264443,83.285517 C89.6806329,83.2291322 90.052962,83.4225904 90.0968228,83.7190967 C90.1416582,84.0175473 89.8395063,84.3043322 89.4233165,84.360717 M86.760481,86.2865499 C86.3589114,86.409041 85.9592911,86.2739119 85.8686456,85.9871271 C85.778,85.7003423 86.0294684,85.3717549 86.431038,85.2492638 C86.8326076,85.1267727 87.2302785,85.2580132 87.3218987,85.5467423 C87.413519,85.8315828 87.1610759,86.1630866 86.760481,86.2865499 M85.547,80.7530613 C85.5986582,80.4555828 86.0343418,80.3087878 86.5158354,80.4205853 C86.9973291,80.5323828 87.3443165,80.8648587 87.2916835,81.1623372 C87.2380759,81.4578714 86.8043418,81.6075828 86.3228481,81.493841 C85.8413544,81.3810714 85.4933924,81.0476233 85.547,80.7530613 M81.7350127,86.2058613 C81.2408481,86.1718359 80.8451266,85.8986613 80.8509747,85.5982663 C80.8538987,85.2959271 81.2603418,85.0810815 81.7535316,85.1151068 C82.2476962,85.1501043 82.642443,85.4223068 82.6385443,85.7236739 C82.6336709,86.025041 82.2291772,86.2418309 81.7350127,86.2058613 M103.514316,84.0768486 C100.594165,81.8389549 97.6749873,78.3304587 97.6749873,78.3304587 L73.8683418,78.9438866 C70.0505063,78.1992182 62.1126835,80.7297296 62.1126835,80.7297296 C62.1126835,80.7297296 60.0239367,88.6070765 64.7725949,86.3050208 C74.9921519,79.9267322 84.7614051,90.3909752 85.9963291,90.2208486 C87.2312532,90.050722 91.4984177,89.9661448 92.9584937,91.919198 C94.4175949,93.8732233 97.001481,94.9766157 97.6749873,93.7876739 C98.3494684,92.5987322 100.707228,89.2866106 102.190696,88.9463575 C103.675139,88.6070765 106.434468,86.3137701 103.514316,84.0768486" id="Fill-57" fill="#FFFFFF"></path>
                <line x1="143.050405" y1="66.5920162" x2="149.87319" y2="66.5920162" id="Stroke-59" stroke="#EEEDEE" stroke-width="0.989" stroke-linecap="round"></line>
                <line x1="140.126354" y1="62.7034086" x2="144.999772" y2="56.8704972" id="Stroke-61" stroke="#EEEDEE" stroke-width="0.989" stroke-linecap="round"></line>
                <line x1="141.101038" y1="73.3970795" x2="148.898506" y2="76.3135352" id="Stroke-63" stroke="#EEEDEE" stroke-width="0.989" stroke-linecap="round"></line>
            </g>
        </g>
    </g>
</svg>