<?xml version="1.0" encoding="utf-8"?>
<!-- Generator: Adobe Illustrator 16.0.0, SVG Export Plug-In . SVG Version: 6.00 Build 0)  -->
<!DOCTYPE svg PUBLIC "-//W3C//DTD SVG 1.1//EN" "http://www.w3.org/Graphics/SVG/1.1/DTD/svg11.dtd">
<svg version="1.1" id="图层_1" xmlns="http://www.w3.org/2000/svg" xmlns:xlink="http://www.w3.org/1999/xlink" x="0px" y="0px"
	 width="198px" height="198px" viewBox="0 0 198 198" enable-background="new 0 0 198 198" xml:space="preserve">
<path fill="#fff" d="M134.896,94.678c0,0-5.815,6.75-13.619,1.16c-7.803-5.589-10.233-16.732-7.104-27.198
	c3.131-10.465,15.524-22.23,28.535-19.16c13.013,3.07,27.075,16.56,35.962,38.179c8.886,21.619,4.133,45.023,3.446,46.693
	s-6.116,16.845-26.393,18.434c-14.485,1.135-25.734-19.929-22.832-28.92c0,0-2.209,2.486-4.35,32.068c0,0,0.037,2.966-2.729,3.467
	c-2.765,0.504-3.488-0.414-3.465-3.188c0.027-2.773,1.036-31.664,2.844-34.932c1.805-3.268-0.672-2.739-0.672-2.739
	s-12.477-0.529-17.087-3.4c0,0-2.202-0.697-0.893-4.425c0,0,1.467-5.986,4.091-8.099c2.161-1.74,4.309-2.27,7.509-2.438
	c0,0,7.78,1.438,11.969,0.12C134.298,98.986,134.417,95.396,134.896,94.678z"/>
<path fill="#fff" d="M67.89,100.302c4.188,1.317,11.968-0.12,11.968-0.12c3.202,0.168,5.348,0.697,7.51,2.438c2.624,2.112,4.09,8.099,4.09,8.099
	c1.31,3.728-0.892,4.425-0.892,4.425c-4.609,2.871-17.086,3.4-17.086,3.4s-2.478-0.528-0.671,2.739s2.816,32.158,2.843,34.932
	c0.024,2.773-0.7,3.691-3.466,3.188c-2.766-0.501-2.729-3.467-2.729-3.467c-2.142-29.582-4.349-32.068-4.349-32.068
	c2.902,8.991-8.348,30.055-22.833,28.92c-20.276-1.589-25.706-16.764-26.393-18.434c-0.686-1.67-5.439-25.074,3.447-46.693
	c8.887-21.619,22.95-35.109,35.961-38.179c13.01-3.07,25.405,8.695,28.536,19.16c3.128,10.465,0.699,21.609-7.104,27.198
	c-7.804,5.589-13.619-1.16-13.619-1.16C63.583,95.396,63.701,98.986,67.89,100.302z"/>
<path fill-rule="evenodd" clip-rule="evenodd" fill="#fff" d="M311.936,88.671c0,0,4.789-13.464,14.964-3.888
	c10.175,9.577,1.796,38.307-7.481,38.307s-14.066-3.591-11.073-8.978c2.992-5.388,10.693-6.793,8.385-10
	C310.141,94.959,311.936,88.671,311.936,88.671z"/>
</svg>
