<?xml version="1.0" encoding="iso-8859-1"?>
<!-- Generator: Adobe Illustrator 16.0.0, SVG Export Plug-In . SVG Version: 6.00 Build 0)  -->
<!DOCTYPE svg PUBLIC "-//W3C//DTD SVG 1.1//EN" "http://www.w3.org/Graphics/SVG/1.1/DTD/svg11.dtd">
<svg version="1.1" id="&#x56FE;&#x5C42;_1" xmlns="http://www.w3.org/2000/svg" xmlns:xlink="http://www.w3.org/1999/xlink" x="0px"
	 y="0px" width="198px" height="198px" viewBox="0 0 198 198" style="enable-background:new 0 0 198 198;" xml:space="preserve">
<path fill="#fff" d="M175.098,91.08c0.256,1.039,0.52,2.338,0.52,3.375c0,4.934-2.342,9.342-6.234,12.199c0.779,2.334,1.039,4.674,0.524,7.267
	c-1.044,6.231-5.71,11.163-11.944,12.202c-1.554,0.257-3.108,0.257-4.411,0.257c-1.818,6.229-7.269,10.642-14.014,10.903
	c-2.853,0.258-5.71-0.52-8.308-2.078c-1.554,1.559-3.112,2.855-4.931,3.635c-0.52,1.815-1.299,3.634-2.338,5.19
	c0.524,1.556,0.524,3.372,0.26,5.19c-0.26,1.559-0.515,2.853-1.294,4.411c1.034,2.598,1.559,5.19,1.294,8.048
	c-0.26,1.299-0.515,2.589-1.03,3.888c1.03,1.827,1.81,3.896,1.81,6.234c0,6.744-5.445,12.199-12.195,12.199
	c-6.749,0-12.194-5.455-12.194-11.939c-4.42-3.117-6.75-8.567-5.975-14.019c0.26-1.559,0.52-2.853,1.299-4.411
	c-1.039-2.593-1.559-5.19-1.299-8.046c0.26-2.595,1.299-4.931,2.857-7.009c-0.52-1.556-0.52-3.372-0.26-5.19
	c0.26-3.112,1.818-6.228,3.892-8.565c-0.264-1.556-0.264-3.112,0-4.929c1.299-7.785,7.524-14.018,15.572-14.794
	c5.19-0.52,10.381,1.039,14.018,4.673c2.333-1.561,5.19-2.598,8.043-2.598h2.078c1.039-3.114,2.857-5.97,5.706-8.048
	c-0.516-1.556-0.771-3.112-0.771-4.671c0-5.19,2.589-9.859,6.745-12.455v-1.039c0-2.08,0.51-4.151,1.294-5.97
	c-3.372-2.854-5.45-7.007-5.45-11.68v-1.816c-3.637-2.857-5.446-7.006-5.446-11.68v-0.26c-2.078-0.52-4.156-1.297-5.715-2.598
	c-4.151,2.078-9.342,1.818-13.238-0.257c-2.848,2.854-6.744,4.413-10.637,4.413c-3.636,0-7.009-1.299-9.866-3.637
	c-2.333,1.559-5.19,2.338-7.783,2.338c-3.892,0-7.528-1.557-10.381-4.151c-1.818,1.037-3.892,1.294-5.974,1.294
	c-3.632,0-7-1.294-9.342-3.89c-2.593,1.037-5.706,1.295-8.559,0.775l-1.043,1.041c-0.52,4.411-3.112,8.043-6.745,10.381
	c0,0.779,0.26,1.559,0.26,2.336c0,4.151-1.563,7.786-4.416,10.643c1.039,2.074,1.813,4.412,1.813,7.005
	c0,2.598-0.774,5.45-2.588,8.048c1.554,2.078,2.853,4.671,3.113,7.269c2.337,0.515,4.411,1.554,5.965,3.112
	c3.892-1.299,8.572-1.039,12.463,0.777c2.853-2.076,6.485-3.375,9.866-3.112c2.849-3.115,7-4.674,11.151-3.895
	c5.715,0.779,10.382,5.19,11.165,10.903c0.52,3.372-0.26,7.004-2.338,9.6c-1.818,2.338-4.151,3.894-7.009,4.671
	c-2.588,5.193-7.784,8.567-13.494,8.567c-2.598,0-4.931-0.52-7.009-1.815c-2.598,2.075-5.715,3.114-9.083,3.114
	c-3.637,0-7.009-1.299-9.862-3.634c-1.559,0.52-3.376,1.038-5.195,1.038c-7.528,0-14.013-5.452-15.048-12.719
	c-6.234-1.818-11.42-8.567-11.42-15.055c0-3.112,1.294-5.45,2.857-7.264c-1.818-2.598-2.857-5.713-2.857-9.606
	c0-4.409,1.294-8.044,3.888-10.639c-1.03-2.078-1.818-4.414-1.818-7.009c0-5.19,2.597-9.864,7.013-12.717
	c0-0.779-0.264-1.559-0.264-2.338c0-4.671,2.078-8.823,5.714-11.678c1.039-7.271,7.269-12.717,14.788-12.717
	c1.039,0,2.078,0,2.862,0.255c2.853-2.851,6.225-4.409,10.122-4.409c4.667,0,9.338,2.335,12.199,5.972
	c1.035-0.262,2.074-0.262,3.113-0.262c2.853,0,5.71,0.777,8.048,2.595c2.333-1.556,5.446-2.595,8.303-2.595
	c3.637,0,7.009,1.299,9.861,3.634c4.412-2.857,10.386-2.857,14.793-0.521c2.857-2.851,6.749-4.414,10.641-4.414
	c3.113,0,6.239,1.039,8.567,2.857c2.338-1.039,4.671-1.557,7.269-1.294c5.451,0.515,10.382,3.89,12.715,9.342
	c0.779,1.818,1.299,3.892,1.299,5.97c7.009,1.294,12.195,7.524,12.195,14.791c0,0.521,0,1.299-0.256,2.075
	c3.113,2.857,4.931,7.531,4.931,12.462c0,2.853-0.523,5.19-1.817,7.267c2.333,2.595,3.896,5.97,3.896,9.604
	C179.505,84.855,177.95,88.485,175.098,91.08L175.098,91.08z"/>
</svg>
