<?xml version="1.0" encoding="iso-8859-1"?>
<!-- Generator: Adobe Illustrator 16.0.0, SVG Export Plug-In . SVG Version: 6.00 Build 0)  -->
<!DOCTYPE svg PUBLIC "-//W3C//DTD SVG 1.1//EN" "http://www.w3.org/Graphics/SVG/1.1/DTD/svg11.dtd">
<svg version="1.1" id="&#x56FE;&#x5C42;_1" xmlns="http://www.w3.org/2000/svg" xmlns:xlink="http://www.w3.org/1999/xlink" x="0px"
	 y="0px" width="198px" height="198px" viewBox="0 0 198 198" style="enable-background:new 0 0 198 198;" xml:space="preserve">
<g>
	<polygon fill="#fff" points="35.237,161.061 41.559,160.287 45.942,158.417 51.03,156.355 55.153,153.9 59.084,149.521 60.57,147.713 
		63.659,145.329 66.371,143.467 69.011,142.693 73.65,141.655 80.938,140.371 86.547,138.827 91.114,136.693 95.689,134.188 
		98.922,131.023 100.723,127.674 101.75,123.935 101.75,122.391 103.62,123.935 105.298,126.585 106.646,130.061 107.551,133.475 
		109.294,137.923 110.585,140.18 112.002,140.693 112.838,140.628 112.838,139.21 112.386,137.019 112.188,135.081 112.126,132.567 
		112.838,129.092 112.838,125.544 111.872,123.356 110.899,121.938 113.352,122.521 118.827,122.706 124.563,121.356 
		127.597,120.065 133.907,117.36 140.424,113.621 146.091,109.823 150.669,104.342 153.634,99.64 156.729,95.127 160.726,89.388 
		163.431,84.426 166.66,79.27 170.132,73.985 174.262,70.38 177.803,68.384 181.867,67.223 185.343,67.223 184.891,65.158 
		183.672,63.031 179.774,60.645 174.002,58.642 168.458,56.84 161.633,55.269 157.956,54.525 151.381,54.2 147.673,54.2 
		140.745,55.196 135.526,56.101 129.85,57.107 123.569,57.655 118.439,58.162 112.229,58.162 107.071,57.33 103.753,56.583 
		97.367,54.2 90.73,51.525 85.704,50.111 80.999,48.081 76.103,46.79 70.85,46.567 64.659,46.756 57.893,47.177 53.543,48.009 
		46.808,49.722 40.747,51.563 33.919,54.169 29.475,56.782 25.287,59.357 22.095,62.477 20.256,65.055 18.835,67.962 17.74,71.958 
		17.356,75.088 17.514,82.885 18.13,87.36 19.123,93.966 20.092,100.931 20.644,108.598 21.253,119.069 22.712,127.866 
		22.773,137.793 23.41,143.881 24.862,150.747 26.156,155.548 28.731,159.54 31.697,160.896 	"/>
	<path fill="#fff" d="M35.272,161.961l-3.794-0.171l-3.355-1.545l-2.835-4.465l-1.288-4.801l-1.472-7.006l-0.651-6.088l-0.068-9.944
		l-1.445-8.817l-0.61-10.475l-0.548-7.657l-0.965-6.91l-0.993-6.592l-0.62-4.595l-0.168-7.855l0.418-3.318l1.15-4.153l1.5-3.03
		l1.945-2.698l3.345-3.243l4.185-2.578l4.599-2.685l6.832-2.616l6.119-1.856l6.773-1.715l4.513-0.866l6.773-0.415l6.208-0.198
		l5.509,0.257l5.023,1.332l4.653,2.007l5.062,1.431l6.636,2.678l6.308,2.353l3.246,0.736l5.041,0.809h6.102l5.075-0.514l6.301-0.541
		l10.813-1.897l7.085-1.014h3.708l6.753,0.346l3.671,0.736l6.855,1.586l5.615,1.825l5.965,2.085l4.096,2.503l1.438,2.582
		l0.685,3.154h-4.465l-3.843,1.096l-3.376,1.896l-3.958,3.466l-3.414,5.184l-3.209,5.141l-2.732,5.003l-7.088,10.241l-3.014,4.773
		l-4.77,5.64l-5.667,3.808l-6.66,3.822l-9.489,4.04l-5.855,1.384l-5.773-0.223l-0.321-0.075l0.911,2.044l-0.021,3.91l-0.688,3.377
		l0.064,2.414l0.179,1.825l0.466,2.324v2.25l-1.863,0.141l-1.904-0.688l-1.513-2.671l-1.774-4.54l-0.883-3.363l-1.309-3.349
		l-1.548-2.459l-0.349-0.28l-1.082,3.849l-1.966,3.564l-3.417,3.305l-4.575,2.514l-4.773,2.205l-5.609,1.544l-7.354,1.305
		l-4.603,1.024l-2.455,0.723l-2.585,1.79l-2.979,2.288l-1.411,1.732l-4.164,4.585l-4.256,2.507l-5.085,2.062l-4.609,1.924
		L35.272,161.961z M31.909,160.013l3.301,0.147l6.112-0.75l4.263-1.818l5.047-2.044l3.945-2.343l3.842-4.273l1.603-1.924
		l3.095-2.387l2.996-2.021l2.647-0.771l4.698-1.045l7.324-1.297l5.455-1.511l4.499-2.092l4.418-2.428l3.04-2.979l1.692-3.144
		l0.965-3.52v-3.329l3.527,2.973l1.75,2.798l1.38,3.574l0.897,3.363l1.698,4.342l1.089,1.91l0.753,0.274v-0.418l-0.445-2.198
		l-0.202-1.928l-0.064-2.685l0.712-3.482v-3.277l-0.862-1.941l-2.227-3.257l4.609,1.09l5.276,0.191l5.537-1.315l9.226-3.944
		l6.472-3.708l5.506-3.698l4.458-5.328l2.936-4.657l3.105-4.544l3.982-5.701l2.681-4.914l3.253-5.212l3.644-5.485l4.277-3.709
		l3.746-2.078l4.301-1.195h2.366l-0.186-0.842l-1.033-1.809l-3.63-2.215l-5.678-1.966l-5.52-1.801l-6.76-1.559l-3.589-0.726
		l-6.506-0.315h-3.589l-6.876,0.993l-10.861,1.897l-6.362,0.558l-5.205,0.518l-6.362-0.011l-5.149-0.839l-3.489-0.777l-6.38-2.39
		l-6.612-2.668l-5.099-1.445l-4.636-2.003l-4.746-1.246l-5.15-0.227l-6.129,0.199l-6.681,0.414l-4.287,0.825l-6.688,1.702
		l-6.027,1.821l-6.698,2.564l-4.383,2.572l-4.085,2.521l-3.064,2.996l-1.747,2.451l-1.342,2.764l-1.062,3.849l-0.376,3l0.164,7.677
		l0.603,4.435l1,6.588l0.969,6.976l0.555,7.722l0.606,10.444l1.459,8.889l0.062,9.931l0.63,5.944l1.445,6.821l1.24,4.619l2.362,3.66
		L31.909,160.013z"/>
</g>
</svg>
