<?xml version="1.0" encoding="iso-8859-1"?>
<!-- Generator: Adobe Illustrator 16.0.0, SVG Export Plug-In . SVG Version: 6.00 Build 0)  -->
<!DOCTYPE svg PUBLIC "-//W3C//DTD SVG 1.1//EN" "http://www.w3.org/Graphics/SVG/1.1/DTD/svg11.dtd">
<svg version="1.1" id="&#x56FE;&#x5C42;_1" xmlns="http://www.w3.org/2000/svg" xmlns:xlink="http://www.w3.org/1999/xlink" x="0px"
	 y="0px" width="198px" height="198px" viewBox="0 0 198 198" style="enable-background:new 0 0 198 198;" xml:space="preserve">
<g>
	<g>
		<path fill="#fff" d="M95.961,24.677c0,0,3.196-2.196,4.758-2.196c1.564,0,4.761,2.196,4.761,2.196v44.395l2.484,3.273l-3.308,8.578
			l-2.916-0.968l-4.742,3.063l-2.979-8.681l1.941-2.551V24.677z"/>
		<path fill="#fff" d="M96.551,84.311l-3.48-10.12l2.049-2.684v-47.27l0.361-0.255c0.572-0.387,3.499-2.336,5.238-2.336
			c1.738,0,4.669,1.949,5.237,2.336l0.365,0.255v44.55l2.599,3.421l-3.762,9.759l-3.303-1.092L96.551,84.311z M94.953,74.489
			l2.491,7.241l4.179-2.701l2.543,0.842l2.846-7.394l-2.37-3.126V25.127c-1.255-0.815-3.107-1.805-3.923-1.805
			c-0.813,0-2.662,0.985-3.924,1.805v46.944L94.953,74.489z"/>
	</g>
	<g>
		<path fill="#fff" d="M105.572,114.635c0-4.51,0.649-13.564,0-18.025c-0.311-2.02-2.3-5.776-2.381-7.814c-0.114-2.786,1.546-8.223,2.381-10.884
			c0.594-1.931,2.598-5.511,3.056-7.481c1.462-6.309,0.373-19.507,1.705-25.844c0.653-3.182,1.908-10.169,4.418-12.243
			c1.599-1.329,6.075-1.805,8.161-1.701c3.196,0.166,9.271,2.931,11.899,4.765c3.753,2.617,9.367,10.043,12.239,13.604
			c3.827,4.729,11.068,14.557,14.287,19.717c2.396,3.839,6.824,11.778,8.5,15.985c1.182,2.953,2.443,9.213,3.396,12.239
			c0.849,2.672,2.997,7.851,3.739,10.544c1.38,4.928,3.186,15.025,4.086,20.064c0.971,5.414,3.24,16.258,3.402,21.758
			c0.151,5.297,1.086,16.813-2.037,21.086c-1.915,2.613-8.681,4.945-11.906,5.105c-4.463,0.213-12.934-3.613-17.008-5.449
			c-3.333-1.498-9.088-6.363-12.575-7.477c-2.927-0.938-9.242-0.355-12.243-1.023c-2.838-0.639-8.703-2.15-10.881-4.078
			c-2.886-2.543-6.127-9.898-7.142-13.605c-0.432-1.564,0.159-4.941-0.336-6.494L105.572,114.635z"/>
		<path fill="#fff" d="M170.155,176.354c-4.713,0-12.978-3.723-16.941-5.506c-1.572-0.705-3.506-2.012-5.559-3.4
			c-2.521-1.709-5.138-3.469-6.972-4.066c-1.491-0.473-4.034-0.527-6.492-0.584c-2.182-0.047-4.237-0.096-5.685-0.42
			c-3.218-0.721-8.946-2.232-11.25-4.268c-3.126-2.75-6.429-10.459-7.396-14.006c-0.243-0.879-0.214-2.098-0.181-3.377
			c0.033-1.189,0.063-2.426-0.151-3.082l-0.022-0.09l-4.775-22.92c0-1.385,0.059-3.195,0.122-5.115
			c0.151-4.348,0.335-9.751-0.118-12.781c-0.115-0.823-0.602-2.078-1.06-3.296c-0.628-1.65-1.281-3.355-1.325-4.614
			c-0.114-2.661,1.236-7.367,2.418-11.165c0.284-0.911,0.83-2.107,1.409-3.373c0.694-1.491,1.403-3.041,1.632-4.049
			c0.73-3.145,0.805-8.216,0.886-13.118c0.077-4.908,0.151-9.544,0.812-12.707l0.163-0.809c0.749-3.673,2.004-9.807,4.543-11.91
			c1.856-1.536,6.566-2.005,8.736-1.894c3.447,0.173,9.711,3.074,12.343,4.912c3.307,2.307,7.932,8.139,11.006,11.996
			c0.518,0.656,0.989,1.247,1.406,1.768c4.02,4.968,11.158,14.697,14.34,19.802c2.436,3.894,6.876,11.873,8.574,16.122
			c0.727,1.815,1.45,4.731,2.155,7.559c0.461,1.819,0.89,3.543,1.27,4.743c0.358,1.141,0.963,2.761,1.613,4.473
			c0.834,2.236,1.697,4.543,2.133,6.094c1.369,4.936,3.13,14.768,4.075,20.041l0.015,0.096c0.191,1.053,0.428,2.311,0.693,3.699
			c1.093,5.775,2.595,13.693,2.725,18.186c0.015,0.645,0.052,1.373,0.081,2.182c0.251,6.141,0.642,15.438-2.281,19.424
			c-2.097,2.869-9.05,5.279-12.538,5.445C170.429,176.348,170.288,176.354,170.155,176.354z M111.146,137.172
			c0.28,0.938,0.243,2.229,0.214,3.602c-0.029,1.104-0.056,2.248,0.114,2.887c1.052,3.832,4.263,10.877,6.891,13.191
			c2.155,1.908,8.589,3.459,10.512,3.887c1.281,0.291,3.345,0.336,5.349,0.379c2.587,0.057,5.252,0.111,6.965,0.67
			c2.07,0.656,4.787,2.494,7.407,4.27c1.993,1.348,3.864,2.617,5.26,3.24c4.012,1.805,12.36,5.592,16.616,5.371
			c3.045-0.145,9.567-2.434,11.265-4.762c2.576-3.518,2.192-12.814,1.964-18.365c-0.037-0.809-0.066-1.551-0.081-2.193
			c-0.13-4.369-1.609-12.209-2.702-17.926c-0.258-1.396-0.502-2.654-0.687-3.713l-0.022-0.102
			c-0.867-4.871-2.69-15.025-4.037-19.883c-0.414-1.482-1.263-3.756-2.09-5.953c-0.656-1.734-1.27-3.376-1.646-4.564
			c-0.392-1.24-0.827-2.997-1.292-4.843c-0.657-2.636-1.402-5.629-2.089-7.338c-1.661-4.163-6.035-12.018-8.434-15.855
			c-3.101-4.976-10.316-14.809-14.222-19.632c-0.421-0.524-0.9-1.126-1.425-1.787c-3-3.783-7.54-9.496-10.645-11.663
			c-2.506-1.746-8.422-4.455-11.46-4.606c-0.174-0.007-0.351-0.015-0.558-0.015c-2.502,0-5.897,0.587-7.034,1.524
			c-2.078,1.72-3.304,7.729-3.965,10.955l-0.169,0.808c-0.62,3.012-0.694,7.784-0.771,12.398c-0.078,4.99-0.159,10.143-0.931,13.468
			c-0.27,1.174-1.022,2.798-1.738,4.37c-0.558,1.214-1.085,2.366-1.336,3.167c-0.672,2.163-2.451,7.895-2.344,10.604
			c0.041,0.985,0.664,2.632,1.218,4.082c0.517,1.362,1.008,2.646,1.155,3.644c0.473,3.188,0.296,8.44,0.133,13.083
			c-0.063,1.869-0.121,3.643-0.125,4.98L111.146,137.172z"/>
	</g>
	<g>
		<path fill="#fff" d="M95.525,114.635c0-4.51-0.657-13.564,0-18.025c0.303-2.02,2.307-5.776,2.381-7.814c0.114-2.786-1.555-8.223-2.381-10.884
			c-0.591-1.931-2.603-5.511-3.053-7.481c-1.465-6.309-0.38-19.507-1.705-25.844c-0.668-3.182-1.916-10.169-4.418-12.243
			c-1.609-1.329-6.083-1.805-8.164-1.701c-3.2,0.166-9.272,2.931-11.896,4.765c-3.754,2.617-9.371,10.043-12.243,13.604
			c-3.832,4.729-11.065,14.557-14.284,19.717c-2.399,3.839-6.821,11.778-8.504,15.985c-1.173,2.953-2.443,9.213-3.403,12.239
			c-0.841,2.672-2.986,7.851-3.735,10.544c-1.373,4.928-3.174,15.025-4.082,20.064c-0.971,5.414-3.241,16.258-3.396,21.758
			c-0.163,5.297-1.092,16.813,2.038,21.086c1.904,2.613,8.666,4.945,11.899,5.105c4.458,0.213,12.94-3.613,17-5.449
			c3.337-1.498,9.095-6.363,12.586-7.477c2.916-0.938,9.239-0.355,12.239-1.023c2.838-0.639,8.711-2.15,10.889-4.078
			c2.871-2.543,6.119-9.898,7.138-13.605c0.432-1.564-0.162-4.941,0.336-6.494L95.525,114.635z"/>
		<path fill="#fff" d="M30.941,176.354L30.941,176.354c-0.133,0-0.273-0.006-0.406-0.01c-3.488-0.166-10.445-2.576-12.534-5.445
			c-2.919-3.986-2.536-13.283-2.281-19.424c0.03-0.809,0.063-1.537,0.082-2.182c0.125-4.492,1.627-12.41,2.724-18.186
			c0.262-1.389,0.502-2.646,0.687-3.699l0.022-0.096c0.945-5.273,2.702-15.105,4.075-20.041c0.432-1.551,1.299-3.857,2.134-6.094
			c0.646-1.712,1.255-3.332,1.616-4.473c0.376-1.2,0.805-2.924,1.259-4.743c0.712-2.827,1.436-5.743,2.167-7.559
			c1.698-4.249,6.142-12.229,8.563-16.122c3.185-5.094,10.327-14.834,14.347-19.802c0.417-0.521,0.889-1.111,1.414-1.768
			c3.06-3.857,7.692-9.689,10.999-11.996c2.635-1.838,8.899-4.739,12.338-4.912c2.186-0.111,6.884,0.357,8.736,1.894
			c2.543,2.104,3.795,8.237,4.54,11.91l0.17,0.809c0.66,3.163,0.734,7.799,0.809,12.707c0.077,4.902,0.158,9.974,0.889,13.118
			c0.236,1.008,0.938,2.558,1.628,4.049c0.587,1.266,1.126,2.462,1.414,3.373c1.181,3.798,2.524,8.504,2.414,11.165
			c-0.045,1.259-0.694,2.964-1.322,4.614c-0.461,1.218-0.944,2.473-1.063,3.296c-0.45,3.03-0.266,8.434-0.118,12.781
			c0.059,1.92,0.126,3.73,0.126,5.115l-0.016,0.17l-4.787,22.84c-0.21,0.656-0.181,1.893-0.147,3.082
			c0.033,1.279,0.063,2.498-0.181,3.377c-0.971,3.547-4.274,11.256-7.396,14.006c-2.303,2.035-8.039,3.547-11.25,4.268
			c-1.443,0.324-3.499,0.373-5.68,0.42c-2.462,0.057-5.009,0.111-6.493,0.584c-1.838,0.598-4.451,2.357-6.979,4.066
			c-2.048,1.389-3.975,2.695-5.507,3.381C43.912,172.637,35.655,176.354,30.941,176.354z M78.791,31.468
			c-0.203,0-0.399,0.008-0.562,0.015c-3.045,0.151-8.954,2.86-11.464,4.61c-3.101,2.163-7.644,7.876-10.652,11.659
			c-0.517,0.661-1.004,1.263-1.417,1.787c-3.909,4.831-11.125,14.667-14.225,19.632c-2.392,3.838-6.769,11.692-8.43,15.853
			c-0.69,1.712-1.432,4.705-2.089,7.341c-0.465,1.846-0.908,3.603-1.299,4.843c-0.369,1.188-0.985,2.83-1.639,4.564
			c-0.819,2.197-1.676,4.471-2.089,5.953c-1.351,4.857-3.167,15.012-4.042,19.883l-0.022,0.102c-0.188,1.059-0.421,2.316-0.69,3.713
			c-1.089,5.717-2.569,13.557-2.694,17.926c-0.015,0.643-0.048,1.385-0.081,2.193c-0.229,5.551-0.613,14.848,1.96,18.365
			c1.702,2.328,8.22,4.617,11.265,4.762c4.248,0.203,12.612-3.566,16.576-5.352c1.436-0.643,3.311-1.912,5.3-3.26
			c2.621-1.775,5.341-3.613,7.411-4.27c1.713-0.559,4.381-0.613,6.961-0.67c2.004-0.043,4.074-0.088,5.355-0.379
			c1.923-0.428,8.353-1.979,10.504-3.883c2.632-2.318,5.839-9.363,6.892-13.195c0.177-0.639,0.147-1.783,0.118-2.887
			c-0.033-1.373-0.066-2.664,0.214-3.602l4.739-22.621c0-1.338-0.063-3.111-0.13-4.98c-0.154-4.643-0.336-9.895,0.137-13.076
			c0.147-1.004,0.635-2.288,1.159-3.65c0.546-1.45,1.178-3.097,1.211-4.082c0.114-2.709-1.672-8.44-2.341-10.604
			c-0.251-0.801-0.778-1.953-1.332-3.167c-0.724-1.572-1.465-3.196-1.738-4.37c-0.775-3.325-0.856-8.478-0.931-13.468
			c-0.069-4.614-0.147-9.387-0.778-12.398l-0.166-0.808c-0.661-3.227-1.886-9.235-3.972-10.955
			C84.678,32.055,81.278,31.468,78.791,31.468z"/>
	</g>
</g>
</svg>
