<?xml version="1.0" encoding="iso-8859-1"?>
<!-- Generator: Adobe Illustrator 16.0.0, SVG Export Plug-In . SVG Version: 6.00 Build 0)  -->
<!DOCTYPE svg PUBLIC "-//W3C//DTD SVG 1.1//EN" "http://www.w3.org/Graphics/SVG/1.1/DTD/svg11.dtd">
<svg version="1.1" id="&#x56FE;&#x5C42;_1" xmlns="http://www.w3.org/2000/svg" xmlns:xlink="http://www.w3.org/1999/xlink" x="0px"
	 y="0px" width="198px" height="198px" viewBox="0 0 198 198" style="enable-background:new 0 0 198 198;" xml:space="preserve">
<path fill="#fff" style="fill-rule:evenodd;clip-rule:evenodd;" d="M292.177,135.408c-0.814-0.938-1.415-1.932-2.28-2.563
	c-1.738-1.266-3.648-2.293-5.429-3.506c-0.588-0.4-1.262-0.99-1.439-1.622c-0.84-2.991-1.518-6.026-2.259-9.045
	c-0.712-2.896-1.005-5.984-2.234-8.64c-2.446-5.281-3.746-10.894-5.345-16.409c-0.97-3.345-1.146-6.917-1.703-10.383
	c-0.534-3.325-2.761-5.853-5.993-6.026c-2.21-0.119-4.41-0.743-6.563-1.328c-0.65-0.177-1.552-0.941-1.606-1.507
	c-0.057-0.583-0.079-1.173-0.074-1.764c0.037,0.016,0.071,0.027,0.104,0.027c0,0-0.041-0.064-0.103-0.17
	c0.005-0.346,0.02-0.691,0.041-1.037c0.51,0.252,1.305,0.544,2.194,0.504c0,0-1.703-1.689-1.344-2.674c0,0-0.04-1.548,1.344-3.378
	c0.372-0.491,0.576-1.271,0.668-2.176c0.095-0.488,0.151-0.992,0.195-1.507c0.034-0.404-0.023-0.684-0.166-0.844
	c-0.106-1.911-0.466-3.789-0.697-4.48c-0.518-1.548-2.322-4.441-4.745-5.092c-0.861-0.231-1.917,0.417-3.17,1.261
	c0,0-2.187-1.858-4.398-0.224c-1.494,1.104-3.577,3.528-3.889,6.025c0,0,0.097,1.117,0.34,2.604
	c-0.065,0.148-0.089,0.353-0.067,0.608c0.062,0.741,0.017,1.552,0.313,2.197c0.155,0.339,0.373,0.653,0.603,0.961
	c0.078,0.252,0.16,0.499,0.247,0.737c1.077,2.956,1.58,5.348,0.431,6.474c0,0,0.688,0.147,1.655-0.588
	c0.043,0.528,0.043,1.065-0.014,1.613c-0.123,1.185-0.551,2.095-1.705,2.4c-1.82,0.481-3.658,1.028-5.519,1.19
	c-3.993,0.35-6.134,1.852-7.039,5.377c-0.327,1.277-0.621,2.572-0.804,3.876c-0.602,4.305-1.094,8.604-2.624,12.744
	c-1.275,3.451-1.944,7.105-3.589,10.459c-0.838,1.709-1.322,3.625-1.736,5.5c-0.626,2.83-1.008,5.714-1.57,8.561
	c-0.672,3.396-1.871,6.45-5.541,7.721c-0.283,0.098-0.55,0.293-0.778,0.494c-1.412,1.244-2.825,2.484-4.196,3.771
	c-0.197,0.184-0.328,0.736-0.205,0.891c0.169,0.209,0.68,0.359,0.921,0.254c0.63-0.273,1.194-0.701,1.783-1.068
	c0.731-0.455,1.462-0.911,2.299-1.434c-0.572,3.288-1.118,6.252-1.574,9.23c-0.063,0.411,0.321,0.89,0.498,1.337
	c0.32-0.343,0.776-0.632,0.933-1.038c0.358-0.924,0.569-1.905,0.84-2.863c0.039,1.073-0.215,2.084-0.318,3.109
	c-0.099,0.971-0.854,2.123,0.675,3.002c0.4-1.037,0.753-1.955,1.124-2.919c0.02,0.288-0.022,0.567,0.066,0.796
	c0.131,0.335,0.354,0.633,0.539,0.946c0.248-0.259,0.589-0.478,0.721-0.785c0.217-0.504,0.297-1.066,0.44-1.628
	c0.352,0.293,0.666,0.555,1.218,1.016c0.732-2.43,1.786-4.609,1.984-6.863c0.387-4.41,1.827-8.391,3.918-12.192
	c3.12-5.671,5.231-11.656,6.476-18.032c0.646-3.314,2.175-6.456,3.381-9.893c0.394,0.901,0.829,1.519,0.926,2.185
	c0.542,3.774,1.1,7.552,1.442,11.348c0.131,1.445-0.004,3.055-0.521,4.396c-1.684,4.362-3.058,8.769-3.785,13.413
	c-0.704,4.496-1.53,8.965-0.931,13.518c0.383,2.912,1.012,5.793,1.566,8.682c0.986,5.13,2.038,10.248,2.988,15.385
	c0.678,3.664,1.715,7.305,1.108,11.102c-0.298,1.858-0.784,3.707-0.877,5.574c-0.357,7.201,1.355,14.127,2.822,21.107
	c0.812,3.863,0.962,7.867,1.387,11.811c0.031,0.287-0.086,0.62-0.218,0.891c-0.443,0.906-0.882,1.821-1.401,2.685
	c-0.711,1.181-0.516,1.843,0.864,1.997c1.72,0.193,3.469,0.279,5.193,0.189c0.518-0.027,1.259-0.709,1.432-1.242
	c0.25-0.771,0.081-1.68,0.081-2.529c-0.001-1.754,0.269-3.564-0.072-5.249c-0.651-3.212-0.542-6.377-0.204-9.585
	c0.318-3.02,0.488-6.055,0.816-9.073c0.35-3.2,0.599-6.37,0.019-9.589c-0.517-2.876-1.246-5.785-0.175-8.721
	c0.253-0.693,0.47-1.449,0.475-2.177c0.027-4.633,0.077-9.269-0.051-13.898c-0.11-3.96-0.23-7.884,0.445-11.833
	c0.417-2.43,0.226-4.961,0.352-7.444c0.03-0.59,0.239-1.171,0.366-1.757c0.266-0.014,0.532-0.029,0.799-0.043
	c0.146,0.578,0.388,1.152,0.418,1.738c0.109,2.104-0.113,4.258,0.263,6.307c0.957,5.221,0.787,10.441,0.454,15.678
	c-0.275,4.316-0.623,8.685,0.438,12.887c0.755,2.99,0.552,5.787,0.013,8.699c-0.318,1.723-0.643,3.504-0.533,5.23
	c0.278,4.383,0.965,8.742,1.177,13.125c0.212,4.363,0.046,8.745,0.043,13.119c0,0.131-0.022,0.262-0.032,0.395
	c-0.104,1.354-0.251,2.707-0.298,4.064c-0.039,1.133,0.568,1.899,1.711,1.929c1.602,0.042,3.214-0.013,4.809-0.156
	c1.676-0.15,1.841-0.737,1.035-2.257c-0.604-1.139-1.153-2.369-1.393-3.623c-0.207-1.085,0.035-2.261,0.117-3.394
	c0.082-1.138,0.123-2.288,0.337-3.402c0.752-3.923,1.664-7.817,2.335-11.753c0.538-3.153,0.755-6.359,1.223-9.526
	c0.418-2.831,0.369-5.644-0.346-8.39c-0.743-2.854-0.672-5.703-0.158-8.525c1.105-6.087,2.381-12.144,3.558-18.219
	c0.677-3.489,1.404-6.975,1.912-10.49c0.566-3.922-0.079-7.805-0.736-11.679c-0.796-4.69-1.612-9.362-3.619-13.737
	c-0.435-0.943-0.887-2.008-0.868-3.01c0.058-3.342,0.2-6.693,0.562-10.014c0.215-1.975,0.901-3.897,1.376-5.844
	c0.175,0.011,0.351,0.021,0.525,0.032c1.113,3.312,2.272,6.611,3.316,9.945c0.444,1.42,0.61,2.923,0.965,4.373
	c1.097,4.475,3.096,8.576,5.204,12.642c1.408,2.717,2.828,5.383,3.271,8.558c0.456,3.27,1.556,6.453,2.42,9.662
	c0.107,0.395,0.505,0.711,0.768,1.063c0.107-0.063,0.215-0.125,0.322-0.188c0.051-0.474,0.102-0.947,0.169-1.581
	c0.463,1.237,0.858,2.297,1.255,3.356c0.207-0.027,0.414-0.053,0.622-0.08c0.097-0.796,0.192-1.592,0.273-2.262
	c0.403,0.99,0.841,2.064,1.278,3.137c0.222-0.041,0.443-0.084,0.665-0.125c0.067-0.811,0.134-1.621,0.194-2.35
	c0.294,0.119,0.667,0.27,1.041,0.42c0.141-0.436,0.314-0.865,0.411-1.311c0.054-0.248-0.002-0.528-0.042-0.789
	c-0.428-2.754-0.861-5.506-1.314-8.396C289.009,133.773,289.792,136.479,292.177,135.408z"/>
<path fill="#fff" d="M136.379,105.598c-0.67-1.344-0.447-1.4-1.287-2.464c-0.953-1.064-0.783-0.841-1.959-2.017
	c-0.112-0.112-0.224-0.055-0.504-0.56c0,0.057-0.448-1.065-0.393-1.065c-0.671-1.679-1.103-3.095-1.438-4.832
	c-0.336-1.176-0.561-2.855-0.561-4.087c-0.189-2.218-0.688-3.846-0.968-5.079c-0.504-2.352-2.24-6.438-2.354-6.776
	c-1.232-3.695-1.511-7.783-1.903-10.918c-0.056-0.616,0.147-1.848,0.091-2.407c0-0.56-0.035-2.241,0.134-3.361
	c0.111-0.952,0.111-3.471,0.111-3.471c0.169-1.959-1.175-6.215-2.407-7.896c-0.56-0.671-0.709-1.151-1.344-1.624
	c-1.628-1.213-2.235-1.509-3.689-1.678c-1.568-0.223-3.031-0.45-5.215-1.178l-0.279-0.055c-1.456-0.448-2.856-0.896-3.36-2.296
	c-0.504-1.344-0.952-3.325-0.729-6.181v-0.448c0.17-0.336,0.28-0.672,0.449-1.064l1.232-2.183c0.84-0.616,1.625-4.368,1.231-4.984
	c-0.168-0.225-0.335-0.392-0.447-0.504l-0.169-0.112c0.225-0.56,0.28-1.848,0.337-2.352c0-4.569-3.565-8.266-7.972-8.266H102.5
	h-0.487c-4.405,0-7.97,3.697-7.97,8.266c0.056,0.504,0.112,1.792,0.335,2.352l-0.168,0.112c-0.112,0.112-0.28,0.28-0.447,0.504
	c-0.393,0.616,0.392,4.368,1.231,4.984l1.232,2.183c0.168,0.392,0.28,0.728,0.448,1.064v0.448c0.223,2.856-0.225,4.836-0.728,6.181
	c-0.505,1.399-1.904,1.848-3.361,2.296l-0.28,0.055c-2.183,0.729-3.646,0.956-5.214,1.178c-1.455,0.169-2.062,0.464-3.689,1.678
	c-0.635,0.473-0.784,0.953-1.343,1.624c-1.233,1.68-2.576,5.937-2.408,7.896c0,0,0,2.52,0.111,3.471
	c0.168,1.12,0.134,2.801,0.134,3.361c-0.057,0.56,0.146,1.791,0.089,2.407c-0.391,3.136-0.67,7.223-1.902,10.918
	c-0.113,0.337-1.849,4.424-2.353,6.776c-0.28,1.232-0.779,2.861-0.969,5.079c0,1.232-0.224,2.912-0.56,4.087
	c-0.336,1.737-0.768,3.153-1.439,4.832c0.055,0-0.393,1.122-0.393,1.065c-0.28,0.505-0.391,0.447-0.503,0.56
	c-1.176,1.176-1.007,0.952-1.96,2.017c-0.839,1.063-0.616,1.12-1.288,2.464c-0.728,1.455-1.96,4.089-1.511,5.039
	c0.224,0.448,0.839,0.338,0.952,0.225c0.896-1.232,1.241-2.159,2.417-3.224c0.122-0.141,0.608-0.528,0.271,0.032l-0.672,1.959
	c-0.28,0.95-0.952,2.687-1.399,4.199c-0.616,1.848-0.729,2.352,0.056,2.519c0.784,0.113,1.344-1.565,1.68-2.294
	c0.673-1.456,1.008-2.8,1.625-3.753c-0.057,0.17-0.168,1.065-0.281,1.009c-0.28,2.073-0.56,3.977-0.56,5.99
	c0,1.401,1.008,0.896,1.175,0.562c0.113-0.335,0.45-2.016,0.673-3.191c0.28-1.456,0.448-3.192,0.952-3.921
	c-0.111,0.227,0,2.576,0.224,4.537c0.169,1.623,0.281,2.687,1.008,2.575c0.84-0.112,0.728-2.407,0.672-4.647
	c0-1.008,0.28-2.072,0.28-2.744c0,0.336,0.224,1.456,0.392,2.687c0.224,1.513,0.56,2.969,1.12,2.969c1.008,0,0.335-2.8,0.392-4.144
	c0-0.223,0.111-1.175,0.111-1.959c0-0.617,0.167-1.288,0.167-1.513c0.393-2.631,0.393-3.191-0.111-4.872
	c-0.168-0.727,0.895-3.862,1.904-5.71c0.167-0.335,1.063-1.681,1.287-2.184c0.505-0.953,1.065-2.016,1.513-3.023
	c0.504-1.065,1.511-3.191,2.015-4.928c0.281-0.84,0.504-1.456,0.729-2.8c0.335-1.96,0.367-3.221,0.589-5.406
	c0.058-0.391,0.361-1.48,0.531-1.873c0.316-0.793,0.807-4.308,1.002-5.309c-0.008-0.068-0.015-0.146-0.022-0.211l0.054,0.057
	c-0.01,0.041-0.021,0.096-0.032,0.154c0.284,2.762,0.79,8.228,0.735,10.796c-0.056,0.784,0.024,1.534-0.032,2.318
	c-0.014,0.514,0.131,1.935,0.164,4.287l0.036,1.402c-0.896,5.039-2.688,6.159-2.799,10.248c0,0.672-0.785,3.752-0.785,4.478
	c-0.224,7.896,0.28,13.775,1.68,21.056c0.559,2.913,1.176,3.807,1.847,7.671l0.28,4.704c-0.335,3.639,1.12,4.59,0.393,6.662
	c-1.344,3.641-1.076,9.183-0.515,12.205c0.391,2.127,1.69,6.833,3.202,11.09l0.112,0.392c0-0.113,1.625,3.919,0.896,7.392
	c0,0.168,0.057,0.672,0.057,0.785c0.111,1.959,0.167,1.062-0.226,2.127c-0.615,1.568-0.727,2.463-1.399,3.751
	c0.11-0.224-0.336,0.729-0.449,0.897c-0.056,0.111,0.057,0.391,0.057,0.502c0.169,0.729,0.56,1.569,1.903,1.175
	c-0.112,0,0.392,1.288,2.017,0.338l0.335,0.335c0.673,0.56,1.176,0.504,1.793-0.056c-0.112,0.056,0.784,1.12,1.791,0.112
	c-0.167,0.168,0.616,0.559,0.784,0.616c0.448,0.111,0.952,0.056,1.399-0.169c0.616-0.336,0.785-1.288,0.785-1.288v-0.11
	c0-1.063-0.785-1.512-0.672-2.297c0.056-0.446,0-0.95-0.169-1.399c-0.335-0.839-0.951-1.567-0.951-2.632
	c0-1.398,0.112-2.911-0.615-4.312v-0.839c-0.057-1.289-0.953-2.744-0.953-3.808l-0.057-0.394c0-1.567-0.111-3.359-0.167-4.87
	c-0.113-2.911,0.335-5.712,0.503-7.335c0.393-3.137,0.673-4.031-0.448-7.504c-0.56-1.568-0.168-4.313,0-5.823
	c0.168-1.682,0.448-2.634,0.84-4.311c0.84-3.978,0.392-7.338,1.175-11.648c0.505-2.576,0.728-5.264,1.232-7.895
	c0.393-2.017,0.672-4.031,0.896-6.161c0.225,2.13,0.504,4.145,0.896,6.161c0.504,2.631,0.728,5.318,1.232,7.895
	c0.782,4.311,0.335,7.671,1.175,11.648c0.394,1.677,0.673,2.629,0.84,4.311c0.169,1.511,0.561,4.255,0,5.823
	c-1.119,3.473-0.84,4.367-0.446,7.504c0.167,1.623,0.615,4.424,0.502,7.335c-0.056,1.511-0.167,3.303-0.167,4.87l-0.056,0.394
	c0,1.063-0.896,2.519-0.952,3.808v0.839c-0.729,1.4-0.616,2.913-0.616,4.312c0,1.064-0.616,1.793-0.951,2.632
	c-0.169,0.449-0.225,0.953-0.169,1.399c0.112,0.785-0.672,1.233-0.672,2.297v0.11c0,0,0.169,0.952,0.784,1.288
	c0.447,0.225,0.952,0.28,1.4,0.169c0.167-0.058,0.951-0.448,0.783-0.616c1.009,1.008,1.903-0.057,1.791-0.112
	c0.618,0.56,1.121,0.615,1.793,0.056l0.337-0.335c1.624,0.95,2.127-0.338,2.015-0.338c1.345,0.395,1.736-0.446,1.903-1.175
	c0-0.111,0.113-0.391,0.058-0.502c-0.112-0.169-0.56-1.121-0.449-0.897c-0.671-1.288-0.782-2.183-1.399-3.751
	c-0.393-1.065-0.336-0.168-0.225-2.127c0-0.113,0.057-0.617,0.057-0.785c-0.729-3.473,0.896-7.505,0.896-7.392l0.11-0.392
	c1.514-4.257,2.812-8.963,3.204-11.09c0.56-3.022,0.828-8.564-0.516-12.205c-0.728-2.072,0.728-3.023,0.394-6.662l0.278-4.704
	c0.672-3.864,1.288-4.758,1.848-7.671c1.4-7.28,1.904-13.159,1.681-21.056c0-0.726-0.785-3.806-0.785-4.478
	c-0.111-4.089-1.903-5.209-2.8-10.248l0.037-1.402c0.032-2.352,0.177-3.773,0.163-4.287c-0.055-0.784,0.024-1.534-0.031-2.318
	c-0.055-2.568,0.45-8.034,0.735-10.796c-0.011-0.058-0.021-0.113-0.032-0.154l0.054-0.057c-0.007,0.065-0.015,0.143-0.021,0.211
	c0.195,1.001,0.685,4.516,1.002,5.309c0.169,0.392,0.474,1.481,0.53,1.873c0.223,2.185,0.255,3.446,0.589,5.406
	c0.226,1.345,0.449,1.96,0.729,2.8c0.504,1.737,1.511,3.863,2.015,4.928c0.448,1.007,1.009,2.071,1.514,3.023
	c0.224,0.503,1.119,1.849,1.287,2.184c1.009,1.848,2.071,4.983,1.904,5.71c-0.505,1.681-0.505,2.241-0.112,4.872
	c0,0.225,0.169,0.896,0.169,1.513c0,0.784,0.11,1.736,0.11,1.959c0.057,1.344-0.616,4.144,0.393,4.144
	c0.561,0,0.895-1.456,1.12-2.969c0.168-1.23,0.391-2.351,0.391-2.687c0,0.672,0.281,1.736,0.281,2.744
	c-0.056,2.24-0.168,4.535,0.671,4.647c0.729,0.111,0.841-0.952,1.008-2.575c0.225-1.961,0.337-4.311,0.225-4.537
	c0.504,0.729,0.673,2.465,0.951,3.921c0.226,1.176,0.561,2.856,0.673,3.191c0.168,0.335,1.177,0.84,1.177-0.562
	c0-2.014-0.28-3.917-0.561-5.99c-0.111,0.057-0.224-0.839-0.28-1.009c0.616,0.953,0.951,2.297,1.624,3.753
	c0.336,0.729,0.896,2.407,1.681,2.294c0.783-0.167,0.672-0.671,0.056-2.519c-0.448-1.513-1.12-3.249-1.399-4.199l-0.672-1.959
	c-0.338-0.561,0.147-0.173,0.271-0.032c1.175,1.064,1.521,1.991,2.417,3.224c0.111,0.113,0.727,0.224,0.951-0.225
	C138.34,109.687,137.108,107.053,136.379,105.598z"/>
</svg>
