<?xml version="1.0" encoding="iso-8859-1"?>
<!-- Generator: Adobe Illustrator 16.0.0, SVG Export Plug-In . SVG Version: 6.00 Build 0)  -->
<!DOCTYPE svg PUBLIC "-//W3C//DTD SVG 1.1//EN" "http://www.w3.org/Graphics/SVG/1.1/DTD/svg11.dtd">
<svg version="1.1" id="&#x56FE;&#x5C42;_1" xmlns="http://www.w3.org/2000/svg" xmlns:xlink="http://www.w3.org/1999/xlink" x="0px"
	 y="0px" width="198px" height="198px" viewBox="0 0 198 198" style="enable-background:new 0 0 198 198;" xml:space="preserve">
<path fill="#fff" style="fill-rule:evenodd;clip-rule:evenodd;" d="M99.83,14.017c12.736,0,25.469-0.076,38.201,0.088
	c1.837,0.021,3.657,1.191,5.486,1.829c-0.855,2.131-1.267,4.623-2.659,6.309c-2.618,3.176-5.723,5.974-8.776,8.768
	c-5.252,4.82-6.519,10.823-5.672,17.594c2.799,22.519,10.102,43.81,17.88,64.954c0.47,1.283,2.534,2.383,4.069,2.807
	c22.52,6.237,30.691,32.222,15.56,49.758c-6.531,7.563-20.065,13.109-29.937,8.126c-1.619-0.818-3.465-1.217-5.24-1.687
	c-2.584-0.676-4.438-0.144-6.275,2.282c-1.947,2.588-4.598,5.059-7.476,6.47c-10.866,5.302-24.751,2.555-32.672-6.504
	c-3.188-3.653-6.385-2.227-9.573-1.091c-5.604,2.006-11.075,3.164-17.049,1.527c-12.879-3.536-22.243-15.064-22.495-28.132
	c-0.285-14.138,7.921-26.182,21.211-29.865c4.372-1.213,6.159-3.436,7.341-7.366c6.1-20.234,12.728-40.32,14.305-61.614
	c0.462-6.343-0.625-11.839-5.789-16.059c-4.036-3.297-8.155-6.519-11.872-10.156c-1.418-1.393-1.821-3.83-2.685-5.793
	c1.813-0.68,3.617-1.921,5.445-1.947c12.888-0.167,25.775-0.092,38.671-0.092C99.83,14.156,99.83,14.088,99.83,14.017z
	 M122.16,165.402c0.088,0.479,0.168,0.956,0.257,1.435c5.898,0.264,11.813,0.86,17.694,0.643c2.358-0.085,5.194-1.443,6.813-3.164
	c1.363-1.455,2.324-4.791,1.552-6.326c-0.755-1.493-4.044-2.643-6.041-2.408C134.6,156.496,128.323,160.927,122.16,165.402z
	 M81.501,167.219c0.059-0.579,0.118-1.149,0.18-1.729c-6.225-4.622-12.656-9.02-20.615-9.976c-1.921-0.235-4.975,1.157-5.898,2.743
	c-0.772,1.321,0.332,4.363,1.502,6.003c1.024,1.443,3.255,2.74,5.022,2.824C68.274,167.412,74.894,167.219,81.501,167.219z"/>
</svg>
