<?xml version="1.0" encoding="iso-8859-1"?>
<!-- Generator: Adobe Illustrator 16.0.0, SVG Export Plug-In . SVG Version: 6.00 Build 0)  -->
<!DOCTYPE svg PUBLIC "-//W3C//DTD SVG 1.1//EN" "http://www.w3.org/Graphics/SVG/1.1/DTD/svg11.dtd">
<svg version="1.1" id="&#x56FE;&#x5C42;_1" xmlns="http://www.w3.org/2000/svg" xmlns:xlink="http://www.w3.org/1999/xlink" x="0px"
	 y="0px" width="198px" height="198px" viewBox="0 0 198 198" style="enable-background:new 0 0 198 198;" xml:space="preserve">
<path fill="#fff" style="fill-rule:evenodd;clip-rule:evenodd;" d="M114.788,115.094c-3.305-0.783-6.033,1.118-9.457,2.973
	c-4.107,2.23-9.364,4.027-14.33,4.389c-19.392,1.414-36.038,7.224-50.493,16.901c-5.182,3.472-11.071,4.663-17.671,4.259
	c-6.016-0.368-8.632-3.425-5.832-7.463c4.002-5.78,3.623-11.59,1.638-17.565c-2.724-8.199-5.261-16.332-4.51-24.982
	c1.858-21.438,23.469-36.871,51.244-35.518c7.618,0.371,15.499,1.753,22.535,3.99c12.576,3.998,25.339,3.938,38.398,3.133
	c14.318-0.881,28.626-1.151,42.097,3.496c4.492,1.548,8.736,3.663,12.702,5.914c3.764,2.137,3.832,4.9,0.324,7.254
	c-2.565,1.725-5.799,2.843-8.573,4.402c-3.844,2.157-7.849,4.236-11.201,6.795c-4.103,3.132-7.527,6.772-11.363,10.106
	C141.199,111.088,129.84,115.281,114.788,115.094z"/>
</svg>
