<?xml version="1.0" encoding="UTF-8"?>
<svg width="190px" height="190px" viewBox="0 0 190 190" version="1.1" xmlns="http://www.w3.org/2000/svg" xmlns:xlink="http://www.w3.org/1999/xlink">
    <!-- Generator: Sketch 56 (81588) - https://sketch.com -->
    <title>皮肤备份 2</title>
    <desc>Created with Sketch.</desc>
    <g id="皮肤备份-2" stroke="none" stroke-width="1" fill="none" fill-rule="evenodd">
        <rect id="矩形备份-131" fill-opacity="0" fill="#FFFFFF" fill-rule="nonzero" x="0" y="0" width="190" height="190"></rect>
        <g id="皮肤" transform="translate(35.000000, 29.000000)" fill-rule="nonzero">
            <path d="M21.6065245,25.1636908 C21.6065245,25.1636908 39.4690421,53.6271782 61.0629824,54.2755685 C94.5250082,55.2862946 99.7121308,67.8260786 101.947594,76.3865259 C101.947594,76.3865259 91.1432078,119.487531 56.3589742,130.650015 C39.3503824,136.110479 -12.0610369,77.9524097 21.6065245,25.1636908 Z M82.7737276,93.9106601 C82.7172193,93.8851284 82.654535,93.8709142 82.5885682,93.8709142 C82.3389666,93.8709142 82.1370499,94.0732912 82.1370499,94.3224236 C82.1370499,94.3884654 82.1512337,94.4511874 82.1767296,94.5077101 C82.1509331,94.5916399 82.1370499,94.6807848 82.1370499,94.7731704 C82.1370499,95.2721275 82.5408719,95.6761241 83.0395253,95.6761241 C83.5379626,95.6761241 83.9422598,95.2720839 83.9422598,94.7731704 C83.9422598,94.2749544 83.5379626,93.8709142 83.0395253,93.8709142 C82.9470035,93.8709142 82.8577463,93.8848223 82.7737276,93.9106601 Z M73.1110005,96.1275372 C73.1110005,95.3795389 72.5050449,94.7735634 71.7572177,94.7735192 C71.0096398,94.7735192 70.4031857,95.3795389 70.4031857,96.1275372 C70.4031857,96.8753142 71.0096398,97.481334 71.7572177,97.481334 C72.5050033,97.481334 73.1110005,96.8753585 73.1110005,96.1275372 Z M80.3318401,99.2864503 C80.3318401,98.2896816 79.5232322,97.481334 78.5266302,97.481334 C77.5298085,97.481334 76.7214203,98.2896816 76.7214203,99.2864503 C76.7214203,100.283406 77.5297645,101.091754 78.5266302,101.091754 C79.5232322,101.091754 80.3318401,100.283453 80.3318401,99.2864503 Z M80.3318401,88.906587 C80.3318401,88.1588298 79.7255383,87.5526796 78.9781798,87.5526796 C78.2305742,87.5526796 77.6240252,88.1588298 77.6240252,88.906587 C77.6240252,89.6546077 78.2305742,90.2604944 78.9781798,90.2604944 C79.7255878,90.2604944 80.3318401,89.6546077 80.3318401,88.906587 Z M68.5979758,97.9327682 C68.5979758,97.1847274 67.991674,96.5787291 67.2438212,96.5787291 C66.4967099,96.5787291 65.8901609,97.1846747 65.8901609,97.9327682 C65.8901609,98.6805982 66.4967099,99.2865439 67.2438212,99.2865439 C67.991674,99.2865439 68.5979758,98.6805982 68.5979758,97.9327682 Z M74.9162104,97.9324297 C74.9162104,98.181665 75.1179595,98.3839389 75.3676208,98.3839389 C75.6168504,98.3839389 75.8188153,98.181711 75.8188153,97.9324297 C75.8188153,97.6831484 75.6168072,97.481334 75.3676208,97.481334 C75.1179163,97.481334 74.9162104,97.6831944 74.9162104,97.9324297 Z M66.7927659,101.994359 C66.7927659,102.492854 67.1968759,102.896964 67.6953708,102.896964 C68.1938667,102.896964 68.5979758,102.492854 68.5979758,101.994359 C68.5979758,101.495864 68.1938657,101.091754 67.6953708,101.091754 C67.1968749,101.091754 66.7927659,101.495864 66.7927659,101.994359 Z M74.0136054,101.091885 C74.0136054,101.590154 74.4175526,101.994359 74.9161857,101.994359 C75.4148188,101.994359 75.8188153,101.590154 75.8188153,101.091885 C75.8188153,100.593617 75.4147693,100.189149 74.9161857,100.189149 C74.417602,100.189149 74.0136054,100.593617 74.0136054,101.091885 Z M76.7214203,88.4552009 C76.7214203,87.4584225 75.7109625,86.6500747 74.4642944,86.6500747 C73.2185589,86.6500747 72.2083956,87.4584644 72.2083956,88.4552009 C72.2083956,89.4521466 73.2186079,90.2604944 74.4642944,90.2604944 C75.7109625,90.2604944 76.7214203,89.4521466 76.7214203,88.4552009 Z M78.5266302,94.7736061 C78.5266302,94.2752604 78.122271,93.8709142 77.6239232,93.8709142 C77.1251265,93.8709142 76.7214203,94.2752604 76.7214203,94.7736061 C76.7214203,95.2721693 77.1251265,95.6761241 77.6239232,95.6761241 C78.122271,95.6761241 78.5266302,95.2721693 78.5266302,94.7736061 Z M75.8188153,93.419263 C75.8188153,92.6717813 75.2131808,92.0657043 74.4656329,92.0657043 C73.7175705,92.0657043 73.1110005,92.6717813 73.1110005,93.419263 C73.1110005,94.1672429 73.7176173,94.7735192 74.4656329,94.7735192 C75.2131808,94.7735192 75.8188153,94.1672429 75.8188153,93.419263 Z M82.1370499,96.5788552 C82.1370499,96.0801076 81.7322861,95.6761241 81.2338528,95.6761241 C80.7354194,95.6761241 80.3318401,96.0800572 80.3318401,96.5788552 C80.3318401,97.0771486 80.7354194,97.481334 81.2338528,97.481334 C81.7322387,97.481334 82.1370499,97.0771486 82.1370499,96.5788552 Z M67.6953708,92.0655722 C67.6953708,91.0689249 66.8872624,90.2604944 65.8902729,90.2604944 C64.8930595,90.2604944 64.0849511,91.0689249 64.0849511,92.0655722 C64.0849511,93.0624398 64.8930595,93.8709142 65.8902729,93.8709142 C66.8872624,93.8709142 67.6953708,93.0624398 67.6953708,92.0655722 Z" id="形状结合" fill="#FFFFFF"></path>
            <path d="M1.80520989,55.9615066 C1.46830119,54.3977417 -4.81383908,22.7212071 20.6407782,1.71420839 L22.7194413,1.42108547e-14 L24.0162219,2.36895548 C24.2048061,2.70586417 43.0420281,36.413685 73.3447403,40.6706006 C90.382997,43.0607453 97.7695612,51.1380783 100.969134,57.4884893 C104.071931,63.6546815 104.337581,70.0406655 103.477494,74.8992707 L104.355879,75.2248293 C108.884014,71.8355037 114.804164,63.7667851 114.939191,44.7495266 L119.403761,44.7813104 C119.21414,72.7711635 106.906306,79.8272637 101.898677,81.5402504 C81.9153985,130.285853 57.2654595,132.59979 56.1831208,132.6771 C4.77805831,128.091751 1.83063696,56.6798213 1.80520989,55.9615066 L1.80520989,55.9615066 Z M56.2254993,128.229481 C56.1059813,128.203586 78.0571145,125.806958 96.6655212,82.4706263 L95.5086708,82.6189115 L97.5958096,78.7794237 C99.5600508,75.1730174 100.666128,66.805392 96.9834409,59.4908712 C93.0825044,51.746209 84.6958087,46.7688598 72.7281338,45.0906731 C44.7329283,41.1579528 26.5589291,15.0528262 21.5074176,6.89497417 C0.563986506,26.4822948 6.31823461,55.9615066 6.31823461,55.9615066 C6.31823461,55.9615066 9.1070172,123.997993 56.2254993,128.229481 Z" id="形状" fill="#FCFCFC"></path>
            <path d="M96.7795419,44.1407657 L96.7795417,44.1407657 C90.9245215,44.1349236 86.1792208,39.3905742 86.1722149,33.535554 L86.1722149,33.5357118 C86.1803004,27.6811816 90.9248523,22.9374304 96.7793825,22.9303452 L96.779382,22.9303452 C102.633224,22.9373526 107.37663,27.6817114 107.382471,33.5355529 L107.382471,33.5353329 C107.376754,39.3891744 102.633449,44.1336276 96.7796073,44.1407657 L96.7795419,44.1407657 Z M96.7795419,27.3970352 L96.7795419,27.3970352 C93.3907887,27.400539 90.6445326,30.1468008 90.6410231,33.535554 L90.6410231,33.5355656 C90.6445333,36.9243188 93.390802,39.670575 96.7795552,39.6740712 L96.7795555,39.6740712 C100.166998,39.6682358 102.911294,36.9229945 102.915955,33.5355524 L102.915955,33.5355295 C102.911277,30.1480742 100.166984,27.402851 96.779529,27.3970352 L96.7795419,27.3970352 Z" id="形状" fill="#FCFCFC"></path>
            <path d="M82.0085324,31.7916807 L82.0085325,31.7916807 C77.7979155,31.7881774 74.385086,28.3762953 74.380411,24.1656782 L74.380411,24.1658154 C74.3850084,19.9551983 77.7977829,16.5432562 82.0083999,16.5396805 L82.0084003,16.5396805 C86.2198384,16.5420158 89.6339657,19.9542448 89.6386407,24.165683 L89.6386407,24.165544 C89.6340425,28.3769822 86.2199842,31.7892686 82.0085328,31.7916807 L82.0085324,31.7916807 Z M82.0085324,21.0042457 C80.266778,21.0042457 78.8470999,22.4218049 78.8470999,24.1656782 C78.8470999,25.9095515 80.266778,27.3271107 82.0085324,27.3271107 C83.7524057,27.3271107 85.1720838,25.9116704 85.1720838,24.1656782 C85.1720838,22.419686 83.7524057,21.0042457 82.0085324,21.0042457 Z" id="形状" fill="#FCFCFC"></path>
        </g>
    </g>
</svg>