<?xml version="1.0" encoding="UTF-8"?>
<svg version="1.1" id="&#x56FE;&#x5C42;_1" xmlns="http://www.w3.org/2000/svg" xmlns:xlink="http://www.w3.org/1999/xlink" x="0px"
	 y="0px" width="198px" height="198px" viewBox="0 0 198 198" style="enable-background:new 0 0 198 198;" xml:space="preserve">

    <desc>Created with Sketch.</desc>
    <g id="页面1" stroke="none" stroke-width="1" fill="none" fill-rule="evenodd">
        <g id="皮肤" transform="translate(-17.000000, -26.000000)" fill="#FFFFFF" fill-rule="nonzero">
            <rect id="矩形" opacity="0" x="0" y="30" width="198" height="168"></rect>
            <g id="形状" transform="translate(34, 46)">
                <path d="M104.45862,76.7002117 L104.366625,78.616795 L104.274631,80.5501624 C108.162178,79.6363086 113.347861,80.5501624 116.312113,82.7496776 C117.978386,84.0353389 119.647855,85.501629 121.685299,86.4189995 C122.792741,86.9714358 123.719389,86.9714358 124.830185,86.4189995 C126.683641,85.3208404 128.533902,84.4001131 130.199857,82.933823 C135.389054,78.7155814 140.946228,78.5314359 146.683876,81.1025988 C148.724834,82.0166124 150.571422,82.933823 152.796368,83.3021138 C154.833812,83.6704048 156.687427,83.4862593 158.350027,81.8358238 C159.464177,80.7344677 162.336435,80.3967078 163.147453,83.1214851 C163.079256,83.1146116 163.079256,122.460356 163.079256,138.852658 L163.079256,138.85282 C163.079256,140.725428 162.329361,142.519919 160.9973,143.83493 C159.665303,145.154639 157.855927,145.894737 155.968293,145.894737 L8.75421895,145.894737 C6.86658466,145.894737 5.05401492,145.151282 3.7216987,143.824699 C2.38618826,142.498276 1.64001453,140.7011 1.64336848,138.832311 C1.70134387,123.070931 1.82735652,86.419113 1.82735652,86.419113 C4.71334957,83.1999245 11.1289744,80.8538282 15.9331067,80.3661305 C19.4528363,80.0899124 22.1308846,81.3517564 24.6385203,83.3022274 C25.9333041,84.2195979 27.2314421,85.1369684 28.713568,86.0508221 C29.4530339,86.5111857 30.1956938,86.739769 30.9351598,86.739769 L33.1564321,86.0508221 C35.0100477,84.9526631 36.6761617,84.0354524 38.3422756,82.749951 C40.7510498,80.8231373 43.2486236,79.772773 45.8448993,79.4965548 L49.8006423,79.6568828 C51.1463743,79.8990533 52.5093553,80.3218525 53.8994872,80.91521 C55.5689551,81.8359374 58.897829,82.5656457 61.3101168,83.1215987 L61.7189791,78.6167488 C61.8790103,76.5297671 61.9096749,74.4291981 61.5179019,72.9662648 C60.8057467,71.0396111 59.2555835,69.9483255 56.8875361,69.8493793 L4.84271616,69.8493793 C2.38283431,69.8356787 -0.121447416,69.6310725 0.00456523013,66.3266864 C0.0863376949,64.2261175 1.70469782,63.8885175 4.07961296,63.8645402 L23.7117123,63.8645402 L24.6385203,60.5601523 C25.3779861,58.1800085 25.9333041,55.7928313 25.9333041,53.2250252 C25.9333041,50.6607359 25.5618145,48.2735587 25.0098503,45.8898982 C23.1563943,37.8217059 20.0048005,30.3024332 16.3047562,22.9637895 C15.3779483,20.9484198 14.0799701,18.7489048 12.9725282,16.7301783 C12.6010385,15.8163245 12.6010385,15.0797427 13.3405043,14.7148086 C13.8958223,14.3465177 14.6386422,14.5305034 15.1939603,15.263888 C18.5261882,19.2979843 21.3029383,23.5197425 23.8958601,28.1029182 C28.8977157,37.0884809 32.7854215,46.4423345 35.1941955,56.3452676 C35.7495135,58.3606373 36.1208436,61.6616683 36.4923334,63.8645402 L56.1209192,63.8645402 C61.8620809,63.8645402 66.4924467,66.978069 68.5298906,72.2978264 C69.2147351,74.5620802 69.5486926,76.7173172 69.6473944,78.6166369 C70.0086627,84.5059344 68.6661248,89.4505276 68.5298906,89.7200321 C67.6030828,93.3891941 65.9369689,96.3219342 64.454843,99.2580311 L63.8995249,100.359387 C61.3101168,104.942723 60.3799549,109.890673 61.1226151,115.394735 C62.0494229,123.831219 67.6030828,130.06483 75.9371663,131.899571 C76.6798265,132.083716 77.6066343,132.083716 78.5334422,132.267861 C79.4567362,132.44849 86.4960359,132.44849 86.4960359,132.44849 C91.8316891,132.018817 95.8145831,130.375256 98.9014937,127.50054 C105.013985,121.81585 106.867601,110.443109 102.976541,102.190771 L102.976668,102.191023 C102.443652,101.133331 101.910002,100.075955 101.375717,99.0189094 C100.452422,97.3684739 99.5222606,95.7180382 98.7827948,93.8832974 C98.6192498,93.3957595 95.9686721,86.3880021 96.4557932,78.745806 C96.4557932,78.745806 96.5613627,75.5472379 96.5613627,75.3595758 C98.2036796,67.7653343 102.90895,64.0960124 110.820436,63.9937093 L122.490102,63.9937093 L122.858078,62.8923533 C123.600738,60.5086928 124.156216,58.1250321 124.156216,55.5537096 C124.156216,52.9894202 123.784726,50.6057597 123.229408,48.2185823 C121.375952,40.1503901 118.231066,32.6311175 114.523994,25.2993472 C113.597346,23.2772639 112.302562,21.0777488 111.191766,19.0588626 C110.820436,18.1450088 110.820436,17.4084269 111.559742,17.0434928 C112.118734,16.6785588 112.85788,16.8593474 113.413358,17.5959293 C116.745586,21.6300253 119.52585,25.8484268 122.118612,30.4316024 C127.116954,39.4171651 131.00466,48.7710187 133.416948,58.6739518 C133.556536,59.3593821 133.692928,60.0209951 133.832517,60.6757345 L134.1085,61.9852132 C134.248248,62.6399525 134.387996,63.3015654 134.52423,63.9937093 L159.529515,63.9937093 C161.751106,63.9937093 163.492126,64.2596973 163.601208,66.4558556 C163.785196,70.0500486 161.209364,69.9784364 158.984418,69.9784364 L110.210018,69.9784364 C106.138324,69.9784364 105.385442,73.1600608 104.458794,76.8293826 L104.45862,76.7002117 Z M55.0067214,17.0063947 C62.230009,31.676649 68.8944649,46.7118373 72.4140348,62.8552553 C73.5281847,67.6190597 74.2674908,72.5740429 74.0835027,77.5219929 C74.0835027,82.4769761 73.467015,89.535885 72.1720714,94.3065629 C70.8739336,99.2580294 68.8398435,104.025351 69.2078196,109.341751 L69.2078196,111.912914 C69.5793093,116.127799 70.5059573,119.981266 73.8381853,122.917363 C79.7634948,128.233604 89.9508746,126.399023 94.0257627,119.248041 C96.4313424,115.026443 96.9868202,110.262479 96.6186845,105.491641 C96.2473544,98.8897386 94.9492166,92.2911932 93.2831025,85.6857745 C88.4687487,65.8799082 80.1926405,44.8806131 70.1926027,27.0901165 C65.0067592,17.9202487 59.2657571,9.30297672 52.5977877,1.41877006 C51.2996498,-0.050876887 50.0083794,-0.415810971 48.7104013,0.498042799 C47.4121037,1.41877006 47.0407737,2.88522002 48.1549236,4.53229878 C50.5603437,8.38560627 52.9692774,12.6040077 55.0067214,17.0063947 Z M132.07727,112.649496 C135.705923,112.649496 138.646218,109.73386 138.646218,106.143023 C138.646218,102.54883 135.705923,99.6331938 132.07727,99.6331938 C128.445262,99.6331938 125.504808,102.54883 125.504808,106.143023 C125.504808,109.73386 128.445103,112.649496 132.07727,112.649496 Z M146.336342,119.76643 C147.97866,119.76643 149.31417,118.446721 149.31417,116.816586 C149.31417,115.186612 147.97866,113.866902 146.336342,113.866902 C144.690673,113.866902 143.358515,115.186612 143.358515,116.816586 C143.358515,118.446721 144.690673,119.76643 146.336342,119.76643 Z M119.576304,126.883204 C122.213466,126.883204 124.349772,124.765531 124.349772,122.153447 C124.349772,119.54472 122.213466,117.427047 119.576304,117.427047 C116.939142,117.427047 114.799324,119.54472 114.799324,122.153447 C114.799324,124.765531 116.939142,126.883364 119.576304,126.883364 L119.576304,126.883204 Z M42.6557254,109.089351 C46.5808036,109.089351 49.7630621,105.938417 49.7630621,102.050902 C49.7630621,98.1600303 46.5808036,95.009097 42.6557254,95.009097 C38.7271333,95.009097 35.5448748,98.1600303 35.5448748,102.050902 C35.5448748,105.938417 38.7271333,109.089351 42.6557254,109.089351 Z M34.2468967,126.883204 C36.8838989,126.883204 39.0235585,124.765531 39.0235585,122.153447 C39.0235585,119.54472 36.8838989,117.427047 34.246737,117.427047 C31.609575,117.427047 29.4732694,119.54472 29.4732694,122.153447 C29.4732694,124.765531 31.609575,126.883364 34.246737,126.883364 L34.2468967,126.883204 Z M16.4714474,112.649496 C19.1086094,112.649496 21.244915,110.531823 21.244915,107.919579 C21.244915,105.310852 19.1086094,103.193339 16.4714474,103.193339 C13.8342854,103.193339 11.6944661,105.311012 11.6944661,107.91974 C11.6944661,110.531823 13.8342854,112.649496 16.4714474,112.649496 L16.4714474,112.649496 Z"></path>
            </g>
        </g>
    </g>
</svg>