<?xml version="1.0" encoding="utf-8"?>
<!-- Generator: Adobe Illustrator 16.0.0, SVG Export Plug-In . SVG Version: 6.00 Build 0)  -->
<!DOCTYPE svg PUBLIC "-//W3C//DTD SVG 1.1//EN" "http://www.w3.org/Graphics/SVG/1.1/DTD/svg11.dtd">
<svg version="1.1" id="图层_1" xmlns="http://www.w3.org/2000/svg" xmlns:xlink="http://www.w3.org/1999/xlink" x="0px" y="0px"
	 width="198px" height="198px" viewBox="0 0 198 198" enable-background="new 0 0 198 198" xml:space="preserve">
<g>
	<path fill="#fff" d="M53.628,73.195c3.901-0.524,7.698-2.425,10.312-5.01c2.95,3.774-5.027,6.738-6.741,8.761
		C57.199,76.946,55.273,76.507,53.628,73.195z"/>
	<path fill="#fff" d="M77.167,92.821c-4.615-1.52-9.318-1.876-14.08-2.763c-12.92-2.41,0.076-12.716,3.555-16.858
		c10.033-11.965-31.329-21.032-38.091-25.869c-0.688-0.495-5.288-4.125-6.116-2.084c-0.43,1.051,2.431,2.633,3.127,3.086
		c4.524,2.964,9.543,5.427,14.51,7.779c1.691,0.803,3.56,1.364,5.196,2.249c3.284,1.784,3.192,6.968,3.68,9.905
		c0.659,3.961,1.655,8.344,5.264,11.111c2.616,2.007-1.212,7.106,2.814,10.325c-7.484-0.281-12.461-4.785-15.698-10.346
		c-2.703-4.634-3.495-11.389-7.578-15.235c-2.33-2.194-4.878-1.267-7.873-1.269c-4.537,0-7.789-3.656-9.496-6.963
		c-3.033-5.873-4.125-13.236,2.593-17.538c7.638-4.894,17.178-2.45,24.618,1.277c3.989,2,7.81,4.118,12.123,5.556
		c4.602,1.535,9.746,2.126,14.173,4.008c9.512,4.034,6.82,11.875,10.356,18.92c2.947,6.069-6.33,11.539-11.21,14.085
		c4.313,0.018,9.288-1.363,13.483,0.052c1.78,0.6,2.048,1.603,2.64,3.002c1.363,3.219,2.551-3.049,2.554-3.784
		c0.052-7.86-7.484-14.823-5.381-22.822c2.215-8.456,13.233-7.866,20.815-8.489c4.543-0.367,9.176-2.973,13.741-1.845
		c5.819,1.444,6.927,6.507,5.58,11.056c-1.421,4.776-3.239,9.338-3.458,14.333c-0.045,1.066-0.178,2.129-0.097,3.2
		c0.086,1.142,1.686,2.696,2.426,0.782c0.779-2.023,2.304-18.946,5.788-21.521c2.83-2.09,6.645-0.534,7.229,2.414
		c0.899,4.563-3.083,22.775-7.229,27.252c-3.461,3.727-16.465,1.373-18.202-1.009c-4.431-6.071-5.449-15.963,1.857-28.716
		c1.932-3.37-1.423-1.97-3.111-0.228c-1.376,1.419-3.272,6.287-5.35,6.692c-3.341,0.65-5.78-6.526-9.295-7.058
		c-1.624,2.267,4.232,7.573,5.235,9.704c2.564,5.453,5.66,13.372,4.892,19.255c-0.524,4.003-3.14,5.913-5.916,8.097
		c-2.21,1.74-4.12,4.176-8.055,4.176C85.585,96.739,80.438,93.897,77.167,92.821z M52.706,70.941
		c-1.251-3.586-1.665-7.377-3.302-10.862c4.347,1.865,8.886,3.565,12.623,6.321C59.129,68.208,56.008,69.777,52.706,70.941
		C52.552,70.504,53.282,70.737,52.706,70.941C51.455,67.36,53.292,70.737,52.706,70.941z"/>
	<path fill="#fff" d="M46.288,122.749c-0.245-7.045,17.032-8.553,13.676,1.992C59.317,126.767,46.639,132.741,46.288,122.749z M67.82,115.603
		c2.025-1.301,6.624-12.264-9.736-13.297c-2.363-0.145-5.816,0.389-7.21-1.795c-1.934-3.047-3.354,0.287-2.147,2.375
		c-5.165,0.391-15.693,5.371-16.136,5.271c-5.918-1.299-9.23-6.857-10.835-11.597c-2.03-6.009-0.237-12.336,5.801-15.972
		c1.363-0.823,6.799-3.979,8.493-2.832c1.783,1.206,2.814,5.154,4.188,6.861c-3.654,1.36-4.972,4.792-9.374,4.938
		c-1.214,0.045-3.231-0.161-4.016,0.923c-1.438,1.985,4.722,1.561,5.834,1.49c-0.597,1.259-1.298,2.638-1.392,4.019
		c-0.096,1.481,2.08,1.2,2.45,0.036c1.23-3.775,4.206-8.08,9.115-8.57c4.826,4.467,9.655,3.956,15.99,4.383
		c5.863,0.401,12.164,2.184,17.485,4.347c10.403,4.233,11.471,11.34,5.746,19.346c-1.754,2.451-3.408,5.037-4.797,7.662
		c-0.943,1.799-11.87,0.613-14.541,1.221C63.325,120.862,64.797,117.55,67.82,115.603z M26.092,65.219
		c1.454,0,3.674-0.494,4.784,0.636c2.15,2.202,2.658,6.143,3.781,8.812C30.183,72.804,28.513,72.824,26.092,65.219z"/>
	<path fill="#fff" d="M35.83,119.009c2.83-1.988,3.745-5.525,1.188-8.023c12.625-5.48,26.773-6.799,28.443-3.586
		c1.709,3.318-3.004,7.492-4.003,9.385c-2.27-3.404-7.078-3.646-10.89-2.373c-2.489,0.826-4.365,2.361-6.911,3.023
		C41.091,118.104,38.478,118.644,35.83,119.009c0.297-0.209,1.05-0.289,1.415-0.25C36.794,118.913,36.323,118.995,35.83,119.009
		C38.717,116.979,38.884,118.593,35.83,119.009z"/>
	<path fill="#fff" d="M24.377,116.427c-2.176-8.477,16.053-6.904,10.247,1.219C32.304,120.894,25.328,120.122,24.377,116.427z"/>
	<path fill="#fff" d="M153.099,96.868c9.235-4.683,16.104-14.367,15.956-26.172c-0.07-5.549-1-11.074,2.072-16.209
		c2.407,9.206,8.253,17.335,4.644,27.009c-3.039,8.146-10.113,14.974-11.308,23.679c-1.498-1.746-0.002,0.033,0,0
		C161.409,101.612,157.467,98.595,153.099,96.868z"/>
	<path fill="#fff" d="M82.564,124.513c-0.982-0.018-1.962-0.061-2.939-0.125c1.267-4.1,5.207-6.84,7.925-10.166
		c1.488-1.824,2.583-3.896,2.929-6.139c0.172-1.09,0.165-2.182-0.023-3.271c1.178-1.209,2.288-2.463,3.398-3.719
		c6.34-7.201,14.491-11.714,25.548-10.029c14.192,2.163,10.656,9.896,6.588,15.748c-0.599,0.863-6.926,10.459-8.18,10.709
		c-7.158,1.436-7.505-4.213-19.094,3.109c1.551-6.83,8.938-10.637,13.848-15.5c1.777-1.76,2.122-3.355,4.681-4.08
		c1.999-0.564,9.076-5.121,6.817-6.131c-1.402-0.628-4.688,3.325-7.769,3.461c0.008-1.324-0.417-2.927-1.254-4.047
		c-0.43-0.568-1.092-0.957-1.823-0.472c-1.476,0.964,0.047,1.55,0.447,2.71c1.39,4.042-3.435,7.633-6.496,9.909
		c-4.109,3.051-8.302,5.85-10.804,10.182c-0.771,1.324-1.347,2.744-1.644,4.209c-0.456,2.223-1.647,2.117-4.083,2.723
		C88.282,124.179,84.186,124.585,82.564,124.513C81.582,124.495,82.564,124.513,82.564,124.513z"/>
	<path fill="#fff" d="M71.328,164.091c-2.324-8.135-11.797-9.123-17.803-14.436c-2.979-2.639-5.128-6.115-5.121-9.902
		c0.013-4.971,3.002-7.225,7.445-9.58c9.78-5.186,18.447-2.242,29.205-2.887c13.384-0.809,18.155-6.068,25.522-6.658
		c7.102-0.574,14.453,6.428,9.952,12.42c-4.261,5.67-12.386,7.939-16.998,13.412c-1.313,1.561-3.216,1.105-5.058,1.811
		c-4.665,1.785-11.247,8.746-7.411,12.947c2.449-0.814,1.175-3.873,2.259-5.502c1.548-2.338,4.354-4.984,7.653-5.133
		c-2.551,6.848,1.298,3.189-0.828,9.156c-1.634,4.66-8.373,8.461-13.191,5.99c-7.203-3.684-5.499-12.541-1.368-17.443
		c8.38-9.936,24.353-13.486,24.353-17.6c0-2.258-14.265,7.41-19.302,8.928c-8.371,2.525-11.727,0.063-19.037-0.824
		c-7.435-0.9-13.996-1.559-13.996,0.695c0,1.496,2.259,0.889,4.464,0.793c8.349-0.346,16.764,6.119,17.504,9.107
		c0.495,2.025-6.497,22.455,12.545,18.842c-0.367,5.771-5.11,8.928-9.426,8.928C74.802,177.155,73.42,171.397,71.328,164.091z
		 M122.884,160.44c-1.838,0-5.911-1.256-5.249-3.486c0.696-2.352,4.503-5.217,6.072-7.297c4.92-6.5,9.457-13.299,15.336-19.186
		c4.453-4.455,10.619-9.617,17.473-10.889c1.612-0.303,5.704-0.299,5.545-2.516c-0.091-1.328-5.264-0.1-5.968,0.047
		c-4.354,0.891-8.45,0.021-10.434-3.961c-0.438-0.881-2.471-3.648-3.036-1.098c-0.531,2.387,0.798,4.854,0.311,7.225
		c-1.16,5.631-8.011,9.725-11.698,14.146c-4.495,5.377-8.05,11.211-11.898,16.936c-2.752,4.104-6.945,8.371-12.973,7.746
		c-5.373-0.563-3.677-6.199-1.801-8.971c3.247-4.787,9.429-7.26,14.349-10.465c2.465-1.602,5.665-3.75,6.327-6.549
		c0.667-2.83-3.185-9.037-2.379-11.82c0.786-2.715,8.617-13.09,10.887-15.852c4.097-4.992,11.067-5.693,18.163-3.721
		c6.286,1.744,10.891,6.471,14.192,11.27c4.3,6.236,4.459,11.848-3.338,15.32c-9.608,4.271-15.391,12.094-20.895,19.844
		c-4.771,6.732-10.338,13.275-20.144,13.275C122.112,160.44,122.498,160.446,122.884,160.44
		C120.243,160.44,122.884,160.44,122.884,160.44z"/>
	<path fill="#fff" d="M144.46,168.54c-5.229-0.531-7.622-5.973-7.049-10.033c0.386-2.736,2.39-4.475,4.227-6.563
		c2.861-3.248,5.572-6.596,8.454-9.824c0.13,5.395-1.473,9.922-2.661,15.063c-0.628,2.715,1.274,4.121,2.536,1.191
		c2.251-5.236,3.643-11.766,3.856-17.373c4.061,5.742,4.284,11.871,1.059,17.959c-1.971,3.727-5.73,10.051-11.331,9.486
		C143.854,168.478,144.158,168.532,144.46,168.54C137.805,167.862,144.46,168.54,144.46,168.54z"/>
	<path fill="#fff" d="M154.404,137.54c1.162-1.256,2.452-2.416,3.763-3.549c2.721,4.729,3.834,11.084,3.834,11.084
		c2.973,1.9-0.667-12.881-0.097-13.701c1.357-1.957,2.598-2.729,3.675-2.729c6.363,0,7.927,20.963-5.293,19.609
		c0.003-0.014,0.222-0.018,0,0C160.286,148.255,161.125,143.118,154.404,137.54z"/>
	<path fill="#fff" d="M168.208,26.714c5.014-7.345,15.979-6.053,15.789,3.334c-0.177,8.508-11.661,12.764-13.11,20.925
		c-8.086,8.496-3.252,20.436-8.148,30.058c-3.938,7.724-11.967,16.141-22.523,15.719c0.256,0.004,0.509,0.008,0.762,0.012
		c-4.77-0.072,0,0,0,0c-8.728-0.132-10.338-8.273-7.826-14.118c3.104-7.208,5.277-15.269,5.006-23.035
		c-0.102-2.967-1.868-5.745-5.264-6.575c-1.001-0.228-1.014-4.508-0.985-5.272c0.133-3.242-1.592-2.133-2.418,0.068
		c-0.831,2.207,0.506,5.574-2.874,6.194c-0.156-1.563-0.774-3.076-1.73-4.396c-1.191-1.649-3.148-1.722-1.204-3.415
		c2.332-2.031,5.248-3.502,8.472-4.09c7.156-1.303,13.846,1.556,16.884,7.407c3.396,6.525,1.193,13.127-0.273,19.872
		c-0.701,3.228-1.676,6.412-3.119,9.447c-0.347,0.735-4.99,7.74-2.27,6.891c3.83-1.193,6.682-8.651,7.7-11.415
		c2.788-7.538,3.083-15.594,5.884-23.128c1.345-3.624,2.7-7.239,4.206-10.81"/>
</g>
</svg>
