<?xml version="1.0" encoding="utf-8"?>
<!-- Generator: Adobe Illustrator 16.0.0, SVG Export Plug-In . SVG Version: 6.00 Build 0)  -->
<!DOCTYPE svg PUBLIC "-//W3C//DTD SVG 1.1//EN" "http://www.w3.org/Graphics/SVG/1.1/DTD/svg11.dtd">
<svg version="1.1" id="图层_1" xmlns="http://www.w3.org/2000/svg" xmlns:xlink="http://www.w3.org/1999/xlink" x="0px" y="0px"
	 width="198px" height="198px" viewBox="0 0 198 198" enable-background="new 0 0 198 198" xml:space="preserve">
<g>
	<path fill="#fff" d="M77.921,14.243C55.604,13.756,44.54,30.095,44.54,47.244c0,10.184,3.805,20.721,9.683,29.8
		c0.98-2.817,2.214-5.702,3.836-8.643c0.001-0.005,0.003-0.011,0.004-0.019c0.005-0.008,0.015-0.016,0.017-0.026
		c0.021-0.037,0.037-0.071,0.057-0.108c0.022-0.04,0.06-0.063,0.084-0.1c0.002-0.003,0.007-0.008,0.008-0.011
		c-1.884-1.276-3.819-2.494-5.826-3.615c2.605,0.771,5.142,1.784,7.61,2.962c0.153,0.048,0.29,0.119,0.419,0.206
		c5.721,2.791,11.019,6.566,15.637,11.021c3.417,3.208,6.414,6.833,9.173,10.598c2.724,3.803,5.114,7.843,7.262,11.96
		c2.086,4.17,3.914,8.453,5.468,12.828c1.506,4.395,2.87,8.82,3.849,13.342c2.036,9.01,3.11,18.232,2.95,27.402
		c-0.745-3.686-1.554-7.354-2.418-10.992c-0.292,0.07-0.597,0.086-0.898-0.023c-5.084-1.83-10.091-5.877-14.668-9.877
		c2.101,4.924,4.164,9.867,6.232,14.803c6.437,15.379,3.259,35.479,27.564,35.479c26.393,0,46.193-29.389,42.213-54.633
		C168.915,87.901,160.253,16.038,77.921,14.243z"/>
	<path fill="#fff" d="M65.492,73.641c-1.496-1.273-3.043-2.492-4.646-3.652c-11.703,21.287-4.738,34.216-4.738,38.927
		c0,7.662-9.226,27.488-24.724,32.176c-3.505,0.846,0.704,7.463,4.712,7.463c8.437-0.957,15.456-9.352,21.158-15.295
		c5.57-5.805,10.833-11.287,17.997-11.287c5.676,0,15.817,13.932,26.244,18.391c-0.89-3.541-1.847-7.059-2.902-10.535
		c-2.122,0.623-9.777-5.959-8.415-8.313c0.552-0.949,2.251-0.678,5.151-1.555c-0.514-1.426-1.041-2.848-1.622-4.26
		c-0.337-0.879-0.702-1.738-1.061-2.605c-6.557,3.605-13.729,3.008-15.112,1.789c-3.503-3.08,6.49-15.33,8.092-16.253
		c-1.966-3.469-3.19-5.316-4.513-7.297c-3.764,3.602-5.375,7.778-6.667,11.148c-1.449,3.789-2.818,7.367-6.812,7.367
		c-3.943,0-3.943-6.539-3.943-10.055c0-4.873,3.452-6.562,7.108-8.351c2.191-1.072,4.675-2.288,7.182-4.362
		c0.015-0.013,0.033-0.016,0.047-0.026c0.001-0.003,0.004-0.003,0.005-0.005c-1.213-1.609-2.481-3.182-3.797-4.72
		c-0.101,0.087-0.191,0.183-0.316,0.243c-3.88,1.89-4.674,2.584-8.625,2.584C61.088,85.159,64.148,75.245,65.492,73.641z"/>
</g>
</svg>
