<?xml version="1.0" encoding="iso-8859-1"?>
<!-- Generator: Adobe Illustrator 16.0.0, SVG Export Plug-In . SVG Version: 6.00 Build 0)  -->
<!DOCTYPE svg PUBLIC "-//W3C//DTD SVG 1.1//EN" "http://www.w3.org/Graphics/SVG/1.1/DTD/svg11.dtd">
<svg version="1.1" id="&#x56FE;&#x5C42;_1" xmlns="http://www.w3.org/2000/svg" xmlns:xlink="http://www.w3.org/1999/xlink" x="0px"
	 y="0px" width="198px" height="198px" viewBox="0 0 198 198" style="enable-background:new 0 0 198 198;" xml:space="preserve">
<g>
	<path fill="#fff" d="M112.254,103.797c0.364-1.858,2.293-8.723,2.542-10.599c0.091-0.754,0.041-2.265,0-3.026
		c-0.05-0.853-0.174-2.571-0.386-3.399c-0.244-0.989-1.154-2.832-1.511-3.78c-0.579-1.561-1.718-4.683-2.224-6.268
		c-0.385-1.238-1.03-3.772-1.399-5.019c-0.327-1.18-1.039-3.531-1.399-4.699c-0.219-0.736-0.389-2.355-0.915-2.914
		c-0.91-0.978-4.968-1.946-4.968-1.946l-5.614-3.461l-2.915-3.135l-3.246-3.561l-3.618-5.668l-3.35-6.417l-1.08-4.442l-0.969-4.265
		l-0.381-4.045l-0.162-3.892l-0.161-4.104h13.179l0.757,6.103l0.87,4.915l1.399,5.08l1.945,4.749l2.046,2.923l3.237,2.749
		c0,0,3.043,1.118,4.107,1.13c0.969,0.013,2.832-0.6,3.73-0.964c1.481-0.621,4.21-2.364,5.56-3.251
		c1.665-1.08,4.729-3.614,6.426-4.637c1.333-0.808,4.124-2.182,5.564-2.753c1.143-0.46,3.479-1.284,4.695-1.462
		c2.534-0.381,7.734-0.372,10.26,0.059c1.399,0.228,4.069,1.229,5.345,1.834c1.838,0.86,5.304,3.026,6.918,4.272
		c2.286,1.747,6.468,5.755,8.422,7.875c1.411,1.531,4.086,4.761,5.191,6.533c1.325,2.157,3.337,6.844,4.314,9.183
		c0.952,2.269,2.749,6.86,3.395,9.225c0.539,1.946,1.209,5.908,1.466,7.887c0.373,2.948,0.787,8.869,0.812,11.833
		c0.013,2.447-0.252,7.341-0.484,9.775c-0.281,2.89-0.906,8.69-1.627,11.497c-0.604,2.385-2.534,6.931-3.507,9.188
		c-1.031,2.393-3.204,7.146-4.542,9.398c-1.159,1.979-3.854,5.701-5.283,7.506c-1.677,2.107-5.282,6.095-7.138,8.041
		c-2.028,2.136-6.127,6.367-8.425,8.205c-2.472,1.996-7.834,5.461-10.628,6.969c-2.161,1.163-6.729,3.022-9.026,3.883
		c-2.252,0.841-6.781,2.423-9.125,2.919c-2.211,0.48-6.748,0.898-9.021,1.027c-2.339,0.132-7.051,0.207-9.386,0
		c-1.93-0.166-5.755-0.721-7.614-1.181c-1.949-0.484-5.709-1.858-7.563-2.6c-2.563-1.026-7.598-3.313-10.049-4.587
		c-1.834-0.953-5.461-2.936-7.134-4.166c-0.915-0.658-2.555-2.256-3.391-3.014c-1.213-1.097-3.357-3.618-4.761-4.43
		c-0.422-0.257-1.395-0.576-1.888-0.604c-0.456,0-1.337,0.322-1.78,0.438c-0.957,0.265-2.803,1.006-3.78,1.192
		c-0.667,0.129-2.029,0.244-2.695,0.216c-1.205-0.046-3.635-0.323-4.761-0.758c-0.7-0.266-1.909-1.242-2.53-1.677
		c-0.654-0.447-1.921-1.453-2.6-1.893c-0.406-0.265-1.229-0.886-1.722-0.969c-0.414-0.074-1.279,0.12-1.681,0.273
		c-0.633,0.257-1.805,1.052-2.256,1.561c-1.213,1.375-2.658,4.799-3.357,6.483c-0.414,1.011-1.027,3.102-1.292,4.161
		c-0.319,1.333-0.758,4.05-0.969,5.399c-0.261,1.656-0.72,4.977-0.919,6.641c-0.095,0.754-0.323,3.026-0.323,3.026H12.139
		c0,0,0.211-4.426,0.376-5.888c0.162-1.568,0.663-4.674,0.969-6.21c0.497-2.521,1.647-7.531,2.372-9.986
		c0.327-1.102,1.122-3.241,1.52-4.326c0.509-1.388,1.523-4.165,2.157-5.503c0.675-1.444,2.178-4.252,3.072-5.564
		c0.878-1.279,2.853-3.659,3.95-4.757c0.874-0.874,2.795-2.496,3.83-3.188c1.093-0.717,3.436-1.889,4.649-2.373
		c0.857-0.348,2.633-0.998,3.556-1.076c1.168-0.107,3.52,0.24,4.65,0.538c1.329,0.348,3.813,1.569,5.08,2.107
		c1.051,0.451,3.237,1.226,4.206,1.838c0.799,0.493,2.104,1.863,2.861,2.427c0.625,0.464,1.842,1.499,2.596,1.677
		c0.576,0.12,1.884-0.277,2.376-0.323c0.48-0.058,3.246-1.437,4.364-1.784c1.392-0.431,4.281-0.799,5.73-0.865
		c1.117-0.063,3.354,0.174,4.479,0.22c0.948,0.028,2.844,0.028,3.784,0.107c1.026,0.066,3.08,0.385,4.103,0.484
		c0.911,0.091,3.403,0.269,3.623,0.381c0.22,0.104,1.449,0.422,1.938,0.368c0.518-0.045,1.499-0.431,1.946-0.695
		c1.341-0.799,3.485-3.113,4.641-4.157c1.503-1.374,4.389-4.26,5.945-5.568c1.441-1.196,4.501-3.35,5.938-4.533
		c0.849-0.7,2.505-2.157,3.3-2.915c0.265-0.257,0.923-0.721,1.026-1.085C112.03,110.5,111.607,107.06,112.254,103.797z"/>
	<path fill="#fff" d="M29.755,175.332H11.107l0.058-1.022c0-0.174,0.215-4.463,0.377-5.938c0.178-1.622,0.683-4.77,0.981-6.297
		c0.53-2.666,1.693-7.643,2.406-10.073c0.348-1.192,1.238-3.598,1.528-4.389l0.149-0.41c0.546-1.453,1.449-3.921,2.045-5.167
		c0.679-1.448,2.202-4.318,3.155-5.701c0.902-1.328,2.915-3.742,4.062-4.89c0.902-0.906,2.877-2.587,3.987-3.308
		c1.139-0.762,3.523-1.95,4.811-2.472c0.426-0.174,2.621-1.043,3.842-1.146c1.25-0.112,3.718,0.235,4.977,0.566
		c1.052,0.278,2.674,1.011,3.983,1.603c0.463,0.216,0.886,0.406,1.226,0.551c0.286,0.12,0.646,0.265,1.043,0.422
		c1.18,0.469,2.521,0.99,3.304,1.491c0.534,0.322,1.184,0.915,1.822,1.49c0.401,0.381,0.824,0.766,1.114,0.981
		c0.12,0.078,0.261,0.203,0.418,0.322c0.464,0.353,1.399,1.094,1.801,1.185h0.004c0.389,0,0.919-0.128,1.308-0.211
		c0.307-0.054,0.563-0.116,0.746-0.137c0.174-0.05,1.051-0.443,1.702-0.721c0.923-0.414,1.879-0.836,2.488-1.022
		c1.499-0.464,4.479-0.832,5.97-0.906c0.783-0.042,2.046,0.045,3.143,0.119c0.547,0.042,1.048,0.075,1.412,0.096
		c0.355,0.017,0.845,0.021,1.366,0.024c0.861,0.021,1.843,0.038,2.455,0.079c0.621,0.05,1.561,0.174,2.455,0.281
		c0.646,0.092,1.246,0.17,1.677,0.216c0.236,0.021,0.592,0.045,0.989,0.083c2.397,0.211,2.704,0.256,2.965,0.389
		c0.174,0.066,1.043,0.277,1.399,0.277c0.331-0.024,1.176-0.344,1.557-0.571c0.869-0.518,2.285-1.9,3.313-2.919
		c0.455-0.427,0.849-0.819,1.167-1.113c0.563-0.51,1.3-1.226,2.087-1.983c1.354-1.292,2.89-2.77,3.896-3.606
		c0.771-0.638,1.976-1.544,3.143-2.413c1.039-0.774,2.128-1.569,2.799-2.129c0.824-0.675,2.438-2.103,3.238-2.864
		c0.074-0.083,0.182-0.175,0.306-0.273c0.137-0.112,0.381-0.323,0.48-0.431c0.414-1.632,0.497-3.325,0.584-5.113
		c0.07-1.536,0.149-3.122,0.443-4.675c0.165-0.766,0.563-2.289,1.014-4.057c0.625-2.414,1.388-5.412,1.523-6.476
		c0.079-0.575,0.046-1.839-0.008-2.845c-0.063-1.134-0.183-2.571-0.352-3.217c-0.133-0.559-0.563-1.549-0.911-2.348
		c-0.231-0.505-0.427-0.981-0.563-1.333c-0.616-1.627-1.73-4.729-2.228-6.31c-0.248-0.787-0.596-2.062-0.898-3.196
		c-0.202-0.708-0.376-1.375-0.517-1.854c-0.34-1.172-1.044-3.516-1.4-4.688c-0.074-0.231-0.141-0.555-0.215-0.906
		c-0.091-0.46-0.298-1.412-0.48-1.627c-0.426-0.447-2.662-1.222-4.479-1.656l-0.294-0.116l-5.809-3.631l-2.919-3.126l-3.354-3.705
		l-3.614-5.664l-3.47-6.724l-1.089-4.431l-0.994-4.409l-0.372-4.053l-0.373-9.051h15.054l0.854,6.951l0.869,4.865l1.362,4.931
		l1.888,4.608l1.913,2.712l3.01,2.566c1.201,0.439,3.022,1.007,3.618,1.007c0.75,0,2.456-0.526,3.35-0.891
		c0.994-0.414,2.812-1.47,5.399-3.155c0.725-0.472,1.73-1.237,2.799-2.045c1.32-0.998,2.675-2.028,3.651-2.616
		c1.362-0.812,4.186-2.216,5.709-2.819c1.201-0.489,3.599-1.329,4.911-1.52c1.221-0.187,3.067-0.294,5.08-0.294
		c2.202,0,4.198,0.128,5.489,0.348c1.499,0.252,4.265,1.287,5.606,1.912c1.975,0.932,5.498,3.163,7.079,4.381
		c2.443,1.867,6.699,5.97,8.554,7.995c1.433,1.561,4.149,4.835,5.292,6.674c1.002,1.614,2.479,4.753,4.396,9.328
		c0.978,2.343,2.791,6.955,3.44,9.349c0.543,1.975,1.229,5.999,1.486,8.02c0.381,3.056,0.778,8.963,0.812,11.932
		c0.029,2.431-0.235,7.304-0.488,9.879c-0.24,2.509-0.878,8.674-1.647,11.659c-0.571,2.219-2.244,6.297-3.562,9.323
		c-1.067,2.464-3.25,7.229-4.587,9.502c-1.192,2.021-3.925,5.797-5.366,7.614c-1.722,2.182-5.341,6.181-7.187,8.114
		c-2.708,2.841-6.381,6.579-8.521,8.293c-2.654,2.124-8.074,5.606-10.79,7.072c-2.178,1.171-6.736,3.043-9.134,3.933
		c-2.45,0.919-6.922,2.459-9.266,2.965c-2.272,0.484-6.814,0.91-9.17,1.047c-1.399,0.075-3.433,0.133-5.287,0.133
		c-1.246,0-3.006-0.024-4.24-0.141c-2.045-0.174-5.896-0.741-7.775-1.205c-1.945-0.484-5.738-1.854-7.684-2.638
		c-2.621-1.047-7.651-3.337-10.136-4.628c-1.979-1.031-5.561-3.015-7.249-4.236c-0.746-0.542-1.872-1.59-2.774-2.43
		c-0.27-0.257-0.509-0.477-0.716-0.658c-0.397-0.364-0.903-0.891-1.441-1.453c-1.035-1.052-2.306-2.373-3.138-2.857
		c-0.327-0.182-1.143-0.451-1.441-0.459c-0.199,0-0.791,0.19-1.076,0.277c-0.157,0.037-0.286,0.087-0.406,0.115
		c-0.36,0.104-0.865,0.278-1.391,0.456c-0.886,0.307-1.805,0.625-2.468,0.741c-0.741,0.157-2.178,0.265-2.919,0.244
		c-1.068-0.042-3.714-0.294-5.067-0.828c-0.65-0.253-1.528-0.886-2.215-1.403c-0.199-0.141-0.381-0.273-0.521-0.373
		c-0.29-0.194-0.679-0.497-1.097-0.808c-0.521-0.393-1.109-0.827-1.47-1.067l-0.307-0.203c-0.256-0.17-0.853-0.575-1.072-0.63l0,0
		c-0.356,0-0.89,0.125-1.134,0.229c-0.534,0.202-1.561,0.915-1.9,1.3c-0.783,0.895-1.847,2.977-3.171,6.21
		c-0.406,0.981-1.019,3.031-1.259,4.008c-0.306,1.279-0.737,3.979-0.944,5.267c-0.265,1.664-0.716,4.931-0.927,6.67
		c-0.083,0.745-0.315,3.002-0.315,3.002L29.755,175.332z M13.153,173.387h14.839c0.083-0.729,0.19-1.715,0.24-2.17
		c0.215-1.756,0.663-5.055,0.923-6.678c0.236-1.475,0.659-4.133,0.985-5.478c0.261-1.061,0.898-3.213,1.337-4.298
		c1.433-3.47,2.583-5.681,3.523-6.744c0.584-0.675,1.896-1.541,2.633-1.835c0.534-0.215,1.631-0.435,2.215-0.326
		c0.551,0.099,1.147,0.476,1.813,0.931l0.265,0.174c0.422,0.286,1.019,0.729,1.59,1.151c0.385,0.294,0.762,0.58,1.039,0.771
		c0.149,0.115,0.344,0.24,0.559,0.405c0.546,0.39,1.35,0.998,1.772,1.159c0.956,0.369,3.221,0.646,4.434,0.688h0.186
		c0.654,0,1.748-0.091,2.294-0.194c0.521-0.107,1.408-0.414,2.198-0.675c0.576-0.203,1.114-0.39,1.503-0.501
		c0.095-0.017,0.215-0.07,0.348-0.108c0.662-0.198,1.201-0.355,1.668-0.355c0.733,0.021,1.854,0.394,2.405,0.729
		c1.068,0.617,2.389,1.975,3.553,3.188c0.521,0.521,0.985,1.018,1.366,1.361c0.198,0.183,0.455,0.419,0.732,0.675
		c0.815,0.767,1.934,1.802,2.588,2.281c1.59,1.16,5.143,3.114,7.005,4.078c2.394,1.247,7.42,3.536,9.958,4.547
		c1.892,0.762,5.572,2.095,7.432,2.55c1.771,0.443,5.535,1.002,7.465,1.168c0.927,0.082,2.343,0.12,4.078,0.12
		c1.801,0,3.829-0.046,5.179-0.129c2.39-0.128,6.799-0.555,8.873-0.998c2.224-0.479,6.683-2.02,8.992-2.877
		c2.34-0.874,6.79-2.704,8.89-3.838c2.629-1.408,7.994-4.865,10.495-6.86c2.058-1.656,5.66-5.324,8.322-8.132
		c1.862-1.941,5.448-5.92,7.071-7.97c1.399-1.772,4.069-5.444,5.217-7.398c1.291-2.19,3.444-6.864,4.483-9.287
		c1.83-4.247,3.026-7.378,3.457-9.033c0.729-2.857,1.358-8.886,1.599-11.353c0.231-2.488,0.505-7.35,0.48-9.681
		c-0.029-2.86-0.439-8.772-0.8-11.708c-0.257-1.963-0.915-5.858-1.44-7.746c-0.621-2.307-2.397-6.815-3.357-9.121
		c-1.847-4.405-3.313-7.54-4.248-9.038c-1.044-1.677-3.656-4.849-5.067-6.389c-2.021-2.187-6.161-6.132-8.314-7.771
		c-1.498-1.155-4.905-3.295-6.731-4.161c-1.168-0.55-3.793-1.535-5.089-1.755c-1.163-0.199-3.093-0.314-5.162-0.314
		c-1.889,0-3.673,0.099-4.795,0.261c-1.06,0.165-3.3,0.932-4.479,1.399c-1.416,0.575-4.157,1.929-5.42,2.687
		c-0.882,0.534-2.206,1.536-3.486,2.505c-1.088,0.828-2.132,1.615-2.906,2.12c-2.72,1.768-4.583,2.86-5.726,3.324
		c-0.704,0.294-2.808,1.044-4.082,1.044c-1.205,0-3.921-0.99-4.464-1.192l-0.152-0.063l-3.54-3.043l-2.153-3.109l-1.979-4.86
		l-1.416-5.08l-0.882-4.997l-0.65-5.296H81.517l0.281,6.977l0.368,3.933l0.957,4.207l1.052,4.293l3.295,6.322l3.528,5.531
		l3.18,3.499l2.831,3.026l5.366,3.308c1.168,0.282,4.314,1.131,5.3,2.19c0.555,0.592,0.773,1.64,0.969,2.555
		c0.054,0.277,0.104,0.542,0.174,0.732c0.352,1.185,1.06,3.536,1.407,4.72c0.137,0.489,0.314,1.168,0.521,1.896
		c0.299,1.102,0.638,2.36,0.874,3.102c0.48,1.531,1.606,4.649,2.194,6.214c0.111,0.331,0.318,0.767,0.525,1.242
		c0.386,0.902,0.837,1.934,1.015,2.646c0.24,0.961,0.373,2.828,0.418,3.59c0.013,0.36,0.108,2.24-0.008,3.196
		c-0.157,1.185-0.878,3.999-1.573,6.72c-0.439,1.656-0.845,3.233-0.981,3.949c-0.277,1.421-0.348,2.857-0.418,4.385
		c-0.083,1.843-0.174,3.743-0.679,5.598c-0.158,0.567-0.663,0.998-1.068,1.342c-0.087,0.074-0.174,0.137-0.22,0.187
		c-0.824,0.79-2.509,2.265-3.35,2.968c-0.712,0.588-1.768,1.366-2.882,2.199c-1.143,0.849-2.326,1.726-3.055,2.33
		c-0.953,0.8-2.46,2.249-3.789,3.516c-0.807,0.778-1.561,1.503-2.119,2.021c-0.311,0.285-0.7,0.654-1.11,1.076
		c-1.229,1.196-2.62,2.559-3.692,3.2c-0.501,0.29-1.623,0.767-2.352,0.828c-0.58,0.066-1.851-0.215-2.36-0.418
		c-0.327-0.07-1.652-0.178-2.376-0.24c-0.41-0.033-0.767-0.07-1.011-0.095c-0.451-0.046-1.072-0.125-1.734-0.199
		c-0.874-0.124-1.78-0.244-2.348-0.281c-0.56-0.037-1.512-0.063-2.356-0.079c-0.529-0.004-1.026-0.017-1.395-0.024
		c-0.394-0.017-0.907-0.059-1.479-0.096c-1.026-0.074-2.215-0.165-2.914-0.124c-1.383,0.07-4.203,0.431-5.482,0.824
		c-0.497,0.148-1.449,0.575-2.277,0.943c-1.391,0.613-1.913,0.828-2.277,0.874c-0.128,0.017-0.327,0.063-0.551,0.111
		c-0.675,0.142-1.569,0.319-2.145,0.199c-0.766-0.174-1.619-0.799-2.571-1.549c-0.141-0.111-0.282-0.215-0.397-0.298
		c-0.364-0.269-0.799-0.671-1.267-1.089c-0.538-0.505-1.143-1.063-1.523-1.296c-0.638-0.401-2-0.932-2.994-1.325
		c-0.418-0.165-0.791-0.314-1.089-0.442c-0.352-0.146-0.795-0.348-1.275-0.567c-1.234-0.563-2.778-1.263-3.66-1.495
		c-1.084-0.281-3.283-0.6-4.314-0.513c-0.688,0.066-2.182,0.571-3.288,1.014c-1.167,0.477-3.461,1.623-4.471,2.29
		c-0.981,0.65-2.84,2.228-3.677,3.06c-1.064,1.064-2.998,3.391-3.838,4.612c-0.874,1.287-2.36,4.074-2.993,5.428
		c-0.559,1.18-1.449,3.586-1.979,5.018l-0.149,0.419c-0.281,0.77-1.163,3.13-1.495,4.247c-0.695,2.385-1.838,7.283-2.347,9.912
		c-0.298,1.482-0.791,4.555-0.96,6.119C13.368,169.573,13.231,171.995,13.153,173.387z"/>
</g>
</svg>
