<?xml version="1.0" encoding="iso-8859-1"?>
<!-- Generator: Adobe Illustrator 16.0.0, SVG Export Plug-In . SVG Version: 6.00 Build 0)  -->
<!DOCTYPE svg PUBLIC "-//W3C//DTD SVG 1.1//EN" "http://www.w3.org/Graphics/SVG/1.1/DTD/svg11.dtd">
<svg version="1.1" id="&#x56FE;&#x5C42;_1" xmlns="http://www.w3.org/2000/svg" xmlns:xlink="http://www.w3.org/1999/xlink" x="0px"
	 y="0px" width="198px" height="198px" viewBox="0 0 198 198" style="enable-background:new 0 0 198 198;" xml:space="preserve">
<path fill="#fff" d="M141.852,22.801l-3.67-5.718l-3.814-2.058L129.68,14l-4.105,0.877l-3.814,1.176l-3.807,0.586l-4.696,0.295l-4.524,2.344
	l-5.62,5.577l-4.114,2.754l-4.114-2.754l-5.619-5.577l-4.525-2.344l-4.687-0.295l-3.815-0.586l-3.811-1.176L68.316,14l-4.687,1.026
	l-3.815,2.058l-3.661,5.718l-2.647,10.264v8.798l0.591,9.237l2.639,9.238l3.819,8.652l3.075,5.756l0.188,0.368l-0.265,0.184
	c0,0,0.23,1.407,0.333,1.869c0.257,1.163,1.019,3.438,1.206,4.623c0.223,1.386,0.424,4.204,0.334,5.606
	c-0.146,2.178-1.258,6.429-1.65,8.58c-0.287,1.591-0.792,4.791-1.104,6.376c-0.642,3.311-2.502,9.84-2.857,13.197
	c-0.376,3.52-0.188,10.629,0,14.16c0.188,3.512,1.005,10.518,1.54,13.998c0.556,3.598,1.826,10.805,2.865,14.293
	c0.881,3.008,3.392,8.777,4.61,11.66c0.735,1.727,2.112,5.225,3.084,6.82c0.688,1.139,2.373,3.221,3.297,4.184
	c0.872,0.91,2.635,2.852,3.814,3.297c0.158,0.061,0.496,0.039,0.663,0c0.595-0.154,1.639-0.842,2.16-1.172
	c0.564-0.363,2.651-2.43,2.925-3.049c0.796-1.746,0.958-2.691,1.292-4.137c0.257-1.115,0.385-3.412,0.44-4.545
	c0.043-0.883,0.013-2.645,0-3.525c-0.021-1.352-0.103-4.07-0.141-5.422c-0.095-2.713-0.398-8.123-0.445-10.83
	c-0.043-2.24-0.056-6.727,0-8.973c0.03-1.578,0.205-4.725,0.291-6.299c0.192-3.502,0.428-10.529,0.881-14.006
	c0.239-1.869,0.906-5.6,1.467-7.408c0.654-2.135,2.43-6.262,3.52-8.207c0.744-1.338,2.566-3.797,3.516-4.996
	c0.309-0.375,0.941-1.145,1.326-1.458c0.462-0.39,1.429-1.172,2.078-1.296c0.65,0.124,1.621,0.906,2.083,1.296
	c0.381,0.313,1.018,1.083,1.321,1.458c0.95,1.199,2.78,3.658,3.516,4.996c1.095,1.945,2.865,6.072,3.524,8.207
	c0.556,1.809,1.223,5.539,1.463,7.408c0.453,3.477,0.692,10.504,0.885,14.006c0.081,1.574,0.261,4.721,0.291,6.299
	c0.052,2.246,0.047,6.732,0,8.973c-0.052,2.707-0.351,8.117-0.44,10.83c-0.043,1.352-0.129,4.07-0.146,5.422
	c-0.009,0.881-0.043,2.643,0,3.525c0.052,1.133,0.18,3.43,0.444,4.545c0.325,1.445,0.488,2.391,1.283,4.137
	c0.282,0.619,2.365,2.686,2.93,3.049c0.526,0.33,1.569,1.018,2.155,1.172c0.167,0.039,0.509,0.061,0.663,0
	c1.185-0.445,2.942-2.387,3.815-3.297c0.924-0.963,2.608-3.045,3.302-4.184c0.966-1.596,2.352-5.094,3.079-6.82
	c1.223-2.883,3.729-8.652,4.614-11.66c1.039-3.488,2.31-10.695,2.865-14.293c0.535-3.48,1.348-10.486,1.535-13.998
	c0.193-3.531,0.377-10.641,0-14.16c-0.354-3.357-2.215-9.887-2.856-13.197c-0.308-1.586-0.816-4.786-1.104-6.376
	c-0.394-2.151-1.505-6.402-1.642-8.58c-0.095-1.402,0.103-4.221,0.324-5.606c0.188-1.185,0.954-3.46,1.211-4.623
	c0.098-0.462,0.329-1.869,0.329-1.869l-0.257-0.184l0.18-0.368l3.079-5.756l3.815-8.652l2.643-9.238l0.59-9.237v-8.798
	L141.852,22.801z"/>
</svg>
