<?xml version="1.0" encoding="UTF-8"?>
<svg width="190px" height="190px" viewBox="0 0 190 190" version="1.1" xmlns="http://www.w3.org/2000/svg" xmlns:xlink="http://www.w3.org/1999/xlink">
    <!-- Generator: Sketch 56 (81588) - https://sketch.com -->
    <title>皮肤备份 3</title>
    <desc>Created with Sketch.</desc>
    <g id="皮肤备份-3" stroke="none" stroke-width="1" fill="none" fill-rule="evenodd">
        <rect id="矩形备份-131" fill-opacity="0" fill="#FFFFFF" fill-rule="nonzero" x="0" y="0" width="190" height="190"></rect>
        <g id="皮肤科" transform="translate(28.000000, 31.000000)" fill="#FFFFFF" fill-rule="nonzero">
            <path d="M108.94754,18.3313424 C97.8373598,31.2432236 83.8467626,41.1439385 78.3521854,59.909527 C75.9316669,59.3072938 73.4869432,58.1028273 70.2918587,59.4036511 C68.4764698,60.126331 67.5324675,62.968872 66.806312,64.1492492 C64.9183075,63.2820333 60.5613741,60.704475 57.4147,59.0182218 C58.2134711,57.6933086 60.1982963,55.5734475 60.1740911,52.5381919 C60.149886,49.7679189 56.5433133,46.9253779 55.9381837,46.5399486 C64.4342038,32.5681368 73.2206861,18.8853971 76.9966951,0.0234512026 C88.3005167,5.44355059 98.2972583,12.2126525 108.94754,18.3313424 Z M60.0530652,64.5587678 C60.2709119,64.7273932 60.8760415,65.1610011 61.2633245,65.955949 C61.5295815,66.9195222 61.5537867,67.4253982 61.5537867,68.3167034 C61.5053763,75.2303413 53.5418703,79.4941528 44.3923102,78.9641875 C32.7012056,78.2896863 16.8952195,71.9782817 7.69724899,68.653954 C6.70483638,68.2926141 6.002886,68.0758101 5.20411488,67.5458448 C4.72001117,67.0881476 4.16329191,66.6063609 4.01806079,65.6668771 C3.99385561,64.3419639 4.04226598,62.7761574 4.42954895,61.4030655 C4.47795932,61.2103509 4.6716008,60.487671 5.03467858,59.909527 C5.34934599,59.4277404 5.63980822,58.8495965 6.26914304,58.3918992 C7.11632454,57.7655766 7.86668529,57.8619339 8.68966159,57.9101126 C19.2915328,58.2955419 38.9219383,66.7508969 52.5736629,67.6662915 C54.7279244,66.9436116 55.8655681,65.1369118 58.0198296,64.4142319 C58.7459852,64.1733386 59.3027045,64.1733386 60.0530652,64.5587678 L60.0530652,64.5587678 Z" id="形状"></path>
            <path d="M31.4667411,99.3919399 C34.7586464,98.66926 33.2337197,92.18923 29.8449937,93.7550365 C28.0780152,94.9354137 28.1990411,99.5605652 31.4667411,99.3919399 Z M21.9541032,97.9706694 C24.9313411,100.355513 28.8525811,96.2362376 26.7225248,93.0323566 C23.8663129,90.1898156 20.2597403,94.9113244 21.9541032,97.9706694 Z M35.363776,91.1774781 C34.2745427,92.3819447 34.6376204,94.5258951 35.5574175,95.8748976 C38.1957827,98.4042773 42.8673835,93.7309472 40.325839,90.9365848 C38.7040916,89.1539744 36.7192664,89.780297 35.363776,91.1774781 Z M15.1524461,93.7550365 C15.7575758,94.9835924 19.315738,94.9835924 19.9208677,93.7550365 C22.317181,88.6962771 12.1994135,87.7567932 15.1524461,93.7550365 Z M41.6571242,90.2139049 C43.7871806,91.2256568 46.6433924,89.7321183 45.3363124,86.6968627 C44.7795932,85.4923961 42.4801005,85.0587882 41.4634828,86.5523267 C40.5194805,87.9735972 40.8825583,89.3948677 41.6571242,90.2139049 Z M23.7694922,88.2385798 C24.3262114,89.6116717 27.3518596,90.2139049 28.7557604,88.8167238 C30.0628404,87.5158999 29.2398641,84.4324656 28.0780152,83.878411 C25.1249825,82.5294085 22.5592329,85.2755922 23.7694922,88.2385798 Z M10.6018712,87.9495079 C11.2554113,89.2262424 14.619932,89.4671357 15.1524461,88.1181332 C15.5881395,87.0341133 15.660755,85.6369321 15.1524461,84.6010909 C13.7485454,81.6621926 8.98012382,84.7215376 10.6018712,87.9495079 Z M34.8796723,88.8167238 C35.9689056,88.4794731 37.2517805,87.4918106 36.9129079,85.9982721 C34.7586464,81.2767633 29.9418145,89.0576171 34.8796723,88.8167238 Z M20.6470232,84.6733589 C22.5350277,84.6010909 23.2369781,83.5411604 23.0675418,81.7826392 C20.8648699,77.1574877 14.1116231,84.0711256 20.6470232,84.6733589 Z M8.83489271,81.3731206 C10.5050505,82.0476219 12.1025927,81.9030859 12.659312,80.6986193 C14.1358283,77.470649 11.8363357,75.4712346 8.78648233,76.9406838 C7.60042825,77.542917 7.60042825,80.8672447 8.83489271,81.3731206 Z M73.6079691,105.727434 C72.6155565,112.303821 81.1357818,110.521211 86.509333,110.665747 C91.2051389,110.786193 96.3124331,110.665747 100.741982,110.641657 C102.194293,110.641657 103.356142,110.569389 104.542196,111.099355 C105.195736,111.388427 105.849276,111.749766 106.236559,112.303821 C108.753898,115.94131 108.874924,120.446015 106.212354,124.011236 C105.825071,124.517112 105.389378,124.92663 104.760043,125.191613 C104.130708,125.456596 103.501373,125.552953 102.799423,125.601132 C88.08267,126.323811 70.8243728,127.022402 56.9063911,125.769757 C54.1954103,125.528864 52.2589955,125.769757 50.0321184,124.637558 C48.797654,124.011236 46.9338547,122.927216 45.5783643,122.108179 C32.4107434,114.13461 4.81683191,112.68925 0.217846669,111.219801 C0.290462226,102.908982 0.847181492,75.8084852 0.895591863,71.930103 C1.5007215,71.4964951 29.1672485,78.8196516 43.0368198,82.5053191 C49.6206303,84.2397509 56.6885444,87.2990959 63.417586,88.1422225 C81.2083973,90.3825302 107.713075,83.589339 118.460178,92.3578553 C122.938137,95.9953443 127.028813,104.860218 130.127077,111.292069 C131.046874,113.195126 134.653447,118.928387 134.096728,121.939553 C133.322162,126.155186 131.022669,128.419583 126.617325,127.576457 C120.517619,126.420169 118.000279,111.773856 113.715961,108.545886 C105.244147,103.005339 85.9526137,104.932486 73.6079691,105.727434 Z" id="形状"></path>
        </g>
    </g>
</svg>