<?xml version="1.0" encoding="utf-8"?>
<!-- Generator: Adobe Illustrator 16.0.0, SVG Export Plug-In . SVG Version: 6.00 Build 0)  -->
<!DOCTYPE svg PUBLIC "-//W3C//DTD SVG 1.1//EN" "http://www.w3.org/Graphics/SVG/1.1/DTD/svg11.dtd">
<svg version="1.1" id="图层_1" xmlns="http://www.w3.org/2000/svg" xmlns:xlink="http://www.w3.org/1999/xlink" x="0px" y="0px"
	 width="198px" fill="#fff" height="198px" viewBox="0 0 198 198" enable-background="new 0 0 198 198" xml:space="preserve">
<g>
	<g>
		<path d="M25.73,75.201c-3.93-2.141-4.868-4.831-9.022-8.272l-0.104-0.087l-0.093-0.097c-3.354-3.492-4.612-8.713-3.453-14.322
			c1.381-6.669,5.947-12.371,11.92-14.88c8.92-3.717,15.963-1.81,22.987,0.654l0.087,0.033c18.63,7.375,34.097,10.495,50.158,10.12
			c1.297-0.029,2.389,1.001,2.418,2.305c0.031,1.304-1.002,2.385-2.307,2.416c-0.898,0.021-1.799,0.031-2.695,0.031
			c-15.751,0-31.076-3.267-49.269-10.465c-6.566-2.302-12.182-3.813-19.558-0.739c-4.552,1.913-8.048,6.313-9.117,11.48
			c-0.817,3.953-0.015,7.681,2.148,10.006c4.9,4.094,10.173,7.034,10.666,9.165c0.396,1.708,5.651,6.515,4.687,7.085
			C33.9,80.393,26.559,75.653,25.73,75.201z"/>
		<rect x="12.663" y="33.602" fill="none" width="170" height="134.505"/>
		<path d="M87.133,69.262c2.598,3.365,3.975,8.081,4.336,14.836c0.565,6.602,1.186,10.796,2.997,15.374l0.032,0.087
			c1.905,5.422,3.393,16.016,1.389,20.277l-0.052,0.107l-0.061,0.104c-1.011,1.686-2.498,2.688-4.187,2.822
			c-0.123,0.01-0.252,0.016-0.387,0.016l0,0c-1.472,0-3.599-0.658-5.965-3.473c-0.84-0.996-0.711-2.486,0.286-3.326
			c0.998-0.838,2.487-0.711,3.326,0.287c1.279,1.52,2.138,1.805,2.362,1.791c0.072-0.008,0.242-0.131,0.449-0.443
			c1.075-2.58,0.244-11.266-1.602-16.555c-2.008-5.086-2.709-9.8-3.297-16.704l-0.008-0.077c-0.296-5.646-1.641-9.451-3.31-12.173
			C76.36,60.659,36.129,48.188,31.202,49.292C27.926,50,26.6,51.937,26.06,53.437c-0.693,1.93-0.298,3.601,0.069,4.067l0.036,0.046
			c0.87,1.166,2.909,3.894,9.56-0.115c1.115-0.673,2.566-0.313,3.24,0.804s0.313,2.568-0.803,3.241
			c-3.262,1.965-6.113,2.87-8.719,2.769c-2.799-0.109-5.234-1.441-7.045-3.85c-1.58-2.033-1.895-5.467-0.781-8.563
			c0.771-2.147,2.913-5.935,8.569-7.157c6.114-1.369,46.143,11.311,56.837,24.45"/>
		<path d="M91.202,122.885"/>
		<path d="M61.926,47.664c-0.797,0-1.574-0.404-2.02-1.136c-0.678-1.114-0.322-2.567,0.792-3.244
			c10.94-6.648,22.683-9.672,36.966-9.517c1.305,0.016,2.35,1.083,2.336,2.389c-0.014,1.302-1.084,2.352-2.387,2.333
			c-13.355-0.146-24.311,2.66-34.463,8.83C62.768,47.552,62.344,47.664,61.926,47.664L61.926,47.664z M61.926,47.664"/>
		<path d="M92.736,167.875c-3.153,0-5.245-0.631-6.546-1.928c-1.053-1.047-1.507-2.498-1.281-4.088
			c1.025-7.58,0.885-14.324-0.367-17.625c-3.148-6.598-5.188-15.555-5.746-25.242c-0.378-5.619-1.727-19.396-6.144-26.18
			c-5.54-8.643-11.524-19.758-13.985-36.766c-0.188-1.291,0.708-2.488,1.998-2.675c1.291-0.188,2.49,0.708,2.676,1.999
			c2.325,16.073,7.757,26.263,13.278,34.88c4.837,7.43,6.392,21.007,6.888,28.438l0.002,0.023c0.527,9.129,2.42,17.498,5.331,23.564
			l0.071,0.162c2.274,5.818,1.23,15.975,0.676,20.07c-0.008,0.057-0.012,0.1-0.014,0.131c0.292,0.195,1.918,0.988,8.092,0.086
			c1.291-0.191,2.491,0.701,2.678,1.992c0.189,1.291-0.703,2.488-1.993,2.678C96.186,167.715,94.327,167.875,92.736,167.875
			L92.736,167.875z M92.736,167.875"/>
		<circle cx="37.746" cy="68.634" r="11.625"/>
	</g>
	<g>
		<path d="M159.418,79.634c-0.965-0.57,4.291-5.377,4.687-7.085c0.493-2.131,5.766-5.071,10.666-9.165
			c2.163-2.325,2.966-6.053,2.148-10.006c-1.069-5.167-4.565-9.567-9.117-11.48c-7.376-3.074-12.991-1.563-19.558,0.739
			c-18.192,7.198-33.518,10.465-49.269,10.465c-0.896,0-1.797-0.01-2.695-0.031c-1.305-0.031-2.338-1.112-2.307-2.416
			c0.029-1.304,1.121-2.334,2.418-2.305c16.062,0.375,31.529-2.745,50.159-10.12l0.087-0.033c7.024-2.464,14.067-4.372,22.987-0.654
			c5.973,2.509,10.539,8.21,11.92,14.88c1.159,5.609-0.099,10.83-3.453,14.322l-0.093,0.097l-0.104,0.087
			c-4.154,3.441-5.093,6.132-9.022,8.272C168.042,75.653,160.701,80.393,159.418,79.634z"/>
		<rect x="11.938" y="33.602" fill="none" width="170" height="134.505"/>
		<path d="M107.577,69.13c10.694-13.139,50.723-25.819,56.837-24.45c5.656,1.223,7.798,5.01,8.569,7.157
			c1.113,3.095,0.799,6.53-0.781,8.563c-1.811,2.409-4.246,3.74-7.045,3.85c-2.605,0.101-5.457-0.804-8.719-2.769
			c-1.115-0.673-1.477-2.125-0.803-3.241s2.125-1.477,3.24-0.804c6.65,4.009,8.689,1.281,9.56,0.115l0.036-0.046
			c0.367-0.467,0.763-2.137,0.069-4.067c-0.54-1.5-1.866-3.437-5.142-4.146c-4.928-1.104-45.158,11.367-52.243,22.921
			c-1.669,2.722-3.014,6.526-3.31,12.173l-0.008,0.077c-0.588,6.904-1.289,11.618-3.297,16.704
			c-1.846,5.289-2.677,13.975-1.602,16.555c0.207,0.313,0.377,0.436,0.449,0.443c0.225,0.014,1.083-0.271,2.362-1.791
			c0.839-0.998,2.328-1.125,3.326-0.287c0.997,0.84,1.126,2.33,0.286,3.326c-2.366,2.814-4.493,3.473-5.965,3.473l0,0
			c-0.135,0-0.264-0.006-0.387-0.016c-1.688-0.135-3.176-1.137-4.187-2.822l-0.061-0.104l-0.052-0.107
			c-2.004-4.262-0.517-14.855,1.389-20.277l0.032-0.087c1.812-4.577,2.432-8.771,2.997-15.374
			c0.361-6.756,1.738-11.471,4.336-14.836"/>
		<path d="M103.399,122.885"/>
		<path d="M132.675,47.664c-0.418,0-0.842-0.112-1.225-0.344c-10.152-6.17-21.107-8.976-34.463-8.83
			c-1.303,0.019-2.373-1.031-2.387-2.333c-0.014-1.306,1.031-2.374,2.336-2.389c14.284-0.155,26.026,2.868,36.966,9.517
			c1.114,0.676,1.47,2.129,0.792,3.244C134.249,47.259,133.472,47.664,132.675,47.664L132.675,47.664z M132.675,47.664"/>
		<path d="M101.865,167.875c-1.591,0-3.451-0.16-5.615-0.479c-1.289-0.189-2.182-1.387-1.992-2.678
			c0.188-1.291,1.387-2.184,2.678-1.992c6.174,0.902,7.8,0.109,8.092-0.086c-0.002-0.031-0.006-0.074-0.014-0.131
			c-0.555-4.096-1.599-14.252,0.676-20.07l0.071-0.162c2.911-6.066,4.804-14.436,5.331-23.564l0.002-0.023
			c0.496-7.432,2.051-21.009,6.888-28.438c5.521-8.617,10.953-18.807,13.278-34.88c0.186-1.291,1.385-2.187,2.676-1.999
			c1.29,0.187,2.186,1.385,1.998,2.675c-2.461,17.008-8.445,28.123-13.985,36.766c-4.417,6.784-5.766,20.561-6.144,26.18
			c-0.559,9.688-2.598,18.645-5.746,25.242c-1.252,3.301-1.393,10.045-0.367,17.625c0.226,1.59-0.229,3.041-1.281,4.088
			C107.11,167.244,105.019,167.875,101.865,167.875L101.865,167.875z M101.865,167.875"/>
		<circle cx="156.855" cy="68.634" r="11.625"/>
	</g>
</g>
</svg>
